<?xml version="1.0" encoding="UTF-8" standalone="no"?>
<!DOCTYPE svg PUBLIC "-//W3C//DTD SVG 1.1//EN"
 "http://www.w3.org/Graphics/SVG/1.1/DTD/svg11.dtd">
<!-- Generated by graphviz version 2.47.0 (20210316.0004)
 -->
<!-- Title: G Pages: 1 -->
<svg width="864pt" height="327pt"
 viewBox="0.00 0.00 864.00 326.99" xmlns="http://www.w3.org/2000/svg" xmlns:xlink="http://www.w3.org/1999/xlink">
<g id="graph0" class="graph" transform="scale(1.31 1.31) rotate(0) translate(4 246.54)">
<title>G</title>
<polygon fill="white" stroke="transparent" points="-4,4 -4,-246.54 657.98,-246.54 657.98,4 -4,4"/>
<!-- start -->
<g id="node1" class="node">
<title>start</title>
<ellipse fill="lightgrey" stroke="black" cx="27" cy="-152.54" rx="27" ry="18"/>
<text text-anchor="middle" x="27" y="-148.84" font-family="Times,serif" font-size="14.00">start</text>
</g>
<!-- gets -->
<g id="node3" class="node">
<title>gets</title>
<polygon fill="none" stroke="black" points="134.2,-170.54 90.8,-152.54 134.2,-134.54 177.6,-152.54 134.2,-170.54"/>
<text text-anchor="middle" x="134.2" y="-148.84" font-family="Times,serif" font-size="14.00">gets()</text>
</g>
<!-- start&#45;&gt;gets -->
<g id="edge1" class="edge">
<title>start&#45;&gt;gets</title>
<path fill="none" stroke="black" d="M54,-152.54C62.14,-152.54 71.42,-152.54 80.7,-152.54"/>
<polygon fill="black" stroke="black" points="80.71,-156.04 90.71,-152.54 80.71,-149.04 80.71,-156.04"/>
</g>
<!-- stop -->
<g id="node2" class="node">
<title>stop</title>
<ellipse fill="lightgrey" stroke="black" cx="134.2" cy="-80.54" rx="27" ry="18"/>
<text text-anchor="middle" x="134.2" y="-76.84" font-family="Times,serif" font-size="14.00">stop</text>
</g>
<!-- gets&#45;&gt;stop -->
<g id="edge3" class="edge">
<title>gets&#45;&gt;stop</title>
<path fill="none" stroke="black" d="M134.2,-134.12C134.2,-126.48 134.2,-117.43 134.2,-108.96"/>
<polygon fill="black" stroke="black" points="137.7,-108.7 134.2,-98.7 130.7,-108.7 137.7,-108.7"/>
<text text-anchor="middle" x="123.7" y="-112.84" font-family="Times,serif" font-size="14.00">No</text>
</g>
<!-- execute -->
<g id="node4" class="node">
<title>execute</title>
<polygon fill="none" stroke="black" points="382.19,-96.54 239.19,-96.54 239.19,-28.54 382.19,-28.54 382.19,-96.54"/>
<text text-anchor="middle" x="310.69" y="-81.34" font-family="Times,serif" font-size="14.00">execute next</text>
<text text-anchor="middle" x="310.69" y="-66.34" font-family="Times,serif" font-size="14.00">sed command</text>
<text text-anchor="middle" x="310.69" y="-51.34" font-family="Times,serif" font-size="14.00">&amp; update pattern space</text>
<text text-anchor="middle" x="310.69" y="-36.34" font-family="Times,serif" font-size="14.00">(&amp; maybe print)</text>
</g>
<!-- gets&#45;&gt;execute -->
<g id="edge2" class="edge">
<title>gets:e&#45;&gt;execute:w</title>
<path fill="none" stroke="black" d="M177.4,-152.54C221.6,-152.54 194.89,-76.7 227.45,-64.25"/>
<polygon fill="black" stroke="black" points="228.41,-67.64 237.69,-62.54 227.25,-60.74 228.41,-67.64"/>
<text text-anchor="middle" x="205.9" y="-148.34" font-family="Times,serif" font-size="14.00">Yes</text>
</g>
<!-- more -->
<g id="node5" class="node">
<title>more</title>
<polygon fill="none" stroke="black" points="552.98,-139.54 451.98,-101.54 552.98,-63.54 653.98,-101.54 552.98,-139.54"/>
<text text-anchor="middle" x="552.98" y="-105.34" font-family="Times,serif" font-size="14.00">more sed</text>
<text text-anchor="middle" x="552.98" y="-90.34" font-family="Times,serif" font-size="14.00">subcommands?</text>
</g>
<!-- execute&#45;&gt;more -->
<g id="edge4" class="edge">
<title>execute:e&#45;&gt;more:w</title>
<path fill="none" stroke="black" d="M383.69,-62.54C414.82,-62.54 416.94,-93.47 441.73,-100.24"/>
<polygon fill="black" stroke="black" points="441.62,-103.75 451.98,-101.54 442.5,-96.81 441.62,-103.75"/>
</g>
<!-- stdout -->
<g id="node6" class="node">
<title>stdout</title>
<polygon fill="lightgrey" stroke="black" points="266.26,-132.54 355.12,-132.54 386.77,-168.54 234.61,-168.54 266.26,-132.54"/>
<text text-anchor="middle" x="310.69" y="-146.84" font-family="Times,serif" font-size="14.00">standard out</text>
</g>
<!-- execute&#45;&gt;stdout -->
<g id="edge6" class="edge">
<title>execute:e&#45;&gt;stdout</title>
<path fill="none" stroke="black" stroke-dasharray="5,2" d="M356.38,-126.88C367.26,-118.96 377.29,-108.89 382.69,-96.54 388.75,-82.68 398.81,-62.54 383.69,-62.54"/>
<polygon fill="black" stroke="black" points="354.31,-124.05 347.94,-132.51 358.2,-129.87 354.31,-124.05"/>
<text text-anchor="middle" x="398.69" y="-110.84" font-family="Times,serif" font-size="14.00">[pPcia=]</text>
</g>
<!-- more&#45;&gt;gets -->
<g id="edge7" class="edge">
<title>more:n&#45;&gt;gets:n</title>
<path fill="none" stroke="black" d="M552.98,-140.54C552.98,-230.39 164.71,-262.47 135.89,-181.41"/>
<polygon fill="black" stroke="black" points="139.33,-180.8 134.2,-171.54 132.43,-181.98 139.33,-180.8"/>
<text text-anchor="middle" x="310.69" y="-231.34" font-family="Times,serif" font-size="14.00">No</text>
</g>
<!-- more&#45;&gt;execute -->
<g id="edge9" class="edge">
<title>more:s&#45;&gt;execute:s</title>
<path fill="none" stroke="black" d="M552.98,-62.54C552.98,-11.75 341.8,22.13 313.75,-17.86"/>
<polygon fill="black" stroke="black" points="310.37,-16.95 310.69,-27.54 317.05,-19.06 310.37,-16.95"/>
<text text-anchor="middle" x="419.48" y="-8.34" font-family="Times,serif" font-size="14.00">Yes</text>
</g>
<!-- more&#45;&gt;stdout -->
<g id="edge8" class="edge">
<title>more:n&#45;&gt;stdout</title>
<path fill="none" stroke="black" stroke-dasharray="5,2" d="M552.98,-140.54C552.98,-173.75 460.54,-169.68 390.09,-161.75"/>
<polygon fill="black" stroke="black" points="390.21,-158.24 379.87,-160.56 389.39,-165.2 390.21,-158.24"/>
<text text-anchor="middle" x="419.48" y="-169.34" font-family="Times,serif" font-size="14.00">no &#45;n</text>
</g>
<!-- stdout&#45;&gt;execute -->
</g>
</svg>
