<?xml version="1.0" encoding="UTF-8" standalone="no"?>
<!DOCTYPE svg PUBLIC "-//W3C//DTD SVG 1.1//EN"
 "http://www.w3.org/Graphics/SVG/1.1/DTD/svg11.dtd">
<!-- Generated by graphviz version 2.47.0 (20210316.0004)
 -->
<!-- Title: finite_state_machine Pages: 1 -->
<svg width="864pt" height="274pt"
 viewBox="0.00 0.00 864.00 274.32" xmlns="http://www.w3.org/2000/svg" xmlns:xlink="http://www.w3.org/1999/xlink">
<g id="graph0" class="graph" transform="scale(2.21 2.21) rotate(0) translate(4 120.39)">
<title>finite_state_machine</title>
<polygon fill="white" stroke="transparent" points="-4,4 -4,-120.39 387.79,-120.39 387.79,4 -4,4"/>
<!-- S -->
<!-- n0 -->
<g id="node3" class="node">
<title>n0</title>
<ellipse fill="none" stroke="black" cx="128.7" cy="-41.7" rx="37.89" ry="37.89"/>
<text text-anchor="middle" x="128.7" y="-38" font-family="Times,serif" font-size="14.00">{1,2,4}</text>
</g>
<!-- S&#45;&gt;n0 -->
<g id="edge1" class="edge">
<title>S&#45;&gt;n0</title>
<path fill="none" stroke="black" d="M54.19,-41.7C62.33,-41.7 71.55,-41.7 80.65,-41.7"/>
<polygon fill="black" stroke="black" points="80.81,-45.2 90.81,-41.7 80.81,-38.2 80.81,-45.2"/>
</g>
<!-- E -->
<!-- n1 -->
<g id="node4" class="node">
<title>n1</title>
<ellipse fill="none" stroke="black" cx="251.09" cy="-41.7" rx="37.88" ry="37.88"/>
<ellipse fill="none" stroke="black" cx="251.09" cy="-41.7" rx="41.89" ry="41.89"/>
<text text-anchor="middle" x="251.09" y="-38" font-family="Times,serif" font-size="14.00">{2,3,4}</text>
</g>
<!-- n0&#45;&gt;n1 -->
<g id="edge2" class="edge">
<title>n0&#45;&gt;n1</title>
<path fill="none" stroke="black" d="M166.47,-41.7C176.74,-41.7 188.09,-41.7 199.03,-41.7"/>
<polygon fill="black" stroke="black" points="199.34,-45.2 209.34,-41.7 199.34,-38.2 199.34,-45.2"/>
<text text-anchor="middle" x="187.89" y="-45.5" font-family="Times,serif" font-size="14.00">a</text>
</g>
<!-- n1&#45;&gt;E -->
<!-- n1&#45;&gt;n1 -->
<g id="edge3" class="edge">
<title>n1&#45;&gt;n1</title>
<path fill="none" stroke="black" d="M239.91,-81.87C240.45,-92.94 244.18,-101.39 251.09,-101.39 255.63,-101.39 258.79,-97.75 260.58,-92.12"/>
<polygon fill="black" stroke="black" points="264.1,-92.31 262.27,-81.87 257.19,-91.17 264.1,-92.31"/>
<text text-anchor="middle" x="251.09" y="-105.19" font-family="Times,serif" font-size="14.00">a</text>
</g>
</g>
</svg>
