<?xml version="1.0" encoding="UTF-8" standalone="no"?>
<!DOCTYPE svg PUBLIC "-//W3C//DTD SVG 1.1//EN"
 "http://www.w3.org/Graphics/SVG/1.1/DTD/svg11.dtd">
<!-- Generated by graphviz version 2.47.0 (20210316.0004)
 -->
<!-- Title: finite_state_machine Pages: 1 -->
<svg width="864pt" height="95pt"
 viewBox="0.00 0.00 864.00 95.39" xmlns="http://www.w3.org/2000/svg" xmlns:xlink="http://www.w3.org/1999/xlink">
<g id="graph0" class="graph" transform="scale(1.83 1.83) rotate(0) translate(4 48)">
<title>finite_state_machine</title>
<polygon fill="white" stroke="transparent" points="-4,4 -4,-48 467,-48 467,4 -4,4"/>
<!-- S -->
<!-- n0 -->
<g id="node4" class="node">
<title>n0</title>
<ellipse fill="none" stroke="black" cx="109" cy="-22" rx="18" ry="18"/>
</g>
<!-- S&#45;&gt;n0 -->
<g id="edge1" class="edge">
<title>S&#45;&gt;n0</title>
<path fill="none" stroke="black" d="M54.19,-22C62.65,-22 72.05,-22 80.6,-22"/>
<polygon fill="black" stroke="black" points="80.83,-25.5 90.83,-22 80.83,-18.5 80.83,-25.5"/>
</g>
<!-- E -->
<!-- n3 -->
<g id="node3" class="node">
<title>n3</title>
<ellipse fill="none" stroke="black" cx="350" cy="-22" rx="18" ry="18"/>
<ellipse fill="none" stroke="black" cx="350" cy="-22" rx="22" ry="22"/>
</g>
<!-- n3&#45;&gt;E -->
<!-- n1 -->
<g id="node5" class="node">
<title>n1</title>
<ellipse fill="none" stroke="black" cx="188" cy="-22" rx="18" ry="18"/>
</g>
<!-- n0&#45;&gt;n1 -->
<g id="edge2" class="edge">
<title>n0&#45;&gt;n1</title>
<path fill="none" stroke="black" d="M127.09,-22C136.66,-22 148.82,-22 159.68,-22"/>
<polygon fill="black" stroke="black" points="159.96,-25.5 169.96,-22 159.96,-18.5 159.96,-25.5"/>
<text text-anchor="middle" x="148.5" y="-25.8" font-family="Times,serif" font-size="14.00">a</text>
</g>
<!-- n2 -->
<g id="node6" class="node">
<title>n2</title>
<ellipse fill="none" stroke="black" cx="267" cy="-22" rx="18" ry="18"/>
</g>
<!-- n1&#45;&gt;n2 -->
<g id="edge3" class="edge">
<title>n1&#45;&gt;n2</title>
<path fill="none" stroke="black" d="M206.09,-22C215.66,-22 227.82,-22 238.68,-22"/>
<polygon fill="black" stroke="black" points="238.96,-25.5 248.96,-22 238.96,-18.5 238.96,-25.5"/>
<text text-anchor="middle" x="227.5" y="-25.8" font-family="Times,serif" font-size="14.00">ε</text>
</g>
<!-- n2&#45;&gt;n3 -->
<g id="edge4" class="edge">
<title>n2&#45;&gt;n3</title>
<path fill="none" stroke="black" d="M285.18,-22C294.61,-22 306.6,-22 317.64,-22"/>
<polygon fill="black" stroke="black" points="317.81,-25.5 327.81,-22 317.81,-18.5 317.81,-25.5"/>
<text text-anchor="middle" x="306.5" y="-25.8" font-family="Times,serif" font-size="14.00">b</text>
</g>
</g>
</svg>
