<?xml version="1.0" encoding="UTF-8" standalone="no"?>
<!DOCTYPE svg PUBLIC "-//W3C//DTD SVG 1.1//EN"
 "http://www.w3.org/Graphics/SVG/1.1/DTD/svg11.dtd">
<!-- Generated by graphviz version 2.47.0 (20210316.0004)
 -->
<!-- Title: finite_state_machine Pages: 1 -->
<svg width="864pt" height="174pt"
 viewBox="0.00 0.00 864.00 174.50" xmlns="http://www.w3.org/2000/svg" xmlns:xlink="http://www.w3.org/1999/xlink">
<g id="graph0" class="graph" transform="scale(1.67 1.67) rotate(0) translate(4 100.39)">
<title>finite_state_machine</title>
<polygon fill="white" stroke="transparent" points="-4,4 -4,-100.39 512.88,-100.39 512.88,4 -4,4"/>
<!-- S -->
<!-- n0 -->
<g id="node3" class="node">
<title>n0</title>
<ellipse fill="none" stroke="black" cx="128.7" cy="-48.2" rx="37.89" ry="37.89"/>
<text text-anchor="middle" x="128.7" y="-44.5" font-family="Times,serif" font-size="14.00">{1,2,6}</text>
</g>
<!-- S&#45;&gt;n0 -->
<g id="edge1" class="edge">
<title>S&#45;&gt;n0</title>
<path fill="none" stroke="black" d="M54.19,-48.2C62.33,-48.2 71.55,-48.2 80.65,-48.2"/>
<polygon fill="black" stroke="black" points="80.81,-51.7 90.81,-48.2 80.81,-44.7 80.81,-51.7"/>
</g>
<!-- E -->
<!-- n1 -->
<g id="node4" class="node">
<title>n1</title>
<ellipse fill="none" stroke="black" cx="257.59" cy="-48.2" rx="44.38" ry="44.38"/>
<ellipse fill="none" stroke="black" cx="257.59" cy="-48.2" rx="48.39" ry="48.39"/>
<text text-anchor="middle" x="257.59" y="-44.5" font-family="Times,serif" font-size="14.00">{3,7,4,8}</text>
</g>
<!-- n0&#45;&gt;n1 -->
<g id="edge2" class="edge">
<title>n0&#45;&gt;n1</title>
<path fill="none" stroke="black" d="M166.4,-48.2C176.6,-48.2 187.93,-48.2 199.01,-48.2"/>
<polygon fill="black" stroke="black" points="199.09,-51.7 209.09,-48.2 199.09,-44.7 199.09,-51.7"/>
<text text-anchor="middle" x="187.89" y="-52" font-family="Times,serif" font-size="14.00">a</text>
</g>
<!-- n2 -->
<g id="node5" class="node">
<title>n2</title>
<ellipse fill="none" stroke="black" cx="383.33" cy="-48.2" rx="30.59" ry="30.59"/>
<ellipse fill="none" stroke="black" cx="383.33" cy="-48.2" rx="34.59" ry="34.59"/>
<text text-anchor="middle" x="383.33" y="-44.5" font-family="Times,serif" font-size="14.00">{5,8}</text>
</g>
<!-- n1&#45;&gt;n2 -->
<g id="edge3" class="edge">
<title>n1&#45;&gt;n2</title>
<path fill="none" stroke="black" d="M306.08,-48.2C316.71,-48.2 327.94,-48.2 338.42,-48.2"/>
<polygon fill="black" stroke="black" points="338.6,-51.7 348.6,-48.2 338.6,-44.7 338.6,-51.7"/>
<text text-anchor="middle" x="327.29" y="-52" font-family="Times,serif" font-size="14.00">b</text>
</g>
<!-- n2&#45;&gt;E -->
</g>
</svg>
