<?xml version="1.0" encoding="UTF-8" standalone="no"?>
<!DOCTYPE svg PUBLIC "-//W3C//DTD SVG 1.1//EN"
 "http://www.w3.org/Graphics/SVG/1.1/DTD/svg11.dtd">
<!-- Generated by graphviz version 2.47.0 (20210316.0004)
 -->
<!-- Title: finite_state_machine Pages: 1 -->
<svg width="864pt" height="174pt"
 viewBox="0.00 0.00 864.00 173.84" xmlns="http://www.w3.org/2000/svg" xmlns:xlink="http://www.w3.org/1999/xlink">
<g id="graph0" class="graph" transform="scale(1.04 1.04) rotate(0) translate(4 163.4)">
<title>finite_state_machine</title>
<polygon fill="white" stroke="transparent" points="-4,4 -4,-163.4 828,-163.4 828,4 -4,4"/>
<!-- S -->
<!-- 1 -->
<g id="node4" class="node">
<title>1</title>
<ellipse fill="none" stroke="black" cx="109" cy="-121.4" rx="18" ry="18"/>
<text text-anchor="middle" x="109" y="-117.7" font-family="Times,serif" font-size="14.00">1</text>
</g>
<!-- S&#45;&gt;1 -->
<g id="edge1" class="edge">
<title>S&#45;&gt;1</title>
<path fill="none" stroke="black" d="M54.19,-121.4C62.65,-121.4 72.05,-121.4 80.6,-121.4"/>
<polygon fill="black" stroke="black" points="80.83,-124.9 90.83,-121.4 80.83,-117.9 80.83,-124.9"/>
</g>
<!-- E -->
<!-- 10 -->
<g id="node3" class="node">
<title>10</title>
<ellipse fill="none" stroke="black" cx="709.5" cy="-121.4" rx="19.5" ry="19.5"/>
<ellipse fill="none" stroke="black" cx="709.5" cy="-121.4" rx="23.5" ry="23.5"/>
<text text-anchor="middle" x="709.5" y="-117.7" font-family="Times,serif" font-size="14.00">10</text>
</g>
<!-- 10&#45;&gt;E -->
<!-- 2 -->
<g id="node5" class="node">
<title>2</title>
<ellipse fill="none" stroke="black" cx="209" cy="-121.4" rx="18" ry="18"/>
<text text-anchor="middle" x="209" y="-117.7" font-family="Times,serif" font-size="14.00">2</text>
</g>
<!-- 1&#45;&gt;2 -->
<g id="edge2" class="edge">
<title>1&#45;&gt;2</title>
<path fill="none" stroke="black" d="M127.07,-121.4C141.88,-121.4 163.57,-121.4 180.77,-121.4"/>
<polygon fill="black" stroke="black" points="180.8,-124.9 190.8,-121.4 180.8,-117.9 180.8,-124.9"/>
<text text-anchor="middle" x="159" y="-125.2" font-family="Times,serif" font-size="14.00">letter</text>
</g>
<!-- 3 -->
<g id="node6" class="node">
<title>3</title>
<ellipse fill="none" stroke="black" cx="288" cy="-121.4" rx="18" ry="18"/>
<text text-anchor="middle" x="288" y="-117.7" font-family="Times,serif" font-size="14.00">3</text>
</g>
<!-- 2&#45;&gt;3 -->
<g id="edge3" class="edge">
<title>2&#45;&gt;3</title>
<path fill="none" stroke="black" d="M227.09,-121.4C236.66,-121.4 248.82,-121.4 259.68,-121.4"/>
<polygon fill="black" stroke="black" points="259.96,-124.9 269.96,-121.4 259.96,-117.9 259.96,-124.9"/>
<text text-anchor="middle" x="248.5" y="-125.2" font-family="Times,serif" font-size="14.00">ε</text>
</g>
<!-- 3&#45;&gt;10 -->
<g id="edge5" class="edge">
<title>3&#45;&gt;10</title>
<path fill="none" stroke="black" d="M304.52,-128.93C319.79,-135.64 343.96,-144.4 366,-144.4 366,-144.4 366,-144.4 626,-144.4 643.69,-144.4 662.75,-139.43 678.09,-134.12"/>
<polygon fill="black" stroke="black" points="679.4,-137.36 687.58,-130.62 676.98,-130.79 679.4,-137.36"/>
<text text-anchor="middle" x="496" y="-148.2" font-family="Times,serif" font-size="14.00">ε</text>
</g>
<!-- 4 -->
<g id="node7" class="node">
<title>4</title>
<ellipse fill="none" stroke="black" cx="367" cy="-75.4" rx="18" ry="18"/>
<text text-anchor="middle" x="367" y="-71.7" font-family="Times,serif" font-size="14.00">4</text>
</g>
<!-- 3&#45;&gt;4 -->
<g id="edge4" class="edge">
<title>3&#45;&gt;4</title>
<path fill="none" stroke="black" d="M303.85,-112.53C314.82,-105.98 329.97,-96.92 342.57,-89.4"/>
<polygon fill="black" stroke="black" points="344.41,-92.38 351.2,-84.24 340.82,-86.37 344.41,-92.38"/>
<text text-anchor="middle" x="327.5" y="-103.2" font-family="Times,serif" font-size="14.00">ε</text>
</g>
<!-- 5 -->
<g id="node8" class="node">
<title>5</title>
<ellipse fill="none" stroke="black" cx="446" cy="-98.4" rx="18" ry="18"/>
<text text-anchor="middle" x="446" y="-94.7" font-family="Times,serif" font-size="14.00">5</text>
</g>
<!-- 4&#45;&gt;5 -->
<g id="edge6" class="edge">
<title>4&#45;&gt;5</title>
<path fill="none" stroke="black" d="M384.33,-80.28C394.27,-83.25 407.19,-87.11 418.56,-90.5"/>
<polygon fill="black" stroke="black" points="417.84,-93.94 428.43,-93.45 419.85,-87.23 417.84,-93.94"/>
<text text-anchor="middle" x="406.5" y="-91.2" font-family="Times,serif" font-size="14.00">ε</text>
</g>
<!-- 7 -->
<g id="node9" class="node">
<title>7</title>
<ellipse fill="none" stroke="black" cx="446" cy="-44.4" rx="18" ry="18"/>
<text text-anchor="middle" x="446" y="-40.7" font-family="Times,serif" font-size="14.00">7</text>
</g>
<!-- 4&#45;&gt;7 -->
<g id="edge7" class="edge">
<title>4&#45;&gt;7</title>
<path fill="none" stroke="black" d="M383.95,-68.98C394.28,-64.82 407.94,-59.32 419.73,-54.58"/>
<polygon fill="black" stroke="black" points="421.1,-57.8 429.07,-50.82 418.48,-51.3 421.1,-57.8"/>
<text text-anchor="middle" x="406.5" y="-65.2" font-family="Times,serif" font-size="14.00">ε</text>
</g>
<!-- 6 -->
<g id="node10" class="node">
<title>6</title>
<ellipse fill="none" stroke="black" cx="546" cy="-98.4" rx="18" ry="18"/>
<text text-anchor="middle" x="546" y="-94.7" font-family="Times,serif" font-size="14.00">6</text>
</g>
<!-- 5&#45;&gt;6 -->
<g id="edge8" class="edge">
<title>5&#45;&gt;6</title>
<path fill="none" stroke="black" d="M464.07,-98.4C478.88,-98.4 500.57,-98.4 517.77,-98.4"/>
<polygon fill="black" stroke="black" points="517.8,-101.9 527.8,-98.4 517.8,-94.9 517.8,-101.9"/>
<text text-anchor="middle" x="496" y="-102.2" font-family="Times,serif" font-size="14.00">letter</text>
</g>
<!-- 8 -->
<g id="node11" class="node">
<title>8</title>
<ellipse fill="none" stroke="black" cx="546" cy="-44.4" rx="18" ry="18"/>
<text text-anchor="middle" x="546" y="-40.7" font-family="Times,serif" font-size="14.00">8</text>
</g>
<!-- 7&#45;&gt;8 -->
<g id="edge9" class="edge">
<title>7&#45;&gt;8</title>
<path fill="none" stroke="black" d="M464.07,-44.4C478.88,-44.4 500.57,-44.4 517.77,-44.4"/>
<polygon fill="black" stroke="black" points="517.8,-47.9 527.8,-44.4 517.8,-40.9 517.8,-47.9"/>
<text text-anchor="middle" x="496" y="-48.2" font-family="Times,serif" font-size="14.00">digit</text>
</g>
<!-- 9 -->
<g id="node12" class="node">
<title>9</title>
<ellipse fill="none" stroke="black" cx="625" cy="-79.4" rx="18" ry="18"/>
<text text-anchor="middle" x="625" y="-75.7" font-family="Times,serif" font-size="14.00">9</text>
</g>
<!-- 6&#45;&gt;9 -->
<g id="edge10" class="edge">
<title>6&#45;&gt;9</title>
<path fill="none" stroke="black" d="M563.71,-94.28C573.6,-91.84 586.34,-88.69 597.57,-85.92"/>
<polygon fill="black" stroke="black" points="598.45,-89.31 607.32,-83.51 596.78,-82.51 598.45,-89.31"/>
<text text-anchor="middle" x="585.5" y="-93.2" font-family="Times,serif" font-size="14.00">ε</text>
</g>
<!-- 8&#45;&gt;9 -->
<g id="edge11" class="edge">
<title>8&#45;&gt;9</title>
<path fill="none" stroke="black" d="M562.58,-51.48C573.12,-56.27 587.27,-62.7 599.33,-68.18"/>
<polygon fill="black" stroke="black" points="597.89,-71.38 608.44,-72.33 600.79,-65 597.89,-71.38"/>
<text text-anchor="middle" x="585.5" y="-67.2" font-family="Times,serif" font-size="14.00">ε</text>
</g>
<!-- 9&#45;&gt;10 -->
<g id="edge13" class="edge">
<title>9&#45;&gt;10</title>
<path fill="none" stroke="black" d="M641.52,-87.3C652.01,-92.64 666.19,-99.86 678.81,-106.28"/>
<polygon fill="black" stroke="black" points="677.56,-109.58 688.06,-111 680.74,-103.34 677.56,-109.58"/>
<text text-anchor="middle" x="664.5" y="-104.2" font-family="Times,serif" font-size="14.00">ε</text>
</g>
<!-- 9&#45;&gt;4 -->
<g id="edge12" class="edge">
<title>9&#45;&gt;4</title>
<path fill="none" stroke="black" d="M614.71,-64.29C604.43,-49.18 586.34,-26.87 564,-17.4 508.35,6.19 484.04,5.26 428,-17.4 410.37,-24.53 395.05,-39.59 384.3,-52.58"/>
<polygon fill="black" stroke="black" points="381.34,-50.69 377.92,-60.71 386.84,-55.01 381.34,-50.69"/>
<text text-anchor="middle" x="496" y="-5.2" font-family="Times,serif" font-size="14.00">ε</text>
</g>
</g>
</svg>
