<?xml version="1.0" encoding="UTF-8" standalone="no"?>
<!DOCTYPE svg PUBLIC "-//W3C//DTD SVG 1.1//EN"
 "http://www.w3.org/Graphics/SVG/1.1/DTD/svg11.dtd">
<!-- Generated by graphviz version 2.47.0 (20210316.0004)
 -->
<!-- Title: finite_state_machine Pages: 1 -->
<svg width="864pt" height="301pt"
 viewBox="0.00 0.00 864.00 300.85" xmlns="http://www.w3.org/2000/svg" xmlns:xlink="http://www.w3.org/1999/xlink">
<g id="graph0" class="graph" transform="scale(1.17 1.17) rotate(0) translate(4 252.79)">
<title>finite_state_machine</title>
<polygon fill="white" stroke="transparent" points="-4,4 -4,-252.79 733.46,-252.79 733.46,4 -4,4"/>
<!-- S -->
<!-- n0 -->
<g id="node2" class="node">
<title>n0</title>
<ellipse fill="none" stroke="black" cx="115.05" cy="-66.39" rx="24.1" ry="24.1"/>
<text text-anchor="middle" x="115.05" y="-62.69" font-family="Times,serif" font-size="14.00">{1}</text>
</g>
<!-- S&#45;&gt;n0 -->
<g id="edge1" class="edge">
<title>S&#45;&gt;n0</title>
<path fill="none" stroke="black" d="M54.28,-66.39C62.58,-66.39 71.85,-66.39 80.58,-66.39"/>
<polygon fill="black" stroke="black" points="80.84,-69.89 90.84,-66.39 80.84,-62.89 80.84,-69.89"/>
</g>
<!-- n1 -->
<g id="node3" class="node">
<title>n1</title>
<ellipse fill="none" stroke="black" cx="269.49" cy="-66.39" rx="62.3" ry="62.3"/>
<ellipse fill="none" stroke="black" cx="269.49" cy="-66.39" rx="66.29" ry="66.29"/>
<text text-anchor="middle" x="269.49" y="-62.69" font-family="Times,serif" font-size="14.00">{2,3,4,5,7,10}</text>
</g>
<!-- n0&#45;&gt;n1 -->
<g id="edge2" class="edge">
<title>n0&#45;&gt;n1</title>
<path fill="none" stroke="black" d="M139.2,-66.39C153.67,-66.39 173.2,-66.39 192.7,-66.39"/>
<polygon fill="black" stroke="black" points="192.87,-69.89 202.87,-66.39 192.87,-62.89 192.87,-69.89"/>
<text text-anchor="middle" x="171.1" y="-70.19" font-family="Times,serif" font-size="14.00">letter</text>
</g>
<!-- n2 -->
<g id="node4" class="node">
<title>n2</title>
<ellipse fill="none" stroke="black" cx="466.28" cy="-149.39" rx="62.3" ry="62.3"/>
<ellipse fill="none" stroke="black" cx="466.28" cy="-149.39" rx="66.29" ry="66.29"/>
<text text-anchor="middle" x="466.28" y="-145.69" font-family="Times,serif" font-size="14.00">{6,9,10,4,5,7}</text>
</g>
<!-- n1&#45;&gt;n2 -->
<g id="edge3" class="edge">
<title>n1&#45;&gt;n2</title>
<path fill="none" stroke="black" d="M330.79,-92.09C351.33,-100.84 374.45,-110.69 395.66,-119.73"/>
<polygon fill="black" stroke="black" points="394.36,-122.98 404.93,-123.68 397.1,-116.54 394.36,-122.98"/>
<text text-anchor="middle" x="367.88" y="-116.19" font-family="Times,serif" font-size="14.00">letter</text>
</g>
<!-- n3 -->
<g id="node5" class="node">
<title>n3</title>
<ellipse fill="none" stroke="black" cx="663.07" cy="-111.39" rx="62.3" ry="62.3"/>
<ellipse fill="none" stroke="black" cx="663.07" cy="-111.39" rx="66.29" ry="66.29"/>
<text text-anchor="middle" x="663.07" y="-107.69" font-family="Times,serif" font-size="14.00">{8,9,10,4,5,7}</text>
</g>
<!-- n1&#45;&gt;n3 -->
<g id="edge4" class="edge">
<title>n1&#45;&gt;n3</title>
<path fill="none" stroke="black" d="M335.24,-56.94C388.7,-50.97 466.29,-46.55 532.67,-59.39 553.2,-63.37 574.61,-70.58 593.96,-78.39"/>
<polygon fill="black" stroke="black" points="592.71,-81.66 603.28,-82.26 595.39,-75.19 592.71,-81.66"/>
<text text-anchor="middle" x="466.28" y="-63.19" font-family="Times,serif" font-size="14.00">digit</text>
</g>
<!-- n2&#45;&gt;n2 -->
<g id="edge5" class="edge">
<title>n2&#45;&gt;n2</title>
<path fill="none" stroke="black" d="M448.91,-213.79C451.11,-225.54 456.9,-233.79 466.28,-233.79 472.73,-233.79 477.48,-229.89 480.53,-223.64"/>
<polygon fill="black" stroke="black" points="483.97,-224.38 483.64,-213.79 477.29,-222.27 483.97,-224.38"/>
<text text-anchor="middle" x="466.28" y="-237.59" font-family="Times,serif" font-size="14.00">letter</text>
</g>
<!-- n2&#45;&gt;n3 -->
<g id="edge6" class="edge">
<title>n2&#45;&gt;n3</title>
<path fill="none" stroke="black" d="M531.6,-136.85C549.64,-133.33 569.39,-129.47 587.94,-125.86"/>
<polygon fill="black" stroke="black" points="588.67,-129.28 597.81,-123.93 587.33,-122.41 588.67,-129.28"/>
<text text-anchor="middle" x="564.67" y="-136.19" font-family="Times,serif" font-size="14.00">digit</text>
</g>
<!-- n3&#45;&gt;n2 -->
<g id="edge8" class="edge">
<title>n3&#45;&gt;n2</title>
<path fill="none" stroke="black" d="M597.01,-104.11C581.66,-103.91 565.47,-104.95 550.67,-108.39 545.04,-109.71 539.34,-111.45 533.72,-113.49"/>
<polygon fill="black" stroke="black" points="532.37,-110.26 524.33,-117.17 534.92,-116.78 532.37,-110.26"/>
<text text-anchor="middle" x="564.67" y="-112.19" font-family="Times,serif" font-size="14.00">letter</text>
</g>
<!-- n3&#45;&gt;n3 -->
<g id="edge7" class="edge">
<title>n3&#45;&gt;n3</title>
<path fill="none" stroke="black" d="M645.7,-175.79C647.9,-187.54 653.69,-195.79 663.07,-195.79 669.52,-195.79 674.27,-191.89 677.32,-185.64"/>
<polygon fill="black" stroke="black" points="680.76,-186.38 680.43,-175.79 674.08,-184.27 680.76,-186.38"/>
<text text-anchor="middle" x="663.07" y="-199.59" font-family="Times,serif" font-size="14.00">digit</text>
</g>
</g>
</svg>
