<?xml version="1.0" encoding="UTF-8" standalone="no"?>
<!DOCTYPE svg PUBLIC "-//W3C//DTD SVG 1.1//EN"
 "http://www.w3.org/Graphics/SVG/1.1/DTD/svg11.dtd">
<!-- Generated by graphviz version 2.47.0 (20210316.0004)
 -->
<!-- Title: finite_state_machine Pages: 1 -->
<svg width="864pt" height="251pt"
 viewBox="0.00 0.00 864.00 250.84" xmlns="http://www.w3.org/2000/svg" xmlns:xlink="http://www.w3.org/1999/xlink">
<g id="graph0" class="graph" transform="scale(2.14 2.14) rotate(0) translate(4 113)">
<title>finite_state_machine</title>
<polygon fill="white" stroke="transparent" points="-4,4 -4,-113 399,-113 399,4 -4,4"/>
<!-- S -->
<!-- 0 -->
<g id="node3" class="node">
<title>0</title>
<ellipse fill="none" stroke="black" cx="132" cy="-22" rx="18" ry="18"/>
<text text-anchor="middle" x="132" y="-18.3" font-family="Times,serif" font-size="14.00">0</text>
</g>
<!-- S&#45;&gt;0 -->
<g id="edge1" class="edge">
<title>S&#45;&gt;0</title>
<path fill="none" stroke="black" d="M54.26,-22C69.32,-22 88.2,-22 103.47,-22"/>
<polygon fill="black" stroke="black" points="103.84,-25.5 113.84,-22 103.84,-18.5 103.84,-25.5"/>
<text text-anchor="middle" x="84" y="-25.8" font-family="Times,serif" font-size="14.00">start</text>
</g>
<!-- 3 -->
<g id="node2" class="node">
<title>3</title>
<ellipse fill="none" stroke="black" cx="373" cy="-22" rx="18" ry="18"/>
<ellipse fill="none" stroke="black" cx="373" cy="-22" rx="22" ry="22"/>
<text text-anchor="middle" x="373" y="-18.3" font-family="Times,serif" font-size="14.00">3</text>
</g>
<!-- 3&#45;&gt;0 -->
<g id="edge8" class="edge">
<title>3&#45;&gt;0</title>
<path fill="none" stroke="black" d="M356.3,-37.01C349.41,-43.23 341.08,-50.31 333,-56 281.26,-92.45 251.47,-106.22 193,-82 174.85,-74.48 159.33,-58.52 148.63,-44.95"/>
<polygon fill="black" stroke="black" points="151.4,-42.81 142.6,-36.91 145.8,-47.01 151.4,-42.81"/>
<text text-anchor="middle" x="250.5" y="-97.8" font-family="Times,serif" font-size="14.00">b</text>
</g>
<!-- 1 -->
<g id="node4" class="node">
<title>1</title>
<ellipse fill="none" stroke="black" cx="211" cy="-22" rx="18" ry="18"/>
<text text-anchor="middle" x="211" y="-18.3" font-family="Times,serif" font-size="14.00">1</text>
</g>
<!-- 3&#45;&gt;1 -->
<g id="edge9" class="edge">
<title>3&#45;&gt;1</title>
<path fill="none" stroke="black" d="M353.2,-31.83C346.87,-34.96 339.71,-38.31 333,-41 307.62,-51.18 299.02,-53.22 272,-49 259.38,-47.03 246.35,-41.63 235.66,-36.18"/>
<polygon fill="black" stroke="black" points="237.04,-32.95 226.59,-31.25 233.7,-39.1 237.04,-32.95"/>
<text text-anchor="middle" x="290" y="-54.8" font-family="Times,serif" font-size="14.00">a</text>
</g>
<!-- 0&#45;&gt;0 -->
<g id="edge5" class="edge">
<title>0&#45;&gt;0</title>
<path fill="none" stroke="black" d="M125.27,-39.04C123.89,-48.86 126.14,-58 132,-58 135.66,-58 137.92,-54.43 138.75,-49.35"/>
<polygon fill="black" stroke="black" points="142.25,-49.03 138.73,-39.04 135.25,-49.04 142.25,-49.03"/>
<text text-anchor="middle" x="132" y="-61.8" font-family="Times,serif" font-size="14.00">b</text>
</g>
<!-- 0&#45;&gt;1 -->
<g id="edge2" class="edge">
<title>0&#45;&gt;1</title>
<path fill="none" stroke="black" d="M150.09,-22C159.66,-22 171.82,-22 182.68,-22"/>
<polygon fill="black" stroke="black" points="182.96,-25.5 192.96,-22 182.96,-18.5 182.96,-25.5"/>
<text text-anchor="middle" x="171.5" y="-25.8" font-family="Times,serif" font-size="14.00">a</text>
</g>
<!-- 1&#45;&gt;1 -->
<g id="edge6" class="edge">
<title>1&#45;&gt;1</title>
<path fill="none" stroke="black" d="M204.27,-39.04C202.89,-48.86 205.14,-58 211,-58 214.66,-58 216.92,-54.43 217.75,-49.35"/>
<polygon fill="black" stroke="black" points="221.25,-49.03 217.73,-39.04 214.25,-49.04 221.25,-49.03"/>
<text text-anchor="middle" x="211" y="-61.8" font-family="Times,serif" font-size="14.00">a</text>
</g>
<!-- 2 -->
<g id="node5" class="node">
<title>2</title>
<ellipse fill="none" stroke="black" cx="290" cy="-22" rx="18" ry="18"/>
<text text-anchor="middle" x="290" y="-18.3" font-family="Times,serif" font-size="14.00">2</text>
</g>
<!-- 1&#45;&gt;2 -->
<g id="edge3" class="edge">
<title>1&#45;&gt;2</title>
<path fill="none" stroke="black" d="M229.09,-22C238.66,-22 250.82,-22 261.68,-22"/>
<polygon fill="black" stroke="black" points="261.96,-25.5 271.96,-22 261.96,-18.5 261.96,-25.5"/>
<text text-anchor="middle" x="250.5" y="-25.8" font-family="Times,serif" font-size="14.00">b</text>
</g>
<!-- 2&#45;&gt;3 -->
<g id="edge4" class="edge">
<title>2&#45;&gt;3</title>
<path fill="none" stroke="black" d="M308.18,-22C317.61,-22 329.6,-22 340.64,-22"/>
<polygon fill="black" stroke="black" points="340.81,-25.5 350.81,-22 340.81,-18.5 340.81,-25.5"/>
<text text-anchor="middle" x="329.5" y="-25.8" font-family="Times,serif" font-size="14.00">b</text>
</g>
<!-- 2&#45;&gt;1 -->
<g id="edge7" class="edge">
<title>2&#45;&gt;1</title>
<path fill="none" stroke="black" d="M275.82,-10.86C267.76,-5.38 257.08,-0.44 247,-3 243.04,-4.01 239.05,-5.56 235.24,-7.35"/>
<polygon fill="black" stroke="black" points="233.48,-4.33 226.31,-12.13 236.78,-10.5 233.48,-4.33"/>
<text text-anchor="middle" x="250.5" y="-6.8" font-family="Times,serif" font-size="14.00">a</text>
</g>
</g>
</svg>
