<?xml version="1.0" encoding="UTF-8" standalone="no"?>
<!DOCTYPE svg PUBLIC "-//W3C//DTD SVG 1.1//EN"
 "http://www.w3.org/Graphics/SVG/1.1/DTD/svg11.dtd">
<!-- Generated by graphviz version 2.47.0 (20210316.0004)
 -->
<!-- Title: finite_state_machine Pages: 1 -->
<svg width="864pt" height="178pt"
 viewBox="0.00 0.00 864.00 178.33" xmlns="http://www.w3.org/2000/svg" xmlns:xlink="http://www.w3.org/1999/xlink">
<g id="graph0" class="graph" transform="scale(1.26 1.26) rotate(0) translate(4 138)">
<title>finite_state_machine</title>
<polygon fill="white" stroke="transparent" points="-4,4 -4,-138 684,-138 684,4 -4,4"/>
<!-- B -->
<g id="node1" class="node">
<title>B</title>
<ellipse fill="none" stroke="black" cx="200" cy="-45" rx="18" ry="18"/>
<ellipse fill="none" stroke="black" cx="200" cy="-45" rx="22" ry="22"/>
</g>
<!-- B&#45;&gt;B -->
<g id="edge5" class="edge">
<title>B&#45;&gt;B</title>
<path fill="none" stroke="black" d="M192.32,-65.99C191.37,-76.09 193.93,-85 200,-85 203.89,-85 206.34,-81.34 207.35,-76.06"/>
<polygon fill="black" stroke="black" points="210.85,-76.1 207.68,-65.99 203.85,-75.87 210.85,-76.1"/>
<text text-anchor="middle" x="200" y="-88.8" font-family="Times,serif" font-size="14.00">digit</text>
</g>
<!-- C -->
<g id="node6" class="node">
<title>C</title>
<ellipse fill="none" stroke="black" cx="280" cy="-76" rx="18" ry="18"/>
</g>
<!-- B&#45;&gt;C -->
<g id="edge6" class="edge">
<title>B&#45;&gt;C</title>
<path fill="none" stroke="black" d="M220.68,-52.82C230.6,-56.76 242.75,-61.59 253.39,-65.82"/>
<polygon fill="black" stroke="black" points="252.41,-69.2 263,-69.64 255,-62.69 252.41,-69.2"/>
<text text-anchor="middle" x="242" y="-64.8" font-family="Times,serif" font-size="14.00">.</text>
</g>
<!-- E -->
<g id="node7" class="node">
<title>E</title>
<ellipse fill="none" stroke="black" cx="476" cy="-45" rx="18" ry="18"/>
</g>
<!-- B&#45;&gt;E -->
<g id="edge7" class="edge">
<title>B&#45;&gt;E</title>
<path fill="none" stroke="black" d="M222.05,-45C271.05,-45 392.76,-45 447.53,-45"/>
<polygon fill="black" stroke="black" points="447.85,-48.5 457.85,-45 447.85,-41.5 447.85,-48.5"/>
<text text-anchor="middle" x="328.5" y="-48.8" font-family="Times,serif" font-size="14.00">E/e</text>
</g>
<!-- D -->
<g id="node2" class="node">
<title>D</title>
<ellipse fill="none" stroke="black" cx="381" cy="-79" rx="18" ry="18"/>
<ellipse fill="none" stroke="black" cx="381" cy="-79" rx="22" ry="22"/>
</g>
<!-- D&#45;&gt;D -->
<g id="edge9" class="edge">
<title>D&#45;&gt;D</title>
<path fill="none" stroke="black" d="M372.27,-99.58C371.06,-109.84 373.97,-119 381,-119 385.5,-119 388.32,-115.24 389.44,-109.84"/>
<polygon fill="black" stroke="black" points="392.95,-109.68 389.73,-99.58 385.95,-109.48 392.95,-109.68"/>
<text text-anchor="middle" x="381" y="-122.8" font-family="Times,serif" font-size="14.00">digit</text>
</g>
<!-- D&#45;&gt;E -->
<g id="edge10" class="edge">
<title>D&#45;&gt;E</title>
<path fill="none" stroke="black" d="M402.18,-71.62C415.98,-66.58 434.4,-59.84 449.26,-54.41"/>
<polygon fill="black" stroke="black" points="450.69,-57.62 458.88,-50.9 448.28,-51.04 450.69,-57.62"/>
<text text-anchor="middle" x="430.5" y="-67.8" font-family="Times,serif" font-size="14.00">E/e</text>
</g>
<!-- G -->
<g id="node3" class="node">
<title>G</title>
<ellipse fill="none" stroke="black" cx="658" cy="-48" rx="18" ry="18"/>
<ellipse fill="none" stroke="black" cx="658" cy="-48" rx="22" ry="22"/>
</g>
<!-- G&#45;&gt;G -->
<g id="edge15" class="edge">
<title>G&#45;&gt;G</title>
<path fill="none" stroke="black" d="M648.59,-68.17C647.15,-78.6 650.28,-88 658,-88 663.07,-88 666.16,-83.95 667.28,-78.22"/>
<polygon fill="black" stroke="black" points="670.78,-78.21 667.41,-68.17 663.78,-78.12 670.78,-78.21"/>
<text text-anchor="middle" x="658" y="-91.8" font-family="Times,serif" font-size="14.00">digit</text>
</g>
<!-- S -->
<g id="node4" class="node">
<title>S</title>
<ellipse fill="none" stroke="black" cx="18" cy="-42" rx="18" ry="18"/>
</g>
<!-- S&#45;&gt;B -->
<g id="edge3" class="edge">
<title>S&#45;&gt;B</title>
<path fill="none" stroke="black" d="M35.65,-45.9C41.43,-47.1 47.97,-48.29 54,-49 100.81,-54.51 113.06,-56.18 160,-52 162.58,-51.77 165.24,-51.46 167.91,-51.09"/>
<polygon fill="black" stroke="black" points="168.72,-54.5 178.04,-49.47 167.61,-47.59 168.72,-54.5"/>
<text text-anchor="middle" x="99" y="-57.8" font-family="Times,serif" font-size="14.00">digit</text>
</g>
<!-- A -->
<g id="node5" class="node">
<title>A</title>
<ellipse fill="none" stroke="black" cx="99" cy="-18" rx="18" ry="18"/>
</g>
<!-- S&#45;&gt;A -->
<g id="edge1" class="edge">
<title>S&#45;&gt;A</title>
<path fill="none" stroke="black" d="M35.37,-37.03C45.96,-33.81 59.98,-29.55 72.07,-25.88"/>
<polygon fill="black" stroke="black" points="73.1,-29.22 81.65,-22.97 71.07,-22.52 73.1,-29.22"/>
<text text-anchor="middle" x="58.5" y="-33.8" font-family="Times,serif" font-size="14.00">+</text>
</g>
<!-- S&#45;&gt;A -->
<g id="edge2" class="edge">
<title>S&#45;&gt;A</title>
<path fill="none" stroke="black" d="M29.73,-28.2C35.97,-21.32 44.48,-13.69 54,-10 59.75,-7.77 66.17,-7.69 72.29,-8.65"/>
<polygon fill="black" stroke="black" points="71.58,-12.08 82.13,-11.03 73.23,-5.28 71.58,-12.08"/>
<text text-anchor="middle" x="58.5" y="-13.8" font-family="Times,serif" font-size="14.00">&#45;</text>
</g>
<!-- A&#45;&gt;B -->
<g id="edge4" class="edge">
<title>A&#45;&gt;B</title>
<path fill="none" stroke="black" d="M116.79,-22.58C130.96,-26.44 151.58,-32.07 168.63,-36.72"/>
<polygon fill="black" stroke="black" points="168.13,-40.21 178.7,-39.46 169.97,-33.45 168.13,-40.21"/>
<text text-anchor="middle" x="147.5" y="-36.8" font-family="Times,serif" font-size="14.00">digit</text>
</g>
<!-- C&#45;&gt;D -->
<g id="edge8" class="edge">
<title>C&#45;&gt;D</title>
<path fill="none" stroke="black" d="M298.24,-76.52C312.06,-76.94 331.81,-77.54 348.44,-78.04"/>
<polygon fill="black" stroke="black" points="348.72,-81.55 358.82,-78.36 348.93,-74.56 348.72,-81.55"/>
<text text-anchor="middle" x="328.5" y="-80.8" font-family="Times,serif" font-size="14.00">digit</text>
</g>
<!-- E&#45;&gt;G -->
<g id="edge13" class="edge">
<title>E&#45;&gt;G</title>
<path fill="none" stroke="black" d="M493.65,-48.9C499.43,-50.1 505.97,-51.29 512,-52 558.81,-57.51 571.06,-59.18 618,-55 620.58,-54.77 623.24,-54.46 625.91,-54.09"/>
<polygon fill="black" stroke="black" points="626.72,-57.5 636.04,-52.47 625.61,-50.59 626.72,-57.5"/>
<text text-anchor="middle" x="557" y="-60.8" font-family="Times,serif" font-size="14.00">digit</text>
</g>
<!-- F -->
<g id="node8" class="node">
<title>F</title>
<ellipse fill="none" stroke="black" cx="557" cy="-21" rx="18" ry="18"/>
</g>
<!-- E&#45;&gt;F -->
<g id="edge11" class="edge">
<title>E&#45;&gt;F</title>
<path fill="none" stroke="black" d="M493.37,-40.03C503.96,-36.81 517.98,-32.55 530.07,-28.88"/>
<polygon fill="black" stroke="black" points="531.1,-32.22 539.65,-25.97 529.07,-25.52 531.1,-32.22"/>
<text text-anchor="middle" x="516.5" y="-36.8" font-family="Times,serif" font-size="14.00">+</text>
</g>
<!-- E&#45;&gt;F -->
<g id="edge12" class="edge">
<title>E&#45;&gt;F</title>
<path fill="none" stroke="black" d="M487.73,-31.2C493.97,-24.32 502.48,-16.69 512,-13 517.75,-10.77 524.17,-10.69 530.29,-11.65"/>
<polygon fill="black" stroke="black" points="529.58,-15.08 540.13,-14.03 531.23,-8.28 529.58,-15.08"/>
<text text-anchor="middle" x="516.5" y="-16.8" font-family="Times,serif" font-size="14.00">&#45;</text>
</g>
<!-- F&#45;&gt;G -->
<g id="edge14" class="edge">
<title>F&#45;&gt;G</title>
<path fill="none" stroke="black" d="M574.79,-25.58C588.96,-29.44 609.58,-35.07 626.63,-39.72"/>
<polygon fill="black" stroke="black" points="626.13,-43.21 636.7,-42.46 627.97,-36.45 626.13,-43.21"/>
<text text-anchor="middle" x="605.5" y="-39.8" font-family="Times,serif" font-size="14.00">digit</text>
</g>
</g>
</svg>
