<?xml version="1.0" encoding="UTF-8" standalone="no"?>
<!DOCTYPE svg PUBLIC "-//W3C//DTD SVG 1.1//EN"
 "http://www.w3.org/Graphics/SVG/1.1/DTD/svg11.dtd">
<!-- Generated by graphviz version 2.47.0 (20210316.0004)
 -->
<!-- Title: finite_state_machine Pages: 1 -->
<svg width="864pt" height="299pt"
 viewBox="0.00 0.00 864.00 299.18" xmlns="http://www.w3.org/2000/svg" xmlns:xlink="http://www.w3.org/1999/xlink">
<g id="graph0" class="graph" transform="scale(2.8 2.8) rotate(0) translate(4 103)">
<title>finite_state_machine</title>
<polygon fill="white" stroke="transparent" points="-4,4 -4,-103 305,-103 305,4 -4,4"/>
<g id="clust1" class="cluster">
<title>cluster_0</title>
<path fill="none" stroke="black" d="M20,-12C20,-12 121,-12 121,-12 127,-12 133,-18 133,-24 133,-24 133,-75 133,-75 133,-81 127,-87 121,-87 121,-87 20,-87 20,-87 14,-87 8,-81 8,-75 8,-75 8,-24 8,-24 8,-18 14,-12 20,-12"/>
<text text-anchor="middle" x="70.5" y="-71.8" font-family="Times,serif" font-size="14.00">A</text>
</g>
<g id="clust2" class="cluster">
<title>cluster_2</title>
<path fill="none" stroke="black" d="M172,-8C172,-8 281,-8 281,-8 287,-8 293,-14 293,-20 293,-20 293,-79 293,-79 293,-85 287,-91 281,-91 281,-91 172,-91 172,-91 166,-91 160,-85 160,-79 160,-79 160,-20 160,-20 160,-14 166,-8 172,-8"/>
<text text-anchor="middle" x="226.5" y="-75.8" font-family="Times,serif" font-size="14.00">B</text>
</g>
<!-- n3 -->
<g id="node1" class="node">
<title>n3</title>
<ellipse fill="none" stroke="black" cx="263" cy="-38" rx="18" ry="18"/>
<ellipse fill="none" stroke="black" cx="263" cy="-38" rx="22" ry="22"/>
</g>
<!-- n0 -->
<g id="node2" class="node">
<title>n0</title>
<ellipse fill="none" stroke="black" cx="34" cy="-38" rx="18" ry="18"/>
</g>
<!-- n1 -->
<g id="node3" class="node">
<title>n1</title>
<ellipse fill="none" stroke="black" cx="107" cy="-38" rx="18" ry="18"/>
</g>
<!-- n0&#45;&gt;n1 -->
<g id="edge1" class="edge">
<title>n0&#45;&gt;n1</title>
<path fill="none" stroke="black" stroke-dasharray="5,2" d="M52.19,-38C60.21,-38 69.95,-38 78.93,-38"/>
<polygon fill="black" stroke="black" points="78.97,-41.5 88.97,-38 78.97,-34.5 78.97,-41.5"/>
</g>
<!-- n2 -->
<g id="node4" class="node">
<title>n2</title>
<ellipse fill="none" stroke="black" cx="186" cy="-38" rx="18" ry="18"/>
</g>
<!-- n1&#45;&gt;n2 -->
<g id="edge3" class="edge">
<title>n1&#45;&gt;n2</title>
<path fill="none" stroke="black" d="M125.09,-38C134.66,-38 146.82,-38 157.68,-38"/>
<polygon fill="black" stroke="black" points="157.96,-41.5 167.96,-38 157.96,-34.5 157.96,-41.5"/>
<text text-anchor="middle" x="146.5" y="-41.8" font-family="Times,serif" font-size="14.00">ε</text>
</g>
<!-- n2&#45;&gt;n3 -->
<g id="edge2" class="edge">
<title>n2&#45;&gt;n3</title>
<path fill="none" stroke="black" stroke-dasharray="5,2" d="M204.02,-38C211.85,-38 221.39,-38 230.46,-38"/>
<polygon fill="black" stroke="black" points="230.76,-41.5 240.76,-38 230.76,-34.5 230.76,-41.5"/>
</g>
</g>
</svg>
