<?xml version="1.0" encoding="UTF-8" standalone="no"?>
<!DOCTYPE svg PUBLIC "-//W3C//DTD SVG 1.1//EN"
 "http://www.w3.org/Graphics/SVG/1.1/DTD/svg11.dtd">
<!-- Generated by graphviz version 2.47.0 (20210316.0004)
 -->
<!-- Title: finite_state_machine Pages: 1 -->
<svg width="864pt" height="135pt"
 viewBox="0.00 0.00 864.00 134.61" xmlns="http://www.w3.org/2000/svg" xmlns:xlink="http://www.w3.org/1999/xlink">
<g id="graph0" class="graph" transform="scale(1.37 1.37) rotate(0) translate(4 94)">
<title>finite_state_machine</title>
<polygon fill="white" stroke="transparent" points="-4,4 -4,-94 625,-94 625,4 -4,4"/>
<!-- S -->
<!-- e0 -->
<g id="node4" class="node">
<title>e0</title>
<ellipse fill="none" stroke="black" cx="109" cy="-35" rx="18" ry="18"/>
</g>
<!-- S&#45;&gt;e0 -->
<g id="edge1" class="edge">
<title>S&#45;&gt;e0</title>
<path fill="none" stroke="black" d="M54.19,-35C62.65,-35 72.05,-35 80.6,-35"/>
<polygon fill="black" stroke="black" points="80.83,-38.5 90.83,-35 80.83,-31.5 80.83,-38.5"/>
</g>
<!-- E -->
<!-- e3 -->
<g id="node3" class="node">
<title>e3</title>
<ellipse fill="none" stroke="black" cx="508" cy="-35" rx="18" ry="18"/>
<ellipse fill="none" stroke="black" cx="508" cy="-35" rx="22" ry="22"/>
</g>
<!-- e3&#45;&gt;E -->
<!-- n0 -->
<g id="node5" class="node">
<title>n0</title>
<ellipse fill="none" stroke="black" cx="188" cy="-70" rx="18" ry="18"/>
</g>
<!-- e0&#45;&gt;n0 -->
<g id="edge2" class="edge">
<title>e0&#45;&gt;n0</title>
<path fill="none" stroke="black" d="M125.58,-42.08C136.12,-46.87 150.27,-53.3 162.33,-58.78"/>
<polygon fill="black" stroke="black" points="160.89,-61.98 171.44,-62.93 163.79,-55.6 160.89,-61.98"/>
<text text-anchor="middle" x="148.5" y="-56.8" font-family="Times,serif" font-size="14.00">ε</text>
</g>
<!-- n4 -->
<g id="node9" class="node">
<title>n4</title>
<ellipse fill="none" stroke="black" cx="267" cy="-18" rx="18" ry="18"/>
</g>
<!-- e0&#45;&gt;n4 -->
<g id="edge7" class="edge">
<title>e0&#45;&gt;n4</title>
<path fill="none" stroke="black" d="M127.06,-32.95C139.07,-31.53 155.51,-29.6 170,-28 193.22,-25.44 219.62,-22.7 238.85,-20.74"/>
<polygon fill="black" stroke="black" points="239.4,-24.2 249,-19.71 238.7,-17.24 239.4,-24.2"/>
<text text-anchor="middle" x="188" y="-31.8" font-family="Times,serif" font-size="14.00">ε</text>
</g>
<!-- n1 -->
<g id="node6" class="node">
<title>n1</title>
<ellipse fill="none" stroke="black" cx="267" cy="-72" rx="18" ry="18"/>
</g>
<!-- n0&#45;&gt;n1 -->
<g id="edge3" class="edge">
<title>n0&#45;&gt;n1</title>
<path fill="none" stroke="black" d="M206.09,-70.44C215.66,-70.69 227.82,-71.01 238.68,-71.29"/>
<polygon fill="black" stroke="black" points="238.87,-74.8 248.96,-71.56 239.05,-67.8 238.87,-74.8"/>
<text text-anchor="middle" x="227.5" y="-74.8" font-family="Times,serif" font-size="14.00">a</text>
</g>
<!-- n2 -->
<g id="node7" class="node">
<title>n2</title>
<ellipse fill="none" stroke="black" cx="346" cy="-72" rx="18" ry="18"/>
</g>
<!-- n1&#45;&gt;n2 -->
<g id="edge4" class="edge">
<title>n1&#45;&gt;n2</title>
<path fill="none" stroke="black" d="M285.09,-72C294.66,-72 306.82,-72 317.68,-72"/>
<polygon fill="black" stroke="black" points="317.96,-75.5 327.96,-72 317.96,-68.5 317.96,-75.5"/>
<text text-anchor="middle" x="306.5" y="-75.8" font-family="Times,serif" font-size="14.00">ε</text>
</g>
<!-- n3 -->
<g id="node8" class="node">
<title>n3</title>
<ellipse fill="none" stroke="black" cx="425" cy="-71" rx="18" ry="18"/>
</g>
<!-- n2&#45;&gt;n3 -->
<g id="edge5" class="edge">
<title>n2&#45;&gt;n3</title>
<path fill="none" stroke="black" d="M364.09,-71.78C373.66,-71.65 385.82,-71.5 396.68,-71.35"/>
<polygon fill="black" stroke="black" points="397.01,-74.85 406.96,-71.22 396.91,-67.85 397.01,-74.85"/>
<text text-anchor="middle" x="385.5" y="-74.8" font-family="Times,serif" font-size="14.00">b</text>
</g>
<!-- n3&#45;&gt;e3 -->
<g id="edge6" class="edge">
<title>n3&#45;&gt;e3</title>
<path fill="none" stroke="black" d="M441.62,-64.06C451.99,-59.45 465.92,-53.26 478.26,-47.77"/>
<polygon fill="black" stroke="black" points="480,-50.83 487.71,-43.57 477.15,-44.43 480,-50.83"/>
<text text-anchor="middle" x="464.5" y="-58.8" font-family="Times,serif" font-size="14.00">ε</text>
</g>
<!-- n5 -->
<g id="node10" class="node">
<title>n5</title>
<ellipse fill="none" stroke="black" cx="346" cy="-18" rx="18" ry="18"/>
</g>
<!-- n4&#45;&gt;n5 -->
<g id="edge8" class="edge">
<title>n4&#45;&gt;n5</title>
<path fill="none" stroke="black" d="M285.09,-18C294.66,-18 306.82,-18 317.68,-18"/>
<polygon fill="black" stroke="black" points="317.96,-21.5 327.96,-18 317.96,-14.5 317.96,-21.5"/>
<text text-anchor="middle" x="306.5" y="-21.8" font-family="Times,serif" font-size="14.00">a</text>
</g>
<!-- n5&#45;&gt;e3 -->
<g id="edge9" class="edge">
<title>n5&#45;&gt;e3</title>
<path fill="none" stroke="black" d="M364.12,-19.82C390.75,-22.65 442.47,-28.14 475.84,-31.69"/>
<polygon fill="black" stroke="black" points="475.66,-35.19 485.97,-32.77 476.4,-28.23 475.66,-35.19"/>
<text text-anchor="middle" x="425" y="-31.8" font-family="Times,serif" font-size="14.00">ε</text>
</g>
</g>
</svg>
