<?xml version="1.0" encoding="UTF-8" standalone="no"?>
<!DOCTYPE svg PUBLIC "-//W3C//DTD SVG 1.1//EN"
 "http://www.w3.org/Graphics/SVG/1.1/DTD/svg11.dtd">
<!-- Generated by graphviz version 2.47.0 (20210316.0004)
 -->
<!-- Title: finite_state_machine Pages: 1 -->
<svg width="864pt" height="398pt"
 viewBox="0.00 0.00 864.00 398.40" xmlns="http://www.w3.org/2000/svg" xmlns:xlink="http://www.w3.org/1999/xlink">
<g id="graph0" class="graph" transform="scale(2.4 2.4) rotate(0) translate(4 162)">
<title>finite_state_machine</title>
<polygon fill="white" stroke="transparent" points="-4,4 -4,-162 356,-162 356,4 -4,4"/>
<!-- C -->
<g id="node1" class="node">
<title>C</title>
<ellipse fill="lightgrey" stroke="black" cx="18" cy="-66" rx="18" ry="18"/>
<text text-anchor="middle" x="18" y="-62.3" font-family="Times,serif" font-size="14.00">C</text>
</g>
<!-- D -->
<g id="node2" class="node">
<title>D</title>
<ellipse fill="lightgrey" stroke="black" cx="97" cy="-140" rx="18" ry="18"/>
<text text-anchor="middle" x="97" y="-136.3" font-family="Times,serif" font-size="14.00">D</text>
</g>
<!-- C&#45;&gt;D -->
<g id="edge5" class="edge">
<title>C&#45;&gt;D</title>
<path fill="none" stroke="black" d="M30.71,-78.95C37.38,-86.18 45.98,-95.26 54,-103 60.63,-109.4 68.12,-116.14 74.91,-122.09"/>
<polygon fill="black" stroke="black" points="72.63,-124.74 82.48,-128.64 77.21,-119.45 72.63,-124.74"/>
<text text-anchor="middle" x="57.5" y="-112.8" font-family="Times,serif" font-size="14.00">ε</text>
</g>
<!-- B -->
<g id="node4" class="node">
<title>B</title>
<ellipse fill="none" stroke="black" cx="255" cy="-76" rx="18" ry="18"/>
<text text-anchor="middle" x="255" y="-72.3" font-family="Times,serif" font-size="14.00">B</text>
</g>
<!-- C&#45;&gt;B -->
<g id="edge4" class="edge">
<title>C&#45;&gt;B</title>
<path fill="none" stroke="black" d="M36.16,-65.75C70.79,-65.41 151.51,-65.35 219,-71 221.57,-71.21 224.24,-71.49 226.9,-71.81"/>
<polygon fill="black" stroke="black" points="226.58,-75.3 236.96,-73.16 227.51,-68.36 226.58,-75.3"/>
<text text-anchor="middle" x="136.5" y="-69.8" font-family="Times,serif" font-size="14.00">b</text>
</g>
<!-- E -->
<g id="node5" class="node">
<title>E</title>
<ellipse fill="none" stroke="black" cx="334" cy="-76" rx="18" ry="18"/>
<text text-anchor="middle" x="334" y="-72.3" font-family="Times,serif" font-size="14.00">E</text>
</g>
<!-- C&#45;&gt;E -->
<g id="edge8" class="edge">
<title>C&#45;&gt;E</title>
<path fill="none" stroke="black" d="M27.78,-50.69C40.24,-31.2 65.01,0 96,0 96,0 96,0 256,0 285.58,0 307.91,-28.77 320.71,-50.9"/>
<polygon fill="black" stroke="black" points="317.75,-52.78 325.61,-59.88 323.89,-49.43 317.75,-52.78"/>
<text text-anchor="middle" x="176" y="-3.8" font-family="Times,serif" font-size="14.00">ε</text>
</g>
<!-- A -->
<g id="node3" class="node">
<title>A</title>
<ellipse fill="none" stroke="black" cx="176" cy="-98" rx="18" ry="18"/>
<text text-anchor="middle" x="176" y="-94.3" font-family="Times,serif" font-size="14.00">A</text>
</g>
<!-- D&#45;&gt;A -->
<g id="edge6" class="edge">
<title>D&#45;&gt;A</title>
<path fill="none" stroke="black" d="M113.21,-131.7C123.97,-125.83 138.61,-117.85 150.94,-111.12"/>
<polygon fill="black" stroke="black" points="152.72,-114.14 159.82,-106.28 149.36,-108 152.72,-114.14"/>
<text text-anchor="middle" x="136.5" y="-123.8" font-family="Times,serif" font-size="14.00">ε</text>
</g>
<!-- A&#45;&gt;C -->
<g id="edge3" class="edge">
<title>A&#45;&gt;C</title>
<path fill="none" stroke="black" d="M157.95,-94.5C130.89,-88.95 77.88,-78.08 45.73,-71.48"/>
<polygon fill="black" stroke="black" points="46.19,-68.01 35.69,-69.42 44.79,-74.86 46.19,-68.01"/>
<text text-anchor="middle" x="97" y="-88.8" font-family="Times,serif" font-size="14.00">ε</text>
</g>
<!-- A&#45;&gt;B -->
<g id="edge1" class="edge">
<title>A&#45;&gt;B</title>
<path fill="none" stroke="black" d="M190.86,-87.42C197,-83.35 204.51,-79.17 212,-77 216.62,-75.66 221.64,-74.95 226.56,-74.62"/>
<polygon fill="black" stroke="black" points="227,-78.11 236.94,-74.45 226.88,-71.12 227,-78.11"/>
<text text-anchor="middle" x="215.5" y="-80.8" font-family="Times,serif" font-size="14.00">a</text>
</g>
<!-- A&#45;&gt;B -->
<g id="edge2" class="edge">
<title>A&#45;&gt;B</title>
<path fill="none" stroke="black" d="M193.99,-96.69C201.73,-95.81 210.94,-94.36 219,-92 222.44,-90.99 225.97,-89.7 229.41,-88.3"/>
<polygon fill="black" stroke="black" points="230.98,-91.43 238.69,-84.16 228.13,-85.04 230.98,-91.43"/>
<text text-anchor="middle" x="215.5" y="-96.8" font-family="Times,serif" font-size="14.00">ε</text>
</g>
<!-- B&#45;&gt;E -->
<g id="edge7" class="edge">
<title>B&#45;&gt;E</title>
<path fill="none" stroke="black" d="M273.09,-76C282.66,-76 294.82,-76 305.68,-76"/>
<polygon fill="black" stroke="black" points="305.96,-79.5 315.96,-76 305.96,-72.5 305.96,-79.5"/>
<text text-anchor="middle" x="294.5" y="-79.8" font-family="Times,serif" font-size="14.00">c</text>
</g>
<!-- E&#45;&gt;D -->
<g id="edge9" class="edge">
<title>E&#45;&gt;D</title>
<path fill="none" stroke="black" d="M317.97,-84.96C311.9,-88.37 304.74,-92.12 298,-95 287.27,-99.58 284.18,-99.66 273,-103 214.44,-120.52 200.51,-129.35 140,-138 135.32,-138.67 130.32,-139.13 125.46,-139.44"/>
<polygon fill="black" stroke="black" points="125.06,-135.95 115.23,-139.91 125.39,-142.95 125.06,-135.95"/>
<text text-anchor="middle" x="215.5" y="-125.8" font-family="Times,serif" font-size="14.00">ε</text>
</g>
</g>
</svg>
