<?xml version="1.0" encoding="UTF-8" standalone="no"?>
<!DOCTYPE svg PUBLIC "-//W3C//DTD SVG 1.1//EN"
 "http://www.w3.org/Graphics/SVG/1.1/DTD/svg11.dtd">
<!-- Generated by graphviz version 2.47.0 (20210316.0004)
 -->
<!-- Title: finite_state_machine Pages: 1 -->
<svg width="394pt" height="648pt"
 viewBox="0.00 0.00 394.39 648.00" xmlns="http://www.w3.org/2000/svg" xmlns:xlink="http://www.w3.org/1999/xlink">
<g id="graph0" class="graph" transform="scale(1.63 1.63) rotate(0) translate(4 393.99)">
<title>finite_state_machine</title>
<polygon fill="white" stroke="transparent" points="-4,4 -4,-393.99 238.23,-393.99 238.23,4 -4,4"/>
<!-- n0 -->
<g id="node1" class="node">
<title>n0</title>
<ellipse fill="none" stroke="black" cx="56.73" cy="-370.49" rx="18" ry="18"/>
<text text-anchor="middle" x="56.73" y="-366.79" font-family="Times,serif" font-size="14.00">A</text>
</g>
<!-- n1 -->
<g id="node2" class="node">
<title>n1</title>
<ellipse fill="none" stroke="black" cx="32.73" cy="-192" rx="18" ry="18"/>
<text text-anchor="middle" x="32.73" y="-188.3" font-family="Times,serif" font-size="14.00">B</text>
</g>
<!-- n0&#45;&gt;n1 -->
<g id="edge1" class="edge">
<title>n0&#45;&gt;n1</title>
<path fill="none" stroke="black" d="M42.79,-358.79C34.71,-352.05 24.76,-342.79 17.73,-333 8.33,-319.91 6.14,-315.74 2.73,-300 -0.94,-283.06 -0.85,-277.96 2.73,-261 5.97,-245.61 12.93,-229.45 19.33,-216.75"/>
<polygon fill="black" stroke="black" points="22.49,-218.26 24.04,-207.78 16.29,-215.01 22.49,-218.26"/>
<text text-anchor="middle" x="6.23" y="-276.8" font-family="Times,serif" font-size="14.00">a</text>
</g>
<!-- n0&#45;&gt;n1 -->
<g id="edge2" class="edge">
<title>n0&#45;&gt;n1</title>
<path fill="none" stroke="black" d="M54.24,-352.65C52.18,-338.58 49.2,-317.99 46.73,-300 43,-272.85 38.96,-241.79 36.18,-220.15"/>
<polygon fill="black" stroke="black" points="39.63,-219.53 34.89,-210.06 32.69,-220.42 39.63,-219.53"/>
<text text-anchor="middle" x="50.23" y="-276.8" font-family="Times,serif" font-size="14.00">ε</text>
</g>
<!-- n2 -->
<g id="node3" class="node">
<title>n2</title>
<ellipse fill="none" stroke="black" cx="80.73" cy="-280.5" rx="18" ry="18"/>
<text text-anchor="middle" x="80.73" y="-276.8" font-family="Times,serif" font-size="14.00">C</text>
</g>
<!-- n0&#45;&gt;n2 -->
<g id="edge3" class="edge">
<title>n0&#45;&gt;n2</title>
<path fill="none" stroke="black" d="M61.24,-352.94C64.7,-340.28 69.52,-322.58 73.51,-307.96"/>
<polygon fill="black" stroke="black" points="76.98,-308.54 76.23,-297.98 70.23,-306.7 76.98,-308.54"/>
<text text-anchor="middle" x="74.23" y="-321.8" font-family="Times,serif" font-size="14.00">ε</text>
</g>
<!-- n4 -->
<g id="node5" class="node">
<title>n4</title>
<ellipse fill="none" stroke="black" cx="75.73" cy="-105" rx="18" ry="18"/>
<text text-anchor="middle" x="75.73" y="-101.3" font-family="Times,serif" font-size="14.00">E</text>
</g>
<!-- n1&#45;&gt;n4 -->
<g id="edge7" class="edge">
<title>n1&#45;&gt;n4</title>
<path fill="none" stroke="black" d="M40.62,-175.41C46.98,-162.83 56.05,-144.9 63.37,-130.42"/>
<polygon fill="black" stroke="black" points="66.5,-131.99 67.89,-121.49 60.25,-128.83 66.5,-131.99"/>
<text text-anchor="middle" x="61.23" y="-144.8" font-family="Times,serif" font-size="14.00">c</text>
</g>
<!-- n2&#45;&gt;n1 -->
<g id="edge4" class="edge">
<title>n2&#45;&gt;n1</title>
<path fill="none" stroke="black" d="M72.37,-264.43C65.12,-251.36 54.49,-232.22 46.07,-217.04"/>
<polygon fill="black" stroke="black" points="49.07,-215.23 41.15,-208.18 42.95,-218.63 49.07,-215.23"/>
<text text-anchor="middle" x="63.23" y="-231.8" font-family="Times,serif" font-size="14.00">b</text>
</g>
<!-- n3 -->
<g id="node4" class="node">
<title>n3</title>
<ellipse fill="none" stroke="black" cx="121.73" cy="-18" rx="18" ry="18"/>
<text text-anchor="middle" x="121.73" y="-14.3" font-family="Times,serif" font-size="14.00">D</text>
</g>
<!-- n2&#45;&gt;n3 -->
<g id="edge5" class="edge">
<title>n2&#45;&gt;n3</title>
<path fill="none" stroke="black" d="M87.32,-263.37C89.66,-257.11 92.11,-249.81 93.73,-243 110.31,-173.2 117.5,-88.68 120.24,-46.19"/>
<polygon fill="black" stroke="black" points="123.74,-46.28 120.86,-36.08 116.76,-45.85 123.74,-46.28"/>
<text text-anchor="middle" x="114.23" y="-144.8" font-family="Times,serif" font-size="14.00">ε</text>
</g>
<!-- n2&#45;&gt;n4 -->
<g id="edge8" class="edge">
<title>n2&#45;&gt;n4</title>
<path fill="none" stroke="black" d="M80.23,-262.23C79.36,-232.09 77.56,-169.66 76.52,-133.51"/>
<polygon fill="black" stroke="black" points="80.01,-133.1 76.22,-123.2 73.01,-133.3 80.01,-133.1"/>
<text text-anchor="middle" x="82.23" y="-188.3" font-family="Times,serif" font-size="14.00">ε</text>
</g>
<!-- n3&#45;&gt;n0 -->
<g id="edge6" class="edge">
<title>n3&#45;&gt;n0</title>
<path fill="none" stroke="black" d="M133.81,-31.68C147.44,-47.35 167.73,-75.48 167.73,-104 167.73,-281.5 167.73,-281.5 167.73,-281.5 167.73,-324.29 116.45,-349.56 83.6,-361.36"/>
<polygon fill="black" stroke="black" points="82.42,-358.07 74.07,-364.6 84.67,-364.7 82.42,-358.07"/>
<text text-anchor="middle" x="171.23" y="-188.3" font-family="Times,serif" font-size="14.00">ε</text>
</g>
<!-- n4&#45;&gt;n3 -->
<g id="edge9" class="edge">
<title>n4&#45;&gt;n3</title>
<path fill="none" stroke="black" d="M83.09,-88.52C87.91,-78.57 94.47,-65.4 100.73,-54 102.8,-50.23 105.07,-46.27 107.33,-42.44"/>
<polygon fill="black" stroke="black" points="110.34,-44.22 112.48,-33.84 104.34,-40.62 110.34,-44.22"/>
<text text-anchor="middle" x="104.23" y="-57.8" font-family="Times,serif" font-size="14.00">ε</text>
</g>
<!-- n5 -->
<!-- n6 -->
<g id="node7" class="node">
<title>n6</title>
<ellipse fill="none" stroke="black" cx="214.73" cy="-280.5" rx="19.5" ry="19.5"/>
<text text-anchor="start" x="207.73" y="-276.8" font-family="Times,serif" font-size="14.00">→</text>
</g>
<!-- n5&#45;&gt;n6 -->
</g>
</svg>
