<?xml version="1.0" encoding="UTF-8" standalone="no"?>
<!DOCTYPE svg PUBLIC "-//W3C//DTD SVG 1.1//EN"
 "http://www.w3.org/Graphics/SVG/1.1/DTD/svg11.dtd">
<!-- Generated by graphviz version 2.47.0 (20210316.0004)
 -->
<!-- Title: finite_state_machine Pages: 1 -->
<svg width="864pt" height="544pt"
 viewBox="0.00 0.00 864.00 543.81" xmlns="http://www.w3.org/2000/svg" xmlns:xlink="http://www.w3.org/1999/xlink">
<g id="graph0" class="graph" transform="scale(1.82 1.82) rotate(0) translate(4 295.6)">
<title>finite_state_machine</title>
<polygon fill="white" stroke="transparent" points="-4,4 -4,-295.6 472,-295.6 472,4 -4,4"/>
<!-- c -->
<g id="node1" class="node">
<title>c</title>
<ellipse fill="none" stroke="black" cx="306" cy="-217.8" rx="18" ry="18"/>
<ellipse fill="none" stroke="black" cx="306" cy="-217.8" rx="22" ry="22"/>
<text text-anchor="middle" x="306" y="-214.1" font-family="Times,serif" font-size="14.00">c</text>
</g>
<!-- c&#45;&gt;c -->
<g id="edge5" class="edge">
<title>c:ne&#45;&gt;c:nw</title>
<path fill="none" stroke="black" d="M322,-233.8C331,-245.8 331,-257.8 306,-257.8 287.25,-257.8 282.56,-251.05 285.19,-242.61"/>
<polygon fill="black" stroke="black" points="288.28,-244.25 290,-233.8 282.14,-240.9 288.28,-244.25"/>
<text text-anchor="middle" x="306" y="-261.6" font-family="Times,serif" font-size="14.00">1</text>
</g>
<!-- inv1 -->
<!-- c&#45;&gt;inv1 -->
<g id="edge6" class="edge">
<title>c&#45;&gt;inv1</title>
<path fill="none" stroke="black" d="M286.28,-227.66C250.23,-245.68 176.25,-282.68 163.8,-288.9"/>
<text text-anchor="middle" x="221.54" y="-262.08" font-family="Times,serif" font-size="14.00">0</text>
</g>
<!-- g -->
<g id="node2" class="node">
<title>g</title>
<ellipse fill="none" stroke="black" cx="306" cy="-73.8" rx="18" ry="18"/>
<ellipse fill="none" stroke="black" cx="306" cy="-73.8" rx="22" ry="22"/>
<text text-anchor="middle" x="306" y="-70.1" font-family="Times,serif" font-size="14.00">g</text>
</g>
<!-- g&#45;&gt;g -->
<g id="edge17" class="edge">
<title>g:n&#45;&gt;g:n</title>
<path fill="none" stroke="black" d="M306,-95.8C315,-101.8 315,-113.8 306,-113.8 300.23,-113.8 298.16,-108.88 299.78,-103.76"/>
<polygon fill="black" stroke="black" points="302.6,-105.84 306,-95.8 297.09,-101.53 302.6,-105.84"/>
<text text-anchor="middle" x="306" y="-117.6" font-family="Times,serif" font-size="14.00">0</text>
</g>
<!-- inv2 -->
<!-- g&#45;&gt;inv2 -->
<g id="edge15" class="edge">
<title>g&#45;&gt;inv2</title>
<path fill="none" stroke="black" d="M284.44,-68.41C248.04,-59.31 177.06,-41.56 164.07,-38.32"/>
<text text-anchor="middle" x="220.75" y="-57.16" font-family="Times,serif" font-size="14.00">1</text>
</g>
<!-- a -->
<g id="node3" class="node">
<title>a</title>
<ellipse fill="none" stroke="black" cx="18" cy="-217.8" rx="18" ry="18"/>
<text text-anchor="middle" x="18" y="-214.1" font-family="Times,serif" font-size="14.00">a</text>
</g>
<!-- b -->
<g id="node4" class="node">
<title>b</title>
<ellipse fill="none" stroke="black" cx="162" cy="-217.8" rx="18" ry="18"/>
<text text-anchor="middle" x="162" y="-214.1" font-family="Times,serif" font-size="14.00">b</text>
</g>
<!-- a&#45;&gt;b -->
<g id="edge1" class="edge">
<title>a&#45;&gt;b</title>
<path fill="none" stroke="black" d="M36.24,-217.8C60.8,-217.8 104.75,-217.8 133.65,-217.8"/>
<polygon fill="black" stroke="black" points="133.91,-221.3 143.91,-217.8 133.91,-214.3 133.91,-221.3"/>
<text text-anchor="middle" x="81.44" y="-221.6" font-family="Times,serif" font-size="14.00">0</text>
</g>
<!-- f -->
<g id="node7" class="node">
<title>f</title>
<ellipse fill="none" stroke="black" cx="162" cy="-73.8" rx="18" ry="18"/>
<text text-anchor="middle" x="162" y="-70.1" font-family="Times,serif" font-size="14.00">f</text>
</g>
<!-- a&#45;&gt;f -->
<g id="edge2" class="edge">
<title>a&#45;&gt;f</title>
<path fill="none" stroke="black" d="M30.78,-205.02C55.8,-180 111.44,-124.36 141.61,-94.19"/>
<polygon fill="black" stroke="black" points="144.45,-96.3 149.04,-86.76 139.5,-91.35 144.45,-96.3"/>
<text text-anchor="middle" x="82.69" y="-153.41" font-family="Times,serif" font-size="14.00">1</text>
</g>
<!-- b&#45;&gt;c -->
<g id="edge3" class="edge">
<title>b&#45;&gt;c</title>
<path fill="none" stroke="black" d="M180.24,-217.8C203.69,-217.8 244.84,-217.8 273.66,-217.8"/>
<polygon fill="black" stroke="black" points="273.66,-221.3 283.66,-217.8 273.66,-214.3 273.66,-221.3"/>
<text text-anchor="middle" x="223.45" y="-221.6" font-family="Times,serif" font-size="14.00">1</text>
</g>
<!-- b&#45;&gt;g -->
<g id="edge4" class="edge">
<title>b&#45;&gt;g</title>
<path fill="none" stroke="black" d="M174.78,-205.02C199.02,-180.78 251.99,-127.81 282.7,-97.1"/>
<polygon fill="black" stroke="black" points="285.41,-99.34 290,-89.8 280.46,-94.39 285.41,-99.34"/>
<text text-anchor="middle" x="225.24" y="-154.86" font-family="Times,serif" font-size="14.00">0</text>
</g>
<!-- d -->
<g id="node5" class="node">
<title>d</title>
<ellipse fill="none" stroke="black" cx="450" cy="-217.8" rx="18" ry="18"/>
<text text-anchor="middle" x="450" y="-214.1" font-family="Times,serif" font-size="14.00">d</text>
</g>
<!-- d&#45;&gt;c -->
<g id="edge8" class="edge">
<title>d&#45;&gt;c</title>
<path fill="none" stroke="black" d="M431.76,-217.8C408.31,-217.8 367.16,-217.8 338.34,-217.8"/>
<polygon fill="black" stroke="black" points="338.34,-214.3 328.34,-217.8 338.34,-221.3 338.34,-214.3"/>
<text text-anchor="middle" x="381.55" y="-221.6" font-family="Times,serif" font-size="14.00">0</text>
</g>
<!-- d&#45;&gt;g -->
<g id="edge9" class="edge">
<title>d&#45;&gt;g</title>
<path fill="none" stroke="black" d="M437.22,-205.02C412.98,-180.78 360.01,-127.81 329.3,-97.1"/>
<polygon fill="black" stroke="black" points="331.54,-94.39 322,-89.8 326.59,-99.34 331.54,-94.39"/>
<text text-anchor="middle" x="379.76" y="-154.86" font-family="Times,serif" font-size="14.00">1</text>
</g>
<!-- e -->
<g id="node6" class="node">
<title>e</title>
<ellipse fill="none" stroke="black" cx="18" cy="-73.8" rx="18" ry="18"/>
<text text-anchor="middle" x="18" y="-70.1" font-family="Times,serif" font-size="14.00">e</text>
</g>
<!-- e&#45;&gt;f -->
<g id="edge10" class="edge">
<title>e&#45;&gt;f</title>
<path fill="none" stroke="black" d="M36.24,-73.8C60.8,-73.8 104.75,-73.8 133.65,-73.8"/>
<polygon fill="black" stroke="black" points="133.91,-77.3 143.91,-73.8 133.91,-70.3 133.91,-77.3"/>
<text text-anchor="middle" x="81.44" y="-77.6" font-family="Times,serif" font-size="14.00">1</text>
</g>
<!-- inv3 -->
<!-- e&#45;&gt;inv3 -->
<g id="edge11" class="edge">
<title>e&#45;&gt;inv3</title>
<path fill="none" stroke="black" d="M34.24,-65.68C68.66,-48.47 146.9,-9.35 160.09,-2.75"/>
<text text-anchor="middle" x="93.67" y="-38.02" font-family="Times,serif" font-size="14.00">0</text>
</g>
<!-- f&#45;&gt;c -->
<g id="edge13" class="edge">
<title>f&#45;&gt;c</title>
<path fill="none" stroke="black" d="M174.78,-86.58C199.02,-110.82 251.99,-163.79 282.7,-194.5"/>
<polygon fill="black" stroke="black" points="280.46,-197.21 290,-201.8 285.41,-192.26 280.46,-197.21"/>
<text text-anchor="middle" x="225.24" y="-129.34" font-family="Times,serif" font-size="14.00">0</text>
</g>
<!-- f&#45;&gt;g -->
<g id="edge14" class="edge">
<title>f&#45;&gt;g</title>
<path fill="none" stroke="black" d="M180.24,-73.8C203.69,-73.8 244.84,-73.8 273.66,-73.8"/>
<polygon fill="black" stroke="black" points="273.66,-77.3 283.66,-73.8 273.66,-70.3 273.66,-77.3"/>
<text text-anchor="middle" x="223.45" y="-77.6" font-family="Times,serif" font-size="14.00">1</text>
</g>
<!-- h -->
<g id="node8" class="node">
<title>h</title>
<ellipse fill="none" stroke="black" cx="450" cy="-73.8" rx="18" ry="18"/>
<text text-anchor="middle" x="450" y="-70.1" font-family="Times,serif" font-size="14.00">h</text>
</g>
<!-- h&#45;&gt;c -->
<g id="edge18" class="edge">
<title>h&#45;&gt;c</title>
<path fill="none" stroke="black" d="M437.22,-86.58C412.98,-110.82 360.01,-163.79 329.3,-194.5"/>
<polygon fill="black" stroke="black" points="326.59,-192.26 322,-201.8 331.54,-197.21 326.59,-192.26"/>
<text text-anchor="middle" x="379.76" y="-129.34" font-family="Times,serif" font-size="14.00">1</text>
</g>
<!-- h&#45;&gt;g -->
<g id="edge19" class="edge">
<title>h&#45;&gt;g</title>
<path fill="none" stroke="black" d="M431.76,-73.8C408.31,-73.8 367.16,-73.8 338.34,-73.8"/>
<polygon fill="black" stroke="black" points="338.34,-70.3 328.34,-73.8 338.34,-77.3 338.34,-70.3"/>
<text text-anchor="middle" x="381.55" y="-77.6" font-family="Times,serif" font-size="14.00">0</text>
</g>
<!-- inv1&#45;&gt;a -->
<g id="edge7" class="edge">
<title>inv1&#45;&gt;a</title>
<path fill="none" stroke="black" d="M160.38,-288.99C149.09,-283.35 81.42,-249.51 43.57,-230.59"/>
<polygon fill="black" stroke="black" points="44.71,-227.24 34.2,-225.9 41.58,-233.5 44.71,-227.24"/>
</g>
<!-- inv2&#45;&gt;e -->
<g id="edge16" class="edge">
<title>inv2&#45;&gt;e</title>
<path fill="none" stroke="black" d="M159.96,-38.31C147.72,-41.37 83.08,-57.53 45.38,-66.95"/>
<polygon fill="black" stroke="black" points="44.38,-63.6 35.53,-69.42 46.08,-70.39 44.38,-63.6"/>
</g>
<!-- inv3&#45;&gt;h -->
<g id="edge12" class="edge">
<title>inv3&#45;&gt;h</title>
<path fill="none" stroke="black" d="M163.84,-2.26C183.44,-7.16 354.42,-49.91 422.35,-66.89"/>
<polygon fill="black" stroke="black" points="421.78,-70.35 432.33,-69.38 423.48,-63.56 421.78,-70.35"/>
</g>
</g>
</svg>
