<?xml version="1.0" encoding="UTF-8" standalone="no"?>
<!DOCTYPE svg PUBLIC "-//W3C//DTD SVG 1.1//EN"
 "http://www.w3.org/Graphics/SVG/1.1/DTD/svg11.dtd">
<!-- Generated by graphviz version 2.47.0 (20210316.0004)
 -->
<!-- Title: finite_state_machine Pages: 1 -->
<svg width="864pt" height="561pt"
 viewBox="0.00 0.00 864.00 560.61" xmlns="http://www.w3.org/2000/svg" xmlns:xlink="http://www.w3.org/1999/xlink">
<g id="graph0" class="graph" transform="scale(6.6 6.6) rotate(0) translate(4 81)">
<title>finite_state_machine</title>
<polygon fill="white" stroke="transparent" points="-4,4 -4,-81 127,-81 127,4 -4,4"/>
<!--   -->
<g id="node1" class="node">
<title> </title>
<ellipse fill="none" stroke="black" cx="101" cy="-22" rx="18" ry="18"/>
<ellipse fill="none" stroke="black" cx="101" cy="-22" rx="22" ry="22"/>
<text text-anchor="middle" x="101" y="-18.3" font-family="Times,serif" font-size="14.00"> </text>
</g>
<!--  &#45;&gt;  -->
<g id="edge2" class="edge">
<title> &#45;&gt; </title>
<path fill="none" stroke="black" d="M93.32,-42.99C92.37,-53.09 94.93,-62 101,-62 104.89,-62 107.34,-58.34 108.35,-53.06"/>
<polygon fill="black" stroke="black" points="111.85,-53.1 108.68,-42.99 104.85,-52.87 111.85,-53.1"/>
<text text-anchor="middle" x="101" y="-65.8" font-family="Times,serif" font-size="14.00">a</text>
</g>
<!-- S -->
<g id="node2" class="node">
<title>S</title>
<ellipse fill="none" stroke="black" cx="18" cy="-22" rx="18" ry="18"/>
<text text-anchor="middle" x="18" y="-18.3" font-family="Times,serif" font-size="14.00">S</text>
</g>
<!-- S&#45;&gt;  -->
<g id="edge1" class="edge">
<title>S&#45;&gt; </title>
<path fill="none" stroke="black" d="M36.18,-22C45.61,-22 57.6,-22 68.64,-22"/>
<polygon fill="black" stroke="black" points="68.81,-25.5 78.81,-22 68.81,-18.5 68.81,-25.5"/>
<text text-anchor="start" x="54" y="-25.8" font-family="Times,serif" font-size="14.00">ε</text>
</g>
<!-- S&#45;&gt;S -->
<g id="edge3" class="edge">
<title>S&#45;&gt;S</title>
<path fill="none" stroke="black" d="M11.27,-39.04C9.89,-48.86 12.14,-58 18,-58 21.66,-58 23.92,-54.43 24.75,-49.35"/>
<polygon fill="black" stroke="black" points="28.25,-49.03 24.73,-39.04 21.25,-49.04 28.25,-49.03"/>
<text text-anchor="middle" x="18" y="-61.8" font-family="Times,serif" font-size="14.00">a</text>
</g>
</g>
</svg>
