<?xml version="1.0" encoding="UTF-8" standalone="no"?>
<!DOCTYPE svg PUBLIC "-//W3C//DTD SVG 1.1//EN"
 "http://www.w3.org/Graphics/SVG/1.1/DTD/svg11.dtd">
<!-- Generated by graphviz version 2.47.0 (20210316.0004)
 -->
<!-- Title: tree Pages: 1 -->
<svg width="864pt" height="435pt"
 viewBox="0.00 0.00 864.00 435.21" xmlns="http://www.w3.org/2000/svg" xmlns:xlink="http://www.w3.org/1999/xlink">
<g id="graph0" class="graph" transform="scale(1.89 1.89) rotate(0) translate(4 226.6)">
<title>tree</title>
<polygon fill="white" stroke="transparent" points="-4,4 -4,-226.6 453.8,-226.6 453.8,4 -4,4"/>
<!-- n0 -->
<g id="node1" class="node">
<title>n0</title>
<text text-anchor="middle" x="207" y="-200.9" font-family="Times,serif" font-size="14.00">stmt</text>
</g>
<!-- n1 -->
<g id="node2" class="node">
<title>n1</title>
<text text-anchor="middle" x="27" y="-127.9" font-family="Times,serif" font-size="14.00">if</text>
</g>
<!-- n0&#45;&gt;n1 -->
<g id="edge1" class="edge">
<title>n0&#45;&gt;n1</title>
<path fill="none" stroke="black" d="M179.93,-194.2C150.8,-183.91 103.21,-166.6 63,-149.6 60.07,-148.36 57.03,-147.02 54.02,-145.65"/>
</g>
<!-- n2 -->
<g id="node3" class="node">
<title>n2</title>
<text text-anchor="middle" x="99" y="-127.9" font-family="Times,serif" font-size="14.00">expr</text>
</g>
<!-- n0&#45;&gt;n2 -->
<g id="edge2" class="edge">
<title>n0&#45;&gt;n2</title>
<path fill="none" stroke="black" d="M181.13,-186.59C164.16,-175.43 142.04,-160.89 125.03,-149.71"/>
</g>
<!-- n3 -->
<g id="node4" class="node">
<title>n3</title>
<text text-anchor="middle" x="171" y="-127.9" font-family="Times,serif" font-size="14.00">then</text>
</g>
<!-- n0&#45;&gt;n3 -->
<g id="edge3" class="edge">
<title>n0&#45;&gt;n3</title>
<path fill="none" stroke="black" d="M198.29,-186.41C192.63,-175.25 185.28,-160.76 179.63,-149.63"/>
</g>
<!-- n4 -->
<g id="node5" class="node">
<title>n4</title>
<text text-anchor="middle" x="243" y="-127.9" font-family="Times,serif" font-size="14.00">stmt</text>
</g>
<!-- n0&#45;&gt;n4 -->
<g id="edge4" class="edge">
<title>n0&#45;&gt;n4</title>
<path fill="none" stroke="black" d="M215.71,-186.41C221.37,-175.25 228.72,-160.76 234.37,-149.63"/>
</g>
<!-- n5 -->
<g id="node6" class="node">
<title>n5</title>
<text text-anchor="middle" x="315" y="-127.9" font-family="Times,serif" font-size="14.00">else</text>
</g>
<!-- n0&#45;&gt;n5 -->
<g id="edge5" class="edge">
<title>n0&#45;&gt;n5</title>
<path fill="none" stroke="black" d="M232.87,-186.59C249.84,-175.43 271.96,-160.89 288.97,-149.71"/>
</g>
<!-- n6 -->
<g id="node7" class="node">
<title>n6</title>
<text text-anchor="middle" x="409" y="-127.9" font-family="Times,serif" font-size="14.00">stmt</text>
</g>
<!-- n0&#45;&gt;n6 -->
<g id="edge6" class="edge">
<title>n0&#45;&gt;n6</title>
<path fill="none" stroke="black" d="M234.24,-194.02C272.9,-180.44 343.27,-155.7 381.87,-142.14"/>
</g>
<!-- i0 -->
<!-- n2&#45;&gt;i0 -->
<g id="edge11" class="edge">
<title>n2&#45;&gt;i0</title>
<path fill="none" stroke="black" d="M89.56,-113.41C79.1,-94.37 63.32,-65.65 60.45,-60.43"/>
</g>
<!-- i1 -->
<!-- n2&#45;&gt;i1 -->
<g id="edge12" class="edge">
<title>n2&#45;&gt;i1</title>
<path fill="none" stroke="black" d="M99,-113.41C99,-94.37 99,-65.65 99,-60.43"/>
</g>
<!-- n7 -->
<g id="node8" class="node">
<title>n7</title>
<text text-anchor="middle" x="146" y="-54.9" font-family="Times,serif" font-size="14.00">if</text>
</g>
<!-- n4&#45;&gt;n7 -->
<g id="edge7" class="edge">
<title>n4&#45;&gt;n7</title>
<path fill="none" stroke="black" d="M219.52,-113.41C204.27,-102.25 184.47,-87.76 169.26,-76.63"/>
</g>
<!-- n8 -->
<g id="node9" class="node">
<title>n8</title>
<text text-anchor="middle" x="218" y="-54.9" font-family="Times,serif" font-size="14.00">expr</text>
</g>
<!-- n4&#45;&gt;n8 -->
<g id="edge8" class="edge">
<title>n4&#45;&gt;n8</title>
<path fill="none" stroke="black" d="M236.95,-113.41C233.02,-102.25 227.92,-87.76 224,-76.63"/>
</g>
<!-- n9 -->
<g id="node10" class="node">
<title>n9</title>
<text text-anchor="middle" x="290" y="-54.9" font-family="Times,serif" font-size="14.00">then</text>
</g>
<!-- n4&#45;&gt;n9 -->
<g id="edge9" class="edge">
<title>n4&#45;&gt;n9</title>
<path fill="none" stroke="black" d="M254.38,-113.41C261.77,-102.25 271.36,-87.76 278.73,-76.63"/>
</g>
<!-- n10 -->
<g id="node11" class="node">
<title>n10</title>
<text text-anchor="middle" x="362" y="-54.9" font-family="Times,serif" font-size="14.00">stmt</text>
</g>
<!-- n4&#45;&gt;n10 -->
<g id="edge10" class="edge">
<title>n4&#45;&gt;n10</title>
<path fill="none" stroke="black" d="M270,-114.49C289.34,-102.95 315.29,-87.47 334.69,-75.89"/>
</g>
<!-- i2 -->
<!-- n6&#45;&gt;i2 -->
<g id="edge14" class="edge">
<title>n6&#45;&gt;i2</title>
<path fill="none" stroke="black" d="M409,-113.41C409,-94.37 409,-65.65 409,-60.43"/>
</g>
<!-- i3 -->
<!-- n6&#45;&gt;i3 -->
<g id="edge15" class="edge">
<title>n6&#45;&gt;i3</title>
<path fill="none" stroke="black" d="M418.44,-113.41C428.9,-94.37 444.68,-65.65 447.55,-60.43"/>
</g>
<!-- i4 -->
<!-- n8&#45;&gt;i4 -->
<g id="edge17" class="edge">
<title>n8&#45;&gt;i4</title>
<path fill="none" stroke="black" d="M211.47,-40.56C206.08,-26.49 199.04,-8.13 197.37,-3.76"/>
</g>
<!-- i5 -->
<!-- n8&#45;&gt;i5 -->
<g id="edge18" class="edge">
<title>n8&#45;&gt;i5</title>
<path fill="none" stroke="black" d="M223.6,-40.56C228.22,-26.49 234.25,-8.13 235.68,-3.76"/>
</g>
<!-- i6 -->
<!-- n10&#45;&gt;i6 -->
<g id="edge20" class="edge">
<title>n10&#45;&gt;i6</title>
<path fill="none" stroke="black" d="M356.4,-40.56C351.78,-26.49 345.75,-8.13 344.32,-3.76"/>
</g>
<!-- i7 -->
<!-- n10&#45;&gt;i7 -->
<g id="edge21" class="edge">
<title>n10&#45;&gt;i7</title>
<path fill="none" stroke="black" d="M368.53,-40.56C373.92,-26.49 380.96,-8.13 382.63,-3.76"/>
</g>
<!-- i0&#45;&gt;i1 -->
<g id="edge13" class="edge">
<title>i0&#45;&gt;i1</title>
<path fill="none" stroke="black" d="M62.1,-58.6C68.93,-58.6 90.5,-58.6 97.08,-58.6"/>
<text text-anchor="start" x="71.5" y="-66.4" font-family="Times,serif" font-size="14.00">E</text>
<text text-anchor="start" x="80.5" y="-66.4" font-family="Times,serif" baseline-shift="sub" font-size="14.00">1</text>
</g>
<!-- i2&#45;&gt;i3 -->
<g id="edge16" class="edge">
<title>i2&#45;&gt;i3</title>
<path fill="none" stroke="black" d="M411.1,-58.6C417.93,-58.6 439.5,-58.6 446.08,-58.6"/>
<text text-anchor="start" x="421" y="-66.4" font-family="Times,serif" font-size="14.00">S</text>
<text text-anchor="start" x="429" y="-66.4" font-family="Times,serif" baseline-shift="sub" font-size="14.00">2</text>
</g>
<!-- i4&#45;&gt;i5 -->
<g id="edge19" class="edge">
<title>i4&#45;&gt;i5</title>
<path fill="none" stroke="black" d="M199.1,-1.8C205.93,-1.8 227.5,-1.8 234.08,-1.8"/>
<text text-anchor="start" x="208.5" y="-9.6" font-family="Times,serif" font-size="14.00">E</text>
<text text-anchor="start" x="217.5" y="-9.6" font-family="Times,serif" baseline-shift="sub" font-size="14.00">2</text>
</g>
<!-- i6&#45;&gt;i7 -->
<g id="edge22" class="edge">
<title>i6&#45;&gt;i7</title>
<path fill="none" stroke="black" d="M346.1,-1.8C352.93,-1.8 374.5,-1.8 381.08,-1.8"/>
<text text-anchor="start" x="356" y="-9.6" font-family="Times,serif" font-size="14.00">S</text>
<text text-anchor="start" x="364" y="-9.6" font-family="Times,serif" baseline-shift="sub" font-size="14.00">1</text>
</g>
</g>
</svg>
