<?xml version="1.0" encoding="UTF-8" standalone="no"?>
<!DOCTYPE svg PUBLIC "-//W3C//DTD SVG 1.1//EN"
 "http://www.w3.org/Graphics/SVG/1.1/DTD/svg11.dtd">
<!-- Generated by graphviz version 2.47.0 (20210316.0004)
 -->
<!-- Title: tree Pages: 1 -->
<svg width="864pt" height="368pt"
 viewBox="0.00 0.00 864.00 368.28" xmlns="http://www.w3.org/2000/svg" xmlns:xlink="http://www.w3.org/1999/xlink">
<g id="graph0" class="graph" transform="scale(1.6 1.6) rotate(0) translate(4 226.6)">
<title>tree</title>
<polygon fill="white" stroke="transparent" points="-4,4 -4,-226.6 537,-226.6 537,4 -4,4"/>
<!-- n0 -->
<g id="node1" class="node">
<title>n0</title>
<text text-anchor="middle" x="153" y="-200.9" font-family="Times,serif" font-size="14.00">stmt</text>
</g>
<!-- n1 -->
<g id="node2" class="node">
<title>n1</title>
<text text-anchor="middle" x="27" y="-127.9" font-family="Times,serif" font-size="14.00">if</text>
</g>
<!-- n0&#45;&gt;n1 -->
<g id="edge1" class="edge">
<title>n0&#45;&gt;n1</title>
<path fill="none" stroke="black" d="M125.97,-188.37C104.86,-176.47 75.63,-160 54.42,-148.05"/>
</g>
<!-- n2 -->
<g id="node3" class="node">
<title>n2</title>
<text text-anchor="middle" x="99" y="-127.9" font-family="Times,serif" font-size="14.00">expr</text>
</g>
<!-- n0&#45;&gt;n2 -->
<g id="edge2" class="edge">
<title>n0&#45;&gt;n2</title>
<path fill="none" stroke="black" d="M139.93,-186.41C131.44,-175.25 120.42,-160.76 111.95,-149.63"/>
</g>
<!-- n3 -->
<g id="node4" class="node">
<title>n3</title>
<text text-anchor="middle" x="171" y="-127.9" font-family="Times,serif" font-size="14.00">then</text>
</g>
<!-- n0&#45;&gt;n3 -->
<g id="edge3" class="edge">
<title>n0&#45;&gt;n3</title>
<path fill="none" stroke="black" d="M157.36,-186.41C160.19,-175.25 163.86,-160.76 166.68,-149.63"/>
</g>
<!-- n4 -->
<g id="node5" class="node">
<title>n4</title>
<text text-anchor="middle" x="290" y="-127.9" font-family="Times,serif" font-size="14.00">stmt</text>
</g>
<!-- n0&#45;&gt;n4 -->
<g id="edge4" class="edge">
<title>n0&#45;&gt;n4</title>
<path fill="none" stroke="black" d="M180.07,-189.57C204.08,-177.13 238.99,-159.04 262.99,-146.6"/>
</g>
<!-- i0 -->
<!-- n2&#45;&gt;i0 -->
<g id="edge11" class="edge">
<title>n2&#45;&gt;i0</title>
<path fill="none" stroke="black" d="M89.56,-113.41C79.1,-94.37 63.32,-65.65 60.45,-60.43"/>
</g>
<!-- i1 -->
<!-- n2&#45;&gt;i1 -->
<g id="edge12" class="edge">
<title>n2&#45;&gt;i1</title>
<path fill="none" stroke="black" d="M99,-113.41C99,-94.37 99,-65.65 99,-60.43"/>
</g>
<!-- n5 -->
<g id="node6" class="node">
<title>n5</title>
<text text-anchor="middle" x="146" y="-54.9" font-family="Times,serif" font-size="14.00">if</text>
</g>
<!-- n4&#45;&gt;n5 -->
<g id="edge5" class="edge">
<title>n4&#45;&gt;n5</title>
<path fill="none" stroke="black" d="M262.91,-117.25C237.33,-104.63 199.16,-85.81 173.45,-73.14"/>
</g>
<!-- n6 -->
<g id="node7" class="node">
<title>n6</title>
<text text-anchor="middle" x="218" y="-54.9" font-family="Times,serif" font-size="14.00">expr</text>
</g>
<!-- n4&#45;&gt;n6 -->
<g id="edge6" class="edge">
<title>n4&#45;&gt;n6</title>
<path fill="none" stroke="black" d="M272.57,-113.41C261.25,-102.25 246.56,-87.76 235.27,-76.63"/>
</g>
<!-- n7 -->
<g id="node8" class="node">
<title>n7</title>
<text text-anchor="middle" x="290" y="-54.9" font-family="Times,serif" font-size="14.00">then</text>
</g>
<!-- n4&#45;&gt;n7 -->
<g id="edge7" class="edge">
<title>n4&#45;&gt;n7</title>
<path fill="none" stroke="black" d="M290,-113.41C290,-102.25 290,-87.76 290,-76.63"/>
</g>
<!-- n8 -->
<g id="node9" class="node">
<title>n8</title>
<text text-anchor="middle" x="362" y="-54.9" font-family="Times,serif" font-size="14.00">stmt</text>
</g>
<!-- n4&#45;&gt;n8 -->
<g id="edge8" class="edge">
<title>n4&#45;&gt;n8</title>
<path fill="none" stroke="black" d="M307.43,-113.41C318.75,-102.25 333.44,-87.76 344.73,-76.63"/>
</g>
<!-- n9 -->
<g id="node10" class="node">
<title>n9</title>
<text text-anchor="middle" x="434" y="-54.9" font-family="Times,serif" font-size="14.00">else</text>
</g>
<!-- n4&#45;&gt;n9 -->
<g id="edge9" class="edge">
<title>n4&#45;&gt;n9</title>
<path fill="none" stroke="black" d="M317.09,-117.25C342.67,-104.63 380.84,-85.81 406.55,-73.14"/>
</g>
<!-- n10 -->
<g id="node11" class="node">
<title>n10</title>
<text text-anchor="middle" x="506" y="-54.9" font-family="Times,serif" font-size="14.00">stmt</text>
</g>
<!-- n4&#45;&gt;n10 -->
<g id="edge10" class="edge">
<title>n4&#45;&gt;n10</title>
<path fill="none" stroke="black" d="M317.26,-123.79C352.89,-114.57 417,-96.93 470,-76.6 472.84,-75.51 475.77,-74.29 478.67,-73.02"/>
</g>
<!-- i2 -->
<!-- n6&#45;&gt;i2 -->
<g id="edge14" class="edge">
<title>n6&#45;&gt;i2</title>
<path fill="none" stroke="black" d="M211.47,-40.56C206.08,-26.49 199.04,-8.13 197.37,-3.76"/>
</g>
<!-- i3 -->
<!-- n6&#45;&gt;i3 -->
<g id="edge15" class="edge">
<title>n6&#45;&gt;i3</title>
<path fill="none" stroke="black" d="M223.6,-40.56C228.22,-26.49 234.25,-8.13 235.68,-3.76"/>
</g>
<!-- i4 -->
<!-- n8&#45;&gt;i4 -->
<g id="edge17" class="edge">
<title>n8&#45;&gt;i4</title>
<path fill="none" stroke="black" d="M356.09,-40.56C351.21,-26.49 344.85,-8.13 343.33,-3.76"/>
</g>
<!-- i5 -->
<!-- n8&#45;&gt;i5 -->
<g id="edge18" class="edge">
<title>n8&#45;&gt;i5</title>
<path fill="none" stroke="black" d="M368.22,-40.56C373.36,-26.49 380.05,-8.13 381.65,-3.76"/>
</g>
<!-- i6 -->
<!-- n10&#45;&gt;i6 -->
<g id="edge20" class="edge">
<title>n10&#45;&gt;i6</title>
<path fill="none" stroke="black" d="M500.4,-40.56C495.78,-26.49 489.75,-8.13 488.32,-3.76"/>
</g>
<!-- i7 -->
<!-- n10&#45;&gt;i7 -->
<g id="edge21" class="edge">
<title>n10&#45;&gt;i7</title>
<path fill="none" stroke="black" d="M512.53,-40.56C517.92,-26.49 524.96,-8.13 526.63,-3.76"/>
</g>
<!-- i0&#45;&gt;i1 -->
<g id="edge13" class="edge">
<title>i0&#45;&gt;i1</title>
<path fill="none" stroke="black" d="M62.1,-58.6C68.93,-58.6 90.5,-58.6 97.08,-58.6"/>
<text text-anchor="start" x="71.5" y="-66.4" font-family="Times,serif" font-size="14.00">E</text>
<text text-anchor="start" x="80.5" y="-66.4" font-family="Times,serif" baseline-shift="sub" font-size="14.00">1</text>
</g>
<!-- i2&#45;&gt;i3 -->
<g id="edge16" class="edge">
<title>i2&#45;&gt;i3</title>
<path fill="none" stroke="black" d="M199.1,-1.8C205.93,-1.8 227.5,-1.8 234.08,-1.8"/>
<text text-anchor="start" x="208.5" y="-9.6" font-family="Times,serif" font-size="14.00">E</text>
<text text-anchor="start" x="217.5" y="-9.6" font-family="Times,serif" baseline-shift="sub" font-size="14.00">2</text>
</g>
<!-- i4&#45;&gt;i5 -->
<g id="edge19" class="edge">
<title>i4&#45;&gt;i5</title>
<path fill="none" stroke="black" d="M345.1,-1.8C351.93,-1.8 373.5,-1.8 380.08,-1.8"/>
<text text-anchor="start" x="355" y="-9.6" font-family="Times,serif" font-size="14.00">S</text>
<text text-anchor="start" x="363" y="-9.6" font-family="Times,serif" baseline-shift="sub" font-size="14.00">1</text>
</g>
<!-- i6&#45;&gt;i7 -->
<g id="edge22" class="edge">
<title>i6&#45;&gt;i7</title>
<path fill="none" stroke="black" d="M490.1,-1.8C496.93,-1.8 518.5,-1.8 525.08,-1.8"/>
<text text-anchor="start" x="500" y="-9.6" font-family="Times,serif" font-size="14.00">S</text>
<text text-anchor="start" x="508" y="-9.6" font-family="Times,serif" baseline-shift="sub" font-size="14.00">2</text>
</g>
</g>
</svg>
