<?xml version="1.0" encoding="UTF-8" standalone="no"?>
<!DOCTYPE svg PUBLIC "-//W3C//DTD SVG 1.1//EN"
 "http://www.w3.org/Graphics/SVG/1.1/DTD/svg11.dtd">
<!-- Generated by graphviz version 2.47.0 (20210316.0004)
 -->
<!-- Title: tree Pages: 1 -->
<svg width="864pt" height="385pt"
 viewBox="0.00 0.00 864.00 384.91" xmlns="http://www.w3.org/2000/svg" xmlns:xlink="http://www.w3.org/1999/xlink">
<g id="graph0" class="graph" transform="scale(2.05 2.05) rotate(0) translate(4 184)">
<title>tree</title>
<polygon fill="white" stroke="transparent" points="-4,4 -4,-184 418,-184 418,4 -4,4"/>
<!-- n0 -->
<g id="node1" class="node">
<title>n0</title>
<text text-anchor="middle" x="99" y="-158.3" font-family="Times,serif" font-size="14.00">A</text>
</g>
<!-- n1 -->
<g id="node2" class="node">
<title>n1</title>
<text text-anchor="middle" x="27" y="-86.3" font-family="Times,serif" font-size="14.00">a</text>
</g>
<!-- n0&#45;&gt;n1 -->
<g id="edge1" class="edge">
<title>n0&#45;&gt;n1</title>
<path fill="none" stroke="black" d="M81.2,-143.7C70.04,-132.85 55.71,-118.92 44.59,-108.1"/>
</g>
<!-- n2 -->
<g id="node3" class="node">
<title>n2</title>
<text text-anchor="middle" x="99" y="-86.3" font-family="Times,serif" font-size="14.00">B</text>
</g>
<!-- n0&#45;&gt;n2 -->
<g id="edge2" class="edge">
<title>n0&#45;&gt;n2</title>
<path fill="none" stroke="black" d="M99,-143.7C99,-132.85 99,-118.92 99,-108.1"/>
</g>
<!-- n3 -->
<g id="node4" class="node">
<title>n3</title>
<text text-anchor="middle" x="171" y="-86.3" font-family="Times,serif" font-size="14.00">b</text>
</g>
<!-- n0&#45;&gt;n3 -->
<g id="edge3" class="edge">
<title>n0&#45;&gt;n3</title>
<path fill="none" stroke="black" d="M116.8,-143.7C127.96,-132.85 142.29,-118.92 153.41,-108.1"/>
</g>
<!-- n4 -->
<g id="node5" class="node">
<title>n4</title>
<text text-anchor="start" x="95.5" y="-14.3" font-family="Times,serif" font-size="14.00">ε</text>
</g>
<!-- n2&#45;&gt;n4 -->
<g id="edge4" class="edge">
<title>n2&#45;&gt;n4</title>
<path fill="none" stroke="black" d="M99,-71.7C99,-60.85 99,-46.92 99,-36.1"/>
</g>
<!-- n5 -->
<!-- n6 -->
<g id="node7" class="node">
<title>n6</title>
<text text-anchor="start" x="236" y="-86.3" font-family="Times,serif" font-size="14.00">→</text>
</g>
<!-- n5&#45;&gt;n6 -->
<!-- n7 -->
<g id="node8" class="node">
<title>n7</title>
<text text-anchor="middle" x="351" y="-158.3" font-family="Times,serif" font-size="14.00">A</text>
</g>
<!-- n8 -->
<g id="node9" class="node">
<title>n8</title>
<text text-anchor="middle" x="315" y="-86.3" font-family="Times,serif" font-size="14.00">a</text>
</g>
<!-- n7&#45;&gt;n8 -->
<g id="edge6" class="edge">
<title>n7&#45;&gt;n8</title>
<path fill="none" stroke="black" d="M342.1,-143.7C336.52,-132.85 329.36,-118.92 323.8,-108.1"/>
</g>
<!-- n9 -->
<g id="node10" class="node">
<title>n9</title>
<text text-anchor="middle" x="387" y="-86.3" font-family="Times,serif" font-size="14.00">b</text>
</g>
<!-- n7&#45;&gt;n9 -->
<g id="edge7" class="edge">
<title>n7&#45;&gt;n9</title>
<path fill="none" stroke="black" d="M359.9,-143.7C365.48,-132.85 372.64,-118.92 378.2,-108.1"/>
</g>
</g>
</svg>
