<?xml version="1.0" encoding="UTF-8" standalone="no"?>
<!DOCTYPE svg PUBLIC "-//W3C//DTD SVG 1.1//EN"
 "http://www.w3.org/Graphics/SVG/1.1/DTD/svg11.dtd">
<!-- Generated by graphviz version 2.47.0 (20210316.0004)
 -->
<!-- Title: tree Pages: 1 -->
<svg width="864pt" height="397pt"
 viewBox="0.00 0.00 864.00 396.89" xmlns="http://www.w3.org/2000/svg" xmlns:xlink="http://www.w3.org/1999/xlink">
<g id="graph0" class="graph" transform="scale(1.53 1.53) rotate(0) translate(4 256)">
<title>tree</title>
<polygon fill="white" stroke="transparent" points="-4,4 -4,-256 562,-256 562,4 -4,4"/>
<!-- n0 -->
<g id="node1" class="node">
<title>n0</title>
<text text-anchor="middle" x="99" y="-230.3" font-family="Times,serif" font-size="14.00">E</text>
</g>
<!-- n1 -->
<g id="node2" class="node">
<title>n1</title>
<text text-anchor="middle" x="27" y="-158.3" font-family="Times,serif" font-size="14.00">E</text>
</g>
<!-- n0&#45;&gt;n1 -->
<g id="edge1" class="edge">
<title>n0&#45;&gt;n1</title>
<path fill="none" stroke="black" d="M81.2,-215.7C70.04,-204.85 55.71,-190.92 44.59,-180.1"/>
</g>
<!-- n2 -->
<g id="node3" class="node">
<title>n2</title>
<text text-anchor="middle" x="99" y="-158.3" font-family="Times,serif" font-size="14.00">+</text>
</g>
<!-- n0&#45;&gt;n2 -->
<g id="edge2" class="edge">
<title>n0&#45;&gt;n2</title>
<path fill="none" stroke="black" d="M99,-215.7C99,-204.85 99,-190.92 99,-180.1"/>
</g>
<!-- n3 -->
<g id="node4" class="node">
<title>n3</title>
<text text-anchor="middle" x="171" y="-158.3" font-family="Times,serif" font-size="14.00">E</text>
</g>
<!-- n0&#45;&gt;n3 -->
<g id="edge3" class="edge">
<title>n0&#45;&gt;n3</title>
<path fill="none" stroke="black" d="M116.8,-215.7C127.96,-204.85 142.29,-190.92 153.41,-180.1"/>
</g>
<!-- n4 -->
<g id="node5" class="node">
<title>n4</title>
<text text-anchor="middle" x="27" y="-86.3" font-family="Times,serif" font-size="14.00">id</text>
</g>
<!-- n1&#45;&gt;n4 -->
<g id="edge4" class="edge">
<title>n1&#45;&gt;n4</title>
<path fill="none" stroke="black" d="M27,-143.7C27,-132.85 27,-118.92 27,-108.1"/>
</g>
<!-- n5 -->
<g id="node6" class="node">
<title>n5</title>
<text text-anchor="middle" x="99" y="-86.3" font-family="Times,serif" font-size="14.00">E</text>
</g>
<!-- n3&#45;&gt;n5 -->
<g id="edge5" class="edge">
<title>n3&#45;&gt;n5</title>
<path fill="none" stroke="black" d="M153.2,-143.7C142.04,-132.85 127.71,-118.92 116.59,-108.1"/>
</g>
<!-- n6 -->
<g id="node7" class="node">
<title>n6</title>
<text text-anchor="middle" x="171" y="-86.3" font-family="Times,serif" font-size="14.00">*</text>
</g>
<!-- n3&#45;&gt;n6 -->
<g id="edge6" class="edge">
<title>n3&#45;&gt;n6</title>
<path fill="none" stroke="black" d="M171,-143.7C171,-132.85 171,-118.92 171,-108.1"/>
</g>
<!-- n7 -->
<g id="node8" class="node">
<title>n7</title>
<text text-anchor="middle" x="243" y="-86.3" font-family="Times,serif" font-size="14.00">E</text>
</g>
<!-- n3&#45;&gt;n7 -->
<g id="edge7" class="edge">
<title>n3&#45;&gt;n7</title>
<path fill="none" stroke="black" d="M188.8,-143.7C199.96,-132.85 214.29,-118.92 225.41,-108.1"/>
</g>
<!-- n8 -->
<g id="node9" class="node">
<title>n8</title>
<text text-anchor="middle" x="99" y="-14.3" font-family="Times,serif" font-size="14.00">id</text>
</g>
<!-- n5&#45;&gt;n8 -->
<g id="edge8" class="edge">
<title>n5&#45;&gt;n8</title>
<path fill="none" stroke="black" d="M99,-71.7C99,-60.85 99,-46.92 99,-36.1"/>
</g>
<!-- n9 -->
<g id="node10" class="node">
<title>n9</title>
<text text-anchor="middle" x="243" y="-14.3" font-family="Times,serif" font-size="14.00">id</text>
</g>
<!-- n7&#45;&gt;n9 -->
<g id="edge9" class="edge">
<title>n7&#45;&gt;n9</title>
<path fill="none" stroke="black" d="M243,-71.7C243,-60.85 243,-46.92 243,-36.1"/>
</g>
<!-- n10 -->
<g id="node11" class="node">
<title>n10</title>
<text text-anchor="middle" x="459" y="-230.3" font-family="Times,serif" font-size="14.00">E</text>
</g>
<!-- n11 -->
<g id="node12" class="node">
<title>n11</title>
<text text-anchor="middle" x="387" y="-158.3" font-family="Times,serif" font-size="14.00">E</text>
</g>
<!-- n10&#45;&gt;n11 -->
<g id="edge10" class="edge">
<title>n10&#45;&gt;n11</title>
<path fill="none" stroke="black" d="M441.2,-215.7C430.04,-204.85 415.71,-190.92 404.59,-180.1"/>
</g>
<!-- n12 -->
<g id="node13" class="node">
<title>n12</title>
<text text-anchor="middle" x="459" y="-158.3" font-family="Times,serif" font-size="14.00">*</text>
</g>
<!-- n10&#45;&gt;n12 -->
<g id="edge11" class="edge">
<title>n10&#45;&gt;n12</title>
<path fill="none" stroke="black" d="M459,-215.7C459,-204.85 459,-190.92 459,-180.1"/>
</g>
<!-- n13 -->
<g id="node14" class="node">
<title>n13</title>
<text text-anchor="middle" x="531" y="-158.3" font-family="Times,serif" font-size="14.00">E</text>
</g>
<!-- n10&#45;&gt;n13 -->
<g id="edge12" class="edge">
<title>n10&#45;&gt;n13</title>
<path fill="none" stroke="black" d="M476.8,-215.7C487.96,-204.85 502.29,-190.92 513.41,-180.1"/>
</g>
<!-- n14 -->
<g id="node15" class="node">
<title>n14</title>
<text text-anchor="middle" x="315" y="-86.3" font-family="Times,serif" font-size="14.00">E</text>
</g>
<!-- n11&#45;&gt;n14 -->
<g id="edge13" class="edge">
<title>n11&#45;&gt;n14</title>
<path fill="none" stroke="black" d="M369.2,-143.7C358.04,-132.85 343.71,-118.92 332.59,-108.1"/>
</g>
<!-- n15 -->
<g id="node16" class="node">
<title>n15</title>
<text text-anchor="middle" x="387" y="-86.3" font-family="Times,serif" font-size="14.00">+</text>
</g>
<!-- n11&#45;&gt;n15 -->
<g id="edge14" class="edge">
<title>n11&#45;&gt;n15</title>
<path fill="none" stroke="black" d="M387,-143.7C387,-132.85 387,-118.92 387,-108.1"/>
</g>
<!-- n16 -->
<g id="node17" class="node">
<title>n16</title>
<text text-anchor="middle" x="459" y="-86.3" font-family="Times,serif" font-size="14.00">E</text>
</g>
<!-- n11&#45;&gt;n16 -->
<g id="edge15" class="edge">
<title>n11&#45;&gt;n16</title>
<path fill="none" stroke="black" d="M404.8,-143.7C415.96,-132.85 430.29,-118.92 441.41,-108.1"/>
</g>
<!-- n17 -->
<g id="node18" class="node">
<title>n17</title>
<text text-anchor="middle" x="531" y="-86.3" font-family="Times,serif" font-size="14.00">id</text>
</g>
<!-- n13&#45;&gt;n17 -->
<g id="edge16" class="edge">
<title>n13&#45;&gt;n17</title>
<path fill="none" stroke="black" d="M531,-143.7C531,-132.85 531,-118.92 531,-108.1"/>
</g>
<!-- n18 -->
<g id="node19" class="node">
<title>n18</title>
<text text-anchor="middle" x="315" y="-14.3" font-family="Times,serif" font-size="14.00">id</text>
</g>
<!-- n14&#45;&gt;n18 -->
<g id="edge17" class="edge">
<title>n14&#45;&gt;n18</title>
<path fill="none" stroke="black" d="M315,-71.7C315,-60.85 315,-46.92 315,-36.1"/>
</g>
<!-- n19 -->
<g id="node20" class="node">
<title>n19</title>
<text text-anchor="middle" x="459" y="-14.3" font-family="Times,serif" font-size="14.00">id</text>
</g>
<!-- n16&#45;&gt;n19 -->
<g id="edge18" class="edge">
<title>n16&#45;&gt;n19</title>
<path fill="none" stroke="black" d="M459,-71.7C459,-60.85 459,-46.92 459,-36.1"/>
</g>
</g>
</svg>
