<?xml version="1.0" encoding="UTF-8" standalone="no"?>
<!DOCTYPE svg PUBLIC "-//W3C//DTD SVG 1.1//EN"
 "http://www.w3.org/Graphics/SVG/1.1/DTD/svg11.dtd">
<!-- Generated by graphviz version 2.47.0 (20210316.0004)
 -->
<!-- Title: tree Pages: 1 -->
<svg width="864pt" height="255pt"
 viewBox="0.00 0.00 864.00 254.60" xmlns="http://www.w3.org/2000/svg" xmlns:xlink="http://www.w3.org/1999/xlink">
<g id="graph0" class="graph" transform="scale(1.35 1.35) rotate(0) translate(4 184)">
<title>tree</title>
<polygon fill="white" stroke="transparent" points="-4,4 -4,-184 634,-184 634,4 -4,4"/>
<!-- n0 -->
<g id="node1" class="node">
<title>n0</title>
<text text-anchor="middle" x="99" y="-158.3" font-family="Times,serif" font-size="14.00">S</text>
</g>
<!-- n1 -->
<g id="node2" class="node">
<title>n1</title>
<text text-anchor="middle" x="27" y="-86.3" font-family="Times,serif" font-size="14.00">c</text>
</g>
<!-- n0&#45;&gt;n1 -->
<g id="edge1" class="edge">
<title>n0&#45;&gt;n1</title>
<path fill="none" stroke="black" d="M81.2,-143.7C70.04,-132.85 55.71,-118.92 44.59,-108.1"/>
</g>
<!-- n2 -->
<g id="node3" class="node">
<title>n2</title>
<text text-anchor="middle" x="99" y="-86.3" font-family="Times,serif" font-size="14.00">A</text>
</g>
<!-- n0&#45;&gt;n2 -->
<g id="edge2" class="edge">
<title>n0&#45;&gt;n2</title>
<path fill="none" stroke="black" d="M99,-143.7C99,-132.85 99,-118.92 99,-108.1"/>
</g>
<!-- n3 -->
<g id="node4" class="node">
<title>n3</title>
<text text-anchor="middle" x="171" y="-86.3" font-family="Times,serif" font-size="14.00">d</text>
</g>
<!-- n0&#45;&gt;n3 -->
<g id="edge3" class="edge">
<title>n0&#45;&gt;n3</title>
<path fill="none" stroke="black" d="M116.8,-143.7C127.96,-132.85 142.29,-118.92 153.41,-108.1"/>
</g>
<!-- n4 -->
<g id="node5" class="node">
<title>n4</title>
<text text-anchor="middle" x="315" y="-158.3" font-family="Times,serif" font-size="14.00">S</text>
</g>
<!-- n5 -->
<g id="node6" class="node">
<title>n5</title>
<text text-anchor="middle" x="243" y="-86.3" font-family="Times,serif" font-size="14.00">c</text>
</g>
<!-- n4&#45;&gt;n5 -->
<g id="edge4" class="edge">
<title>n4&#45;&gt;n5</title>
<path fill="none" stroke="black" d="M297.2,-143.7C286.04,-132.85 271.71,-118.92 260.59,-108.1"/>
</g>
<!-- n6 -->
<g id="node7" class="node">
<title>n6</title>
<text text-anchor="middle" x="315" y="-86.3" font-family="Times,serif" font-size="14.00">A</text>
</g>
<!-- n4&#45;&gt;n6 -->
<g id="edge5" class="edge">
<title>n4&#45;&gt;n6</title>
<path fill="none" stroke="black" d="M315,-143.7C315,-132.85 315,-118.92 315,-108.1"/>
</g>
<!-- n7 -->
<g id="node8" class="node">
<title>n7</title>
<text text-anchor="middle" x="387" y="-86.3" font-family="Times,serif" font-size="14.00">d</text>
</g>
<!-- n4&#45;&gt;n7 -->
<g id="edge6" class="edge">
<title>n4&#45;&gt;n7</title>
<path fill="none" stroke="black" d="M332.8,-143.7C343.96,-132.85 358.29,-118.92 369.41,-108.1"/>
</g>
<!-- n8 -->
<g id="node9" class="node">
<title>n8</title>
<text text-anchor="middle" x="279" y="-14.3" font-family="Times,serif" font-size="14.00">a</text>
</g>
<!-- n6&#45;&gt;n8 -->
<g id="edge7" class="edge">
<title>n6&#45;&gt;n8</title>
<path fill="none" stroke="black" d="M306.1,-71.7C300.52,-60.85 293.36,-46.92 287.8,-36.1"/>
</g>
<!-- n9 -->
<g id="node10" class="node">
<title>n9</title>
<text text-anchor="middle" x="351" y="-14.3" font-family="Times,serif" font-size="14.00">b</text>
</g>
<!-- n6&#45;&gt;n9 -->
<g id="edge8" class="edge">
<title>n6&#45;&gt;n9</title>
<path fill="none" stroke="black" d="M323.9,-71.7C329.48,-60.85 336.64,-46.92 342.2,-36.1"/>
</g>
<!-- n10 -->
<g id="node11" class="node">
<title>n10</title>
<text text-anchor="middle" x="531" y="-158.3" font-family="Times,serif" font-size="14.00">S</text>
</g>
<!-- n11 -->
<g id="node12" class="node">
<title>n11</title>
<text text-anchor="middle" x="459" y="-86.3" font-family="Times,serif" font-size="14.00">c</text>
</g>
<!-- n10&#45;&gt;n11 -->
<g id="edge9" class="edge">
<title>n10&#45;&gt;n11</title>
<path fill="none" stroke="black" d="M513.2,-143.7C502.04,-132.85 487.71,-118.92 476.59,-108.1"/>
</g>
<!-- n12 -->
<g id="node13" class="node">
<title>n12</title>
<text text-anchor="middle" x="531" y="-86.3" font-family="Times,serif" font-size="14.00">A</text>
</g>
<!-- n10&#45;&gt;n12 -->
<g id="edge10" class="edge">
<title>n10&#45;&gt;n12</title>
<path fill="none" stroke="black" d="M531,-143.7C531,-132.85 531,-118.92 531,-108.1"/>
</g>
<!-- n13 -->
<g id="node14" class="node">
<title>n13</title>
<text text-anchor="middle" x="603" y="-86.3" font-family="Times,serif" font-size="14.00">d</text>
</g>
<!-- n10&#45;&gt;n13 -->
<g id="edge11" class="edge">
<title>n10&#45;&gt;n13</title>
<path fill="none" stroke="black" d="M548.8,-143.7C559.96,-132.85 574.29,-118.92 585.41,-108.1"/>
</g>
<!-- n14 -->
<g id="node15" class="node">
<title>n14</title>
<text text-anchor="middle" x="531" y="-14.3" font-family="Times,serif" font-size="14.00">a</text>
</g>
<!-- n12&#45;&gt;n14 -->
<g id="edge12" class="edge">
<title>n12&#45;&gt;n14</title>
<path fill="none" stroke="black" d="M531,-71.7C531,-60.85 531,-46.92 531,-36.1"/>
</g>
</g>
</svg>
