<?xml version="1.0" encoding="UTF-8" standalone="no"?>
<!DOCTYPE svg PUBLIC "-//W3C//DTD SVG 1.1//EN"
 "http://www.w3.org/Graphics/SVG/1.1/DTD/svg11.dtd">
<!-- Generated by graphviz version 2.47.0 (20210316.0004)
 -->
<!-- Title: finite_state_machine Pages: 1 -->
<svg width="864pt" height="147pt"
 viewBox="0.00 0.00 864.00 146.75" xmlns="http://www.w3.org/2000/svg" xmlns:xlink="http://www.w3.org/1999/xlink">
<g id="graph0" class="graph" transform="scale(1.83 1.83) rotate(0) translate(4 76)">
<title>finite_state_machine</title>
<polygon fill="white" stroke="transparent" points="-4,4 -4,-76 467,-76 467,4 -4,4"/>
<!-- S -->
<!-- 1 -->
<g id="node4" class="node">
<title>1</title>
<ellipse fill="none" stroke="black" cx="109" cy="-22" rx="18" ry="18"/>
<text text-anchor="middle" x="109" y="-18.3" font-family="Times,serif" font-size="14.00">1</text>
</g>
<!-- S&#45;&gt;1 -->
<g id="edge1" class="edge">
<title>S&#45;&gt;1</title>
<path fill="none" stroke="black" d="M54.19,-22C62.65,-22 72.05,-22 80.6,-22"/>
<polygon fill="black" stroke="black" points="80.83,-25.5 90.83,-22 80.83,-18.5 80.83,-25.5"/>
</g>
<!-- E -->
<!-- 4 -->
<g id="node3" class="node">
<title>4</title>
<ellipse fill="none" stroke="black" cx="350" cy="-22" rx="18" ry="18"/>
<ellipse fill="none" stroke="black" cx="350" cy="-22" rx="22" ry="22"/>
<text text-anchor="middle" x="350" y="-18.3" font-family="Times,serif" font-size="14.00">4</text>
</g>
<!-- 4&#45;&gt;E -->
<!-- 1&#45;&gt;4 -->
<g id="edge6" class="edge">
<title>1&#45;&gt;4</title>
<path fill="none" stroke="black" d="M124.59,-31.25C136.32,-38.01 153.52,-46.43 170,-49 231.58,-58.61 252.16,-64.21 310,-41 313.56,-39.57 317.26,-37.96 320.88,-36.29"/>
<polygon fill="black" stroke="black" points="322.69,-39.3 330.2,-31.83 319.67,-32.99 322.69,-39.3"/>
<text text-anchor="middle" x="227.5" y="-60.8" font-family="Times,serif" font-size="14.00">ε</text>
</g>
<!-- 2 -->
<g id="node5" class="node">
<title>2</title>
<ellipse fill="none" stroke="black" cx="188" cy="-22" rx="18" ry="18"/>
<text text-anchor="middle" x="188" y="-18.3" font-family="Times,serif" font-size="14.00">2</text>
</g>
<!-- 1&#45;&gt;2 -->
<g id="edge2" class="edge">
<title>1&#45;&gt;2</title>
<path fill="none" stroke="black" d="M127.09,-22C136.66,-22 148.82,-22 159.68,-22"/>
<polygon fill="black" stroke="black" points="159.96,-25.5 169.96,-22 159.96,-18.5 159.96,-25.5"/>
<text text-anchor="middle" x="148.5" y="-25.8" font-family="Times,serif" font-size="14.00">ε</text>
</g>
<!-- 3 -->
<g id="node6" class="node">
<title>3</title>
<ellipse fill="none" stroke="black" cx="267" cy="-22" rx="18" ry="18"/>
<text text-anchor="middle" x="267" y="-18.3" font-family="Times,serif" font-size="14.00">3</text>
</g>
<!-- 2&#45;&gt;3 -->
<g id="edge3" class="edge">
<title>2&#45;&gt;3</title>
<path fill="none" stroke="black" d="M206.09,-22C215.66,-22 227.82,-22 238.68,-22"/>
<polygon fill="black" stroke="black" points="238.96,-25.5 248.96,-22 238.96,-18.5 238.96,-25.5"/>
<text text-anchor="middle" x="227.5" y="-25.8" font-family="Times,serif" font-size="14.00">a</text>
</g>
<!-- 3&#45;&gt;4 -->
<g id="edge4" class="edge">
<title>3&#45;&gt;4</title>
<path fill="none" stroke="black" d="M285.18,-22C294.61,-22 306.6,-22 317.64,-22"/>
<polygon fill="black" stroke="black" points="317.81,-25.5 327.81,-22 317.81,-18.5 317.81,-25.5"/>
<text text-anchor="middle" x="306.5" y="-25.8" font-family="Times,serif" font-size="14.00">ε</text>
</g>
<!-- 3&#45;&gt;2 -->
<g id="edge7" class="edge">
<title>3&#45;&gt;2</title>
<path fill="none" stroke="black" d="M252.82,-10.86C244.76,-5.38 234.08,-0.44 224,-3 220.04,-4.01 216.05,-5.56 212.24,-7.35"/>
<polygon fill="black" stroke="black" points="210.48,-4.33 203.31,-12.13 213.78,-10.5 210.48,-4.33"/>
<text text-anchor="middle" x="227.5" y="-6.8" font-family="Times,serif" font-size="14.00">ε</text>
</g>
</g>
</svg>
