<?xml version="1.0" encoding="UTF-8" standalone="no"?>
<!DOCTYPE svg PUBLIC "-//W3C//DTD SVG 1.1//EN"
 "http://www.w3.org/Graphics/SVG/1.1/DTD/svg11.dtd">
<!-- Generated by graphviz version 2.47.0 (20210316.0004)
 -->
<!-- Title: finite_state_machine Pages: 1 -->
<svg width="864pt" height="556pt"
 viewBox="0.00 0.00 864.00 555.65" xmlns="http://www.w3.org/2000/svg" xmlns:xlink="http://www.w3.org/1999/xlink">
<g id="graph0" class="graph" transform="scale(3.05 3.05) rotate(0) translate(4 178)">
<title>finite_state_machine</title>
<polygon fill="white" stroke="transparent" points="-4,4 -4,-178 279,-178 279,4 -4,4"/>
<g id="clust2" class="cluster">
<title>cluster_2</title>
<path fill="none" stroke="black" d="M83,-8C83,-8 184,-8 184,-8 190,-8 196,-14 196,-20 196,-20 196,-71 196,-71 196,-77 190,-83 184,-83 184,-83 83,-83 83,-83 77,-83 71,-77 71,-71 71,-71 71,-20 71,-20 71,-14 77,-8 83,-8"/>
<text text-anchor="middle" x="133.5" y="-67.8" font-family="Times,serif" font-size="14.00">B</text>
</g>
<g id="clust1" class="cluster">
<title>cluster_0</title>
<path fill="none" stroke="black" d="M83,-91C83,-91 184,-91 184,-91 190,-91 196,-97 196,-103 196,-103 196,-154 196,-154 196,-160 190,-166 184,-166 184,-166 83,-166 83,-166 77,-166 71,-160 71,-154 71,-154 71,-103 71,-103 71,-97 77,-91 83,-91"/>
<text text-anchor="middle" x="133.5" y="-150.8" font-family="Times,serif" font-size="14.00">A</text>
</g>
<!-- E -->
<g id="node1" class="node">
<title>E</title>
<ellipse fill="none" stroke="black" cx="253" cy="-80" rx="18" ry="18"/>
<ellipse fill="none" stroke="black" cx="253" cy="-80" rx="22" ry="22"/>
</g>
<!-- n0 -->
<g id="node2" class="node">
<title>n0</title>
<ellipse fill="none" stroke="black" cx="97" cy="-117" rx="18" ry="18"/>
</g>
<!-- n1 -->
<g id="node3" class="node">
<title>n1</title>
<ellipse fill="none" stroke="black" cx="170" cy="-117" rx="18" ry="18"/>
</g>
<!-- n0&#45;&gt;n1 -->
<g id="edge1" class="edge">
<title>n0&#45;&gt;n1</title>
<path fill="none" stroke="black" stroke-dasharray="5,2" d="M115.19,-117C123.21,-117 132.95,-117 141.93,-117"/>
<polygon fill="black" stroke="black" points="141.97,-120.5 151.97,-117 141.97,-113.5 141.97,-120.5"/>
</g>
<!-- n1&#45;&gt;E -->
<g id="edge5" class="edge">
<title>n1&#45;&gt;E</title>
<path fill="none" stroke="black" d="M186.62,-109.87C196.99,-105.13 210.92,-98.76 223.26,-93.13"/>
<polygon fill="black" stroke="black" points="225.07,-96.15 232.71,-88.81 222.16,-89.78 225.07,-96.15"/>
<text text-anchor="middle" x="209.5" y="-103.8" font-family="Times,serif" font-size="14.00">ε</text>
</g>
<!-- n2 -->
<g id="node4" class="node">
<title>n2</title>
<ellipse fill="none" stroke="black" cx="97" cy="-34" rx="18" ry="18"/>
</g>
<!-- n3 -->
<g id="node5" class="node">
<title>n3</title>
<ellipse fill="none" stroke="black" cx="170" cy="-34" rx="18" ry="18"/>
</g>
<!-- n2&#45;&gt;n3 -->
<g id="edge2" class="edge">
<title>n2&#45;&gt;n3</title>
<path fill="none" stroke="black" stroke-dasharray="5,2" d="M115.19,-34C123.21,-34 132.95,-34 141.93,-34"/>
<polygon fill="black" stroke="black" points="141.97,-37.5 151.97,-34 141.97,-30.5 141.97,-37.5"/>
</g>
<!-- n3&#45;&gt;E -->
<g id="edge6" class="edge">
<title>n3&#45;&gt;E</title>
<path fill="none" stroke="black" d="M186.24,-42.65C197,-48.77 211.74,-57.14 224.53,-64.4"/>
<polygon fill="black" stroke="black" points="223,-67.55 233.42,-69.45 226.45,-61.47 223,-67.55"/>
<text text-anchor="middle" x="209.5" y="-60.8" font-family="Times,serif" font-size="14.00">ε</text>
</g>
<!-- S -->
<g id="node6" class="node">
<title>S</title>
<ellipse fill="none" stroke="black" cx="18" cy="-75" rx="18" ry="18"/>
</g>
<!-- S&#45;&gt;n0 -->
<g id="edge3" class="edge">
<title>S&#45;&gt;n0</title>
<path fill="none" stroke="black" d="M34.21,-83.3C44.97,-89.17 59.61,-97.15 71.94,-103.88"/>
<polygon fill="black" stroke="black" points="70.36,-107 80.82,-108.72 73.72,-100.86 70.36,-107"/>
<text text-anchor="middle" x="57.5" y="-100.8" font-family="Times,serif" font-size="14.00">ε</text>
</g>
<!-- S&#45;&gt;n2 -->
<g id="edge4" class="edge">
<title>S&#45;&gt;n2</title>
<path fill="none" stroke="black" d="M34.21,-66.9C44.97,-61.17 59.61,-53.38 71.94,-46.81"/>
<polygon fill="black" stroke="black" points="73.64,-49.87 80.82,-42.08 70.35,-43.69 73.64,-49.87"/>
<text text-anchor="middle" x="57.5" y="-58.8" font-family="Times,serif" font-size="14.00">ε</text>
</g>
</g>
</svg>
