<?xml version="1.0" encoding="UTF-8" standalone="no"?>
<!DOCTYPE svg PUBLIC "-//W3C//DTD SVG 1.1//EN"
 "http://www.w3.org/Graphics/SVG/1.1/DTD/svg11.dtd">
<!-- Generated by graphviz version 2.47.0 (20210316.0004)
 -->
<!-- Title: finite_state_machine Pages: 1 -->
<svg width="864pt" height="315pt"
 viewBox="0.00 0.00 864.00 314.68" xmlns="http://www.w3.org/2000/svg" xmlns:xlink="http://www.w3.org/1999/xlink">
<g id="graph0" class="graph" transform="scale(2.76 2.76) rotate(0) translate(4 110)">
<title>finite_state_machine</title>
<polygon fill="white" stroke="transparent" points="-4,4 -4,-110 309,-110 309,4 -4,4"/>
<!-- S0 -->
<!-- n0 -->
<g id="node7" class="node">
<title>n0</title>
<ellipse fill="none" stroke="black" cx="109" cy="-22" rx="18" ry="18"/>
</g>
<!-- S0&#45;&gt;n0 -->
<g id="edge1" class="edge">
<title>S0&#45;&gt;n0</title>
<path fill="none" stroke="black" d="M54.19,-22C62.65,-22 72.05,-22 80.6,-22"/>
<polygon fill="black" stroke="black" points="80.83,-25.5 90.83,-22 80.83,-18.5 80.83,-25.5"/>
</g>
<!-- S1 -->
<!-- n2 -->
<g id="node8" class="node">
<title>n2</title>
<ellipse fill="none" stroke="black" cx="109" cy="-84" rx="18" ry="18"/>
</g>
<!-- S1&#45;&gt;n2 -->
<g id="edge4" class="edge">
<title>S1&#45;&gt;n2</title>
<path fill="none" stroke="black" d="M54.19,-84C62.65,-84 72.05,-84 80.6,-84"/>
<polygon fill="black" stroke="black" points="80.83,-87.5 90.83,-84 80.83,-80.5 80.83,-87.5"/>
</g>
<!-- E0 -->
<!-- E1 -->
<!-- n1 -->
<g id="node5" class="node">
<title>n1</title>
<ellipse fill="none" stroke="black" cx="192" cy="-22" rx="18" ry="18"/>
<ellipse fill="none" stroke="black" cx="192" cy="-22" rx="22" ry="22"/>
</g>
<!-- n1&#45;&gt;E0 -->
<!-- n3 -->
<g id="node6" class="node">
<title>n3</title>
<ellipse fill="none" stroke="black" cx="192" cy="-84" rx="18" ry="18"/>
<ellipse fill="none" stroke="black" cx="192" cy="-84" rx="22" ry="22"/>
</g>
<!-- n3&#45;&gt;E1 -->
<!-- n0&#45;&gt;n1 -->
<g id="edge2" class="edge">
<title>n0&#45;&gt;n1</title>
<path fill="none" stroke="black" d="M127.18,-22C136.61,-22 148.6,-22 159.64,-22"/>
<polygon fill="black" stroke="black" points="159.81,-25.5 169.81,-22 159.81,-18.5 159.81,-25.5"/>
<text text-anchor="middle" x="148.5" y="-25.8" font-family="Times,serif" font-size="14.00">a</text>
</g>
<!-- n2&#45;&gt;n3 -->
<g id="edge5" class="edge">
<title>n2&#45;&gt;n3</title>
<path fill="none" stroke="black" d="M127.18,-84C136.61,-84 148.6,-84 159.64,-84"/>
<polygon fill="black" stroke="black" points="159.81,-87.5 169.81,-84 159.81,-80.5 159.81,-87.5"/>
<text text-anchor="middle" x="148.5" y="-87.8" font-family="Times,serif" font-size="14.00">ε</text>
</g>
</g>
</svg>
