<?xml version="1.0" encoding="UTF-8" standalone="no"?>
<!DOCTYPE svg PUBLIC "-//W3C//DTD SVG 1.1//EN"
 "http://www.w3.org/Graphics/SVG/1.1/DTD/svg11.dtd">
<!-- Generated by graphviz version 2.47.0 (20210316.0004)
 -->
<!-- Title: finite_state_machine Pages: 1 -->
<svg width="432pt" height="205pt"
 viewBox="0.00 0.00 432.00 205.31" xmlns="http://www.w3.org/2000/svg" xmlns:xlink="http://www.w3.org/1999/xlink">
<g id="graph0" class="graph" transform="scale(2.14 2.14) rotate(0) translate(4 92)">
<title>finite_state_machine</title>
<polygon fill="white" stroke="transparent" points="-4,4 -4,-92 198,-92 198,4 -4,4"/>
<!-- E -->
<g id="node1" class="node">
<title>E</title>
<ellipse fill="lightgrey" stroke="black" cx="18" cy="-18" rx="18" ry="18"/>
<text text-anchor="middle" x="18" y="-14.3" font-family="Times,serif" font-size="14.00">E</text>
</g>
<!-- A -->
<g id="node2" class="node">
<title>A</title>
<ellipse fill="none" stroke="black" cx="97" cy="-56" rx="18" ry="18"/>
<text text-anchor="middle" x="97" y="-52.3" font-family="Times,serif" font-size="14.00">A</text>
</g>
<!-- E&#45;&gt;A -->
<g id="edge6" class="edge">
<title>E&#45;&gt;A</title>
<path fill="none" stroke="black" d="M34.58,-25.69C45.12,-30.89 59.27,-37.87 71.33,-43.82"/>
<polygon fill="black" stroke="black" points="69.92,-47.03 80.44,-48.32 73.02,-40.76 69.92,-47.03"/>
<text text-anchor="middle" x="57.5" y="-41.8" font-family="Times,serif" font-size="14.00">ε</text>
</g>
<!-- A&#45;&gt;E -->
<g id="edge5" class="edge">
<title>A&#45;&gt;E</title>
<path fill="none" stroke="black" d="M86.54,-41.33C80.36,-33.14 71.5,-23.67 61,-19 56.41,-16.96 51.25,-15.94 46.16,-15.55"/>
<polygon fill="black" stroke="black" points="46.03,-12.05 36.01,-15.49 45.99,-19.05 46.03,-12.05"/>
<text text-anchor="middle" x="57.5" y="-22.8" font-family="Times,serif" font-size="14.00">ε</text>
</g>
<!-- B -->
<g id="node3" class="node">
<title>B</title>
<ellipse fill="none" stroke="black" cx="176" cy="-37" rx="18" ry="18"/>
<text text-anchor="middle" x="176" y="-33.3" font-family="Times,serif" font-size="14.00">B</text>
</g>
<!-- A&#45;&gt;B -->
<g id="edge1" class="edge">
<title>A&#45;&gt;B</title>
<path fill="none" stroke="black" d="M111.7,-66.63C119.94,-71.7 130.63,-75.88 140,-72 146.83,-69.17 153.02,-64.29 158.23,-59.06"/>
<polygon fill="black" stroke="black" points="161.07,-61.13 165.12,-51.34 155.85,-56.47 161.07,-61.13"/>
<text text-anchor="middle" x="136.5" y="-76.8" font-family="Times,serif" font-size="14.00">a</text>
</g>
<!-- A&#45;&gt;B -->
<g id="edge2" class="edge">
<title>A&#45;&gt;B</title>
<path fill="none" stroke="black" d="M114.71,-51.88C124.6,-49.44 137.34,-46.29 148.57,-43.52"/>
<polygon fill="black" stroke="black" points="149.45,-46.91 158.32,-41.11 147.78,-40.11 149.45,-46.91"/>
<text text-anchor="middle" x="136.5" y="-50.8" font-family="Times,serif" font-size="14.00">ε</text>
</g>
<!-- A&#45;&gt;B -->
<g id="edge3" class="edge">
<title>A&#45;&gt;B</title>
<path fill="none" stroke="black" d="M109.2,-42.73C115.46,-36.36 123.84,-29.39 133,-26 138.48,-23.97 144.49,-24.18 150.21,-25.46"/>
<polygon fill="black" stroke="black" points="149.42,-28.88 160.01,-28.66 151.59,-22.23 149.42,-28.88"/>
<text text-anchor="middle" x="136.5" y="-29.8" font-family="Times,serif" font-size="14.00">b</text>
</g>
<!-- B&#45;&gt;E -->
<g id="edge4" class="edge">
<title>B&#45;&gt;E</title>
<path fill="none" stroke="black" d="M159.63,-28.64C153.63,-25.62 146.61,-22.37 140,-20 103.86,-7.06 92.25,-8.75 54,-12 51.42,-12.22 48.74,-12.53 46.07,-12.89"/>
<polygon fill="black" stroke="black" points="45.34,-9.46 36.02,-14.49 46.44,-16.38 45.34,-9.46"/>
<text text-anchor="middle" x="97" y="-15.8" font-family="Times,serif" font-size="14.00">c</text>
</g>
</g>
</svg>
