<?xml version="1.0" encoding="UTF-8" standalone="no"?>
<!DOCTYPE svg PUBLIC "-//W3C//DTD SVG 1.1//EN"
 "http://www.w3.org/Graphics/SVG/1.1/DTD/svg11.dtd">
<!-- Generated by graphviz version 2.47.0 (20210316.0004)
 -->
<!-- Title: finite_state_machine Pages: 1 -->
<svg width="864pt" height="501pt"
 viewBox="0.00 0.00 864.00 501.30" xmlns="http://www.w3.org/2000/svg" xmlns:xlink="http://www.w3.org/1999/xlink">
<g id="graph0" class="graph" transform="scale(2.47 2.47) rotate(0) translate(4 198.95)">
<title>finite_state_machine</title>
<polygon fill="white" stroke="transparent" points="-4,4 -4,-198.95 345.79,-198.95 345.79,4 -4,4"/>
<!-- n2 -->
<g id="node1" class="node">
<title>n2</title>
<ellipse fill="none" stroke="black" cx="27" cy="-104" rx="20.63" ry="20.63"/>
<ellipse fill="none" stroke="black" cx="27" cy="-104" rx="24.6" ry="24.6"/>
<text text-anchor="middle" x="27" y="-100.3" font-family="Times,serif" font-size="14.00">[g]</text>
</g>
<!-- n2&#45;&gt;n2 -->
<g id="edge7" class="edge">
<title>n2&#45;&gt;n2</title>
<path fill="none" stroke="black" d="M18.14,-127.33C17.3,-137.77 20.25,-146.8 27,-146.8 31.32,-146.8 34.09,-143.09 35.3,-137.69"/>
<polygon fill="black" stroke="black" points="38.81,-137.51 35.86,-127.33 31.82,-137.13 38.81,-137.51"/>
<text text-anchor="middle" x="27" y="-150.6" font-family="Times,serif" font-size="14.00">0</text>
</g>
<!-- n0 -->
<g id="node3" class="node">
<title>n0</title>
<ellipse fill="none" stroke="black" cx="123.65" cy="-104" rx="26.8" ry="26.8"/>
<text text-anchor="middle" x="123.65" y="-100.3" font-family="Times,serif" font-size="14.00">[a,e]</text>
</g>
<!-- n2&#45;&gt;n0 -->
<g id="edge6" class="edge">
<title>n2&#45;&gt;n0</title>
<path fill="none" stroke="black" d="M51.88,-104C62.37,-104 74.9,-104 86.49,-104"/>
<polygon fill="black" stroke="black" points="86.78,-107.5 96.78,-104 86.78,-100.5 86.78,-107.5"/>
<text text-anchor="middle" x="75.5" y="-107.8" font-family="Times,serif" font-size="14.00">1</text>
</g>
<!-- n3 -->
<g id="node2" class="node">
<title>n3</title>
<ellipse fill="none" stroke="black" cx="316.99" cy="-106" rx="20.63" ry="20.63"/>
<ellipse fill="none" stroke="black" cx="316.99" cy="-106" rx="24.6" ry="24.6"/>
<text text-anchor="middle" x="316.99" y="-102.3" font-family="Times,serif" font-size="14.00">[c]</text>
</g>
<!-- n3&#45;&gt;n3 -->
<g id="edge9" class="edge">
<title>n3&#45;&gt;n3</title>
<path fill="none" stroke="black" d="M308.5,-129.33C307.69,-139.77 310.52,-148.8 316.99,-148.8 321.13,-148.8 323.78,-145.09 324.94,-139.69"/>
<polygon fill="black" stroke="black" points="328.45,-139.5 325.48,-129.33 321.46,-139.14 328.45,-139.5"/>
<text text-anchor="middle" x="316.99" y="-152.6" font-family="Times,serif" font-size="14.00">1</text>
</g>
<!-- n3&#45;&gt;n0 -->
<g id="edge8" class="edge">
<title>n3&#45;&gt;n0</title>
<path fill="none" stroke="black" d="M292.1,-105.75C259.07,-105.41 199.18,-104.78 160.7,-104.38"/>
<polygon fill="black" stroke="black" points="160.49,-100.87 150.45,-104.27 160.42,-107.87 160.49,-100.87"/>
<text text-anchor="middle" x="221.24" y="-108.8" font-family="Times,serif" font-size="14.00">0</text>
</g>
<!-- n1 -->
<g id="node4" class="node">
<title>n1</title>
<ellipse fill="none" stroke="black" cx="221.24" cy="-167" rx="27.9" ry="27.9"/>
<text text-anchor="middle" x="221.24" y="-163.3" font-family="Times,serif" font-size="14.00">[b,h]</text>
</g>
<!-- n0&#45;&gt;n1 -->
<g id="edge2" class="edge">
<title>n0&#45;&gt;n1</title>
<path fill="none" stroke="black" d="M146.34,-118.3C158.93,-126.59 175.01,-137.19 188.95,-146.38"/>
<polygon fill="black" stroke="black" points="187.03,-149.3 197.3,-151.88 190.88,-143.46 187.03,-149.3"/>
<text text-anchor="middle" x="171.8" y="-138.8" font-family="Times,serif" font-size="14.00">0</text>
</g>
<!-- n4 -->
<g id="node5" class="node">
<title>n4</title>
<ellipse fill="none" stroke="black" cx="221.24" cy="-43" rx="26.8" ry="26.8"/>
<text text-anchor="middle" x="221.24" y="-39.3" font-family="Times,serif" font-size="14.00">[d,f]</text>
</g>
<!-- n0&#45;&gt;n4 -->
<g id="edge3" class="edge">
<title>n0&#45;&gt;n4</title>
<path fill="none" stroke="black" d="M146.82,-89.85C159.49,-81.77 175.57,-71.51 189.45,-62.65"/>
<polygon fill="black" stroke="black" points="191.64,-65.4 198.19,-57.07 187.88,-59.5 191.64,-65.4"/>
<text text-anchor="middle" x="171.8" y="-78.8" font-family="Times,serif" font-size="14.00">1</text>
</g>
<!-- n1&#45;&gt;n2 -->
<g id="edge4" class="edge">
<title>n1&#45;&gt;n2</title>
<path fill="none" stroke="black" d="M193.22,-163.2C167.86,-159.14 129.12,-151.66 97,-140 83.57,-135.12 69.46,-128.13 57.53,-121.61"/>
<polygon fill="black" stroke="black" points="58.91,-118.37 48.48,-116.53 55.48,-124.47 58.91,-118.37"/>
<text text-anchor="middle" x="123.65" y="-157.8" font-family="Times,serif" font-size="14.00">0</text>
</g>
<!-- n1&#45;&gt;n3 -->
<g id="edge5" class="edge">
<title>n1&#45;&gt;n3</title>
<path fill="none" stroke="black" d="M245.42,-151.92C258.05,-143.7 273.8,-133.45 287.21,-124.73"/>
<polygon fill="black" stroke="black" points="289.16,-127.64 295.63,-119.25 285.34,-121.77 289.16,-127.64"/>
<text text-anchor="middle" x="270.69" y="-139.8" font-family="Times,serif" font-size="14.00">1</text>
</g>
<!-- n4&#45;&gt;n2 -->
<g id="edge10" class="edge">
<title>n4&#45;&gt;n2</title>
<path fill="none" stroke="black" d="M194.33,-41.06C168.76,-40.06 128.96,-41.02 97,-53 80.87,-59.05 65.23,-70.04 52.93,-80.28"/>
<polygon fill="black" stroke="black" points="50.62,-77.64 45.36,-86.84 55.21,-82.93 50.62,-77.64"/>
<text text-anchor="middle" x="123.65" y="-56.8" font-family="Times,serif" font-size="14.00">1</text>
</g>
<!-- n4&#45;&gt;n3 -->
<g id="edge11" class="edge">
<title>n4&#45;&gt;n3</title>
<path fill="none" stroke="black" d="M244.07,-57.1C253.38,-63.16 264.36,-70.37 274.19,-77 278.56,-79.95 283.17,-83.1 287.67,-86.2"/>
<polygon fill="black" stroke="black" points="285.87,-89.21 296.08,-92.02 289.85,-83.45 285.87,-89.21"/>
<text text-anchor="middle" x="270.69" y="-80.8" font-family="Times,serif" font-size="14.00">0</text>
</g>
<!-- start -->
<g id="node6" class="node">
<title>start</title>
<text text-anchor="middle" x="27" y="-14.3" font-family="Times,serif" font-size="14.00">start</text>
</g>
<!-- start&#45;&gt;n0 -->
<g id="edge1" class="edge">
<title>start&#45;&gt;n0</title>
<path fill="none" stroke="black" d="M48.07,-36.24C61.93,-48.83 80.53,-65.73 95.68,-79.5"/>
<polygon fill="black" stroke="black" points="93.5,-82.24 103.25,-86.38 98.2,-77.06 93.5,-82.24"/>
</g>
</g>
</svg>
