<?xml version="1.0" encoding="UTF-8" standalone="no"?>
<!DOCTYPE svg PUBLIC "-//W3C//DTD SVG 1.1//EN"
 "http://www.w3.org/Graphics/SVG/1.1/DTD/svg11.dtd">
<!-- Generated by graphviz version 2.47.0 (20210316.0004)
 -->
<!-- Title: finite_state_machine Pages: 1 -->
<svg width="864pt" height="244pt"
 viewBox="0.00 0.00 864.00 244.41" xmlns="http://www.w3.org/2000/svg" xmlns:xlink="http://www.w3.org/1999/xlink">
<g id="graph0" class="graph" transform="scale(2.14 2.14) rotate(0) translate(4 110)">
<title>finite_state_machine</title>
<polygon fill="white" stroke="transparent" points="-4,4 -4,-110 399,-110 399,4 -4,4"/>
<!-- S -->
<!-- 0 -->
<g id="node3" class="node">
<title>0</title>
<ellipse fill="none" stroke="black" cx="132" cy="-22" rx="18" ry="18"/>
<text text-anchor="middle" x="132" y="-18.3" font-family="Times,serif" font-size="14.00">0</text>
</g>
<!-- S&#45;&gt;0 -->
<g id="edge1" class="edge">
<title>S&#45;&gt;0</title>
<path fill="none" stroke="black" d="M54.26,-22C69.32,-22 88.2,-22 103.47,-22"/>
<polygon fill="black" stroke="black" points="103.84,-25.5 113.84,-22 103.84,-18.5 103.84,-25.5"/>
<text text-anchor="middle" x="84" y="-25.8" font-family="Times,serif" font-size="14.00">start</text>
</g>
<!-- 3 -->
<g id="node2" class="node">
<title>3</title>
<ellipse fill="none" stroke="black" cx="373" cy="-22" rx="18" ry="18"/>
<ellipse fill="none" stroke="black" cx="373" cy="-22" rx="22" ry="22"/>
<text text-anchor="middle" x="373" y="-18.3" font-family="Times,serif" font-size="14.00">3</text>
</g>
<!-- 0&#45;&gt;0 -->
<g id="edge2" class="edge">
<title>0:e&#45;&gt;0:w</title>
<path fill="none" stroke="black" d="M150,-22C154.75,-34 154.75,-58 132,-58 114.58,-58 110.5,-43.93 111.67,-31.95"/>
<polygon fill="black" stroke="black" points="115.13,-32.53 114,-22 108.32,-30.94 115.13,-32.53"/>
<text text-anchor="middle" x="132" y="-61.8" font-family="Times,serif" font-size="14.00">a</text>
</g>
<!-- 0&#45;&gt;0 -->
<g id="edge3" class="edge">
<title>0:e&#45;&gt;0:w</title>
<path fill="none" stroke="black" d="M150,-22C159.5,-40 159.5,-76 132,-76 108.8,-76 105.17,-50.37 110.31,-31.55"/>
<polygon fill="black" stroke="black" points="113.66,-32.59 114,-22 107.13,-30.07 113.66,-32.59"/>
<text text-anchor="middle" x="132" y="-79.8" font-family="Times,serif" font-size="14.00">b</text>
</g>
<!-- 1 -->
<g id="node4" class="node">
<title>1</title>
<ellipse fill="none" stroke="black" cx="211" cy="-22" rx="18" ry="18"/>
<text text-anchor="middle" x="211" y="-18.3" font-family="Times,serif" font-size="14.00">1</text>
</g>
<!-- 0&#45;&gt;1 -->
<g id="edge4" class="edge">
<title>0&#45;&gt;1</title>
<path fill="none" stroke="black" d="M150.09,-22C159.66,-22 171.82,-22 182.68,-22"/>
<polygon fill="black" stroke="black" points="182.96,-25.5 192.96,-22 182.96,-18.5 182.96,-25.5"/>
<text text-anchor="middle" x="171.5" y="-25.8" font-family="Times,serif" font-size="14.00">a</text>
</g>
<!-- 2 -->
<g id="node5" class="node">
<title>2</title>
<ellipse fill="none" stroke="black" cx="290" cy="-22" rx="18" ry="18"/>
<text text-anchor="middle" x="290" y="-18.3" font-family="Times,serif" font-size="14.00">2</text>
</g>
<!-- 1&#45;&gt;2 -->
<g id="edge5" class="edge">
<title>1&#45;&gt;2</title>
<path fill="none" stroke="black" d="M229.09,-22C238.66,-22 250.82,-22 261.68,-22"/>
<polygon fill="black" stroke="black" points="261.96,-25.5 271.96,-22 261.96,-18.5 261.96,-25.5"/>
<text text-anchor="middle" x="250.5" y="-25.8" font-family="Times,serif" font-size="14.00">b</text>
</g>
<!-- 2&#45;&gt;3 -->
<g id="edge6" class="edge">
<title>2&#45;&gt;3</title>
<path fill="none" stroke="black" d="M308.18,-22C317.61,-22 329.6,-22 340.64,-22"/>
<polygon fill="black" stroke="black" points="340.81,-25.5 350.81,-22 340.81,-18.5 340.81,-25.5"/>
<text text-anchor="middle" x="329.5" y="-25.8" font-family="Times,serif" font-size="14.00">b</text>
</g>
</g>
</svg>
