<?xml version="1.0" encoding="UTF-8" standalone="no"?>
<!DOCTYPE svg PUBLIC "-//W3C//DTD SVG 1.1//EN"
 "http://www.w3.org/Graphics/SVG/1.1/DTD/svg11.dtd">
<!-- Generated by graphviz version 2.47.0 (20210316.0004)
 -->
<!-- Title: finite_state_machine Pages: 1 -->
<svg width="864pt" height="344pt"
 viewBox="0.00 0.00 864.00 343.98" xmlns="http://www.w3.org/2000/svg" xmlns:xlink="http://www.w3.org/1999/xlink">
<g id="graph0" class="graph" transform="scale(2.99 2.99) rotate(0) translate(4 111.06)">
<title>finite_state_machine</title>
<polygon fill="white" stroke="transparent" points="-4,4 -4,-111.06 285,-111.06 285,4 -4,4"/>
<g id="clust1" class="cluster">
<title>cluster_0</title>
<path fill="none" stroke="black" d="M83,-20.06C83,-20.06 190,-20.06 190,-20.06 196,-20.06 202,-26.06 202,-32.06 202,-32.06 202,-87.06 202,-87.06 202,-93.06 196,-99.06 190,-99.06 190,-99.06 83,-99.06 83,-99.06 77,-99.06 71,-93.06 71,-87.06 71,-87.06 71,-32.06 71,-32.06 71,-26.06 77,-20.06 83,-20.06"/>
<text text-anchor="middle" x="136.5" y="-83.86" font-family="Times,serif" font-size="14.00">A</text>
</g>
<!-- E -->
<g id="node1" class="node">
<title>E</title>
<ellipse fill="none" stroke="black" cx="259" cy="-46.06" rx="18" ry="18"/>
<ellipse fill="none" stroke="black" cx="259" cy="-46.06" rx="22" ry="22"/>
</g>
<!-- n0 -->
<g id="node2" class="node">
<title>n0</title>
<ellipse fill="none" stroke="black" cx="97" cy="-46.06" rx="18" ry="18"/>
</g>
<!-- n1 -->
<g id="node3" class="node">
<title>n1</title>
<ellipse fill="none" stroke="black" cx="176" cy="-46.06" rx="18" ry="18"/>
</g>
<!-- n0&#45;&gt;n1 -->
<g id="edge1" class="edge">
<title>n0&#45;&gt;n1</title>
<path fill="none" stroke="black" stroke-dasharray="5,2" d="M113.37,-38.23C121.23,-35.11 131.02,-32.56 140,-34.06 143.13,-34.58 146.36,-35.35 149.52,-36.25"/>
<polygon fill="black" stroke="black" points="148.67,-39.65 159.26,-39.43 150.84,-32.99 148.67,-39.65"/>
</g>
<!-- n1&#45;&gt;E -->
<g id="edge3" class="edge">
<title>n1&#45;&gt;E</title>
<path fill="none" stroke="black" d="M194.18,-46.06C203.61,-46.06 215.6,-46.06 226.64,-46.06"/>
<polygon fill="black" stroke="black" points="226.81,-49.56 236.81,-46.06 226.81,-42.56 226.81,-49.56"/>
<text text-anchor="middle" x="215.5" y="-49.86" font-family="Times,serif" font-size="14.00">ε</text>
</g>
<!-- n1&#45;&gt;n0 -->
<g id="edge4" class="edge">
<title>n1:n&#45;&gt;n0:n</title>
<path fill="none" stroke="black" d="M176,-65.06C176,-96.47 112.79,-99.78 99.45,-75"/>
<polygon fill="black" stroke="black" points="102.79,-73.93 97,-65.06 96,-75.61 102.79,-73.93"/>
<text text-anchor="middle" x="136.5" y="-94.86" font-family="Times,serif" font-size="14.00">ε</text>
</g>
<!-- S -->
<g id="node4" class="node">
<title>S</title>
<ellipse fill="none" stroke="black" cx="18" cy="-46.06" rx="18" ry="18"/>
</g>
<!-- S&#45;&gt;E -->
<g id="edge5" class="edge">
<title>S&#45;&gt;E</title>
<path fill="none" stroke="black" d="M33.45,-36.22C43.58,-29.7 57.64,-21.4 71,-16.06 97.32,-5.54 104.85,-4.42 133,-1.06 168.54,3.18 206.92,-14.26 231.64,-28.65"/>
<polygon fill="black" stroke="black" points="230.05,-31.77 240.41,-33.96 233.68,-25.78 230.05,-31.77"/>
<text text-anchor="middle" x="136.5" y="-4.86" font-family="Times,serif" font-size="14.00">ε</text>
</g>
<!-- S&#45;&gt;n0 -->
<g id="edge2" class="edge">
<title>S&#45;&gt;n0</title>
<path fill="none" stroke="black" d="M36.09,-46.06C45.66,-46.06 57.82,-46.06 68.68,-46.06"/>
<polygon fill="black" stroke="black" points="68.96,-49.56 78.96,-46.06 68.96,-42.56 68.96,-49.56"/>
<text text-anchor="middle" x="57.5" y="-49.86" font-family="Times,serif" font-size="14.00">ε</text>
</g>
</g>
</svg>
