<?xml version="1.0" encoding="UTF-8" standalone="no"?>
<!DOCTYPE svg PUBLIC "-//W3C//DTD SVG 1.1//EN"
 "http://www.w3.org/Graphics/SVG/1.1/DTD/svg11.dtd">
<!-- Generated by graphviz version 2.47.0 (20210316.0004)
 -->
<!-- Title: finite_state_machine Pages: 1 -->
<svg width="864pt" height="282pt"
 viewBox="0.00 0.00 864.00 282.47" xmlns="http://www.w3.org/2000/svg" xmlns:xlink="http://www.w3.org/1999/xlink">
<g id="graph0" class="graph" transform="scale(1.32 1.32) rotate(0) translate(4 209.91)">
<title>finite_state_machine</title>
<polygon fill="white" stroke="transparent" points="-4,4 -4,-209.91 650.31,-209.91 650.31,4 -4,4"/>
<!-- n2 -->
<g id="node1" class="node">
<title>n2</title>
<ellipse fill="none" stroke="black" cx="306.96" cy="-143.46" rx="52.16" ry="25.42"/>
<ellipse fill="none" stroke="black" cx="306.96" cy="-143.46" rx="56.15" ry="29.41"/>
<text text-anchor="start" x="282.96" y="-147.26" font-family="Times,serif" font-size="14.00">{</text>
<text text-anchor="start" x="289.96" y="-147.26" font-family="Times,serif" text-decoration="overline" font-size="14.00">B,C,E</text>
<text text-anchor="start" x="323.96" y="-147.26" font-family="Times,serif" font-size="14.00">}</text>
<text text-anchor="start" x="277.96" y="-133.26" font-family="Times,serif" font-size="14.00">{B,F,C,E}</text>
</g>
<!-- n2&#45;&gt;n2 -->
<g id="edge7" class="edge">
<title>n2&#45;&gt;n2</title>
<path fill="none" stroke="black" d="M292.72,-172.18C292.42,-182.5 297.16,-190.91 306.96,-190.91 313.24,-190.91 317.44,-187.46 319.57,-182.27"/>
<polygon fill="black" stroke="black" points="323.06,-182.61 321.2,-172.18 316.15,-181.5 323.06,-182.61"/>
<text text-anchor="start" x="303.46" y="-194.71" font-family="Times,serif" font-size="14.00">d</text>
</g>
<!-- n4 -->
<g id="node2" class="node">
<title>n4</title>
<ellipse fill="none" stroke="black" cx="455.54" cy="-143.46" rx="45.03" ry="25.42"/>
<ellipse fill="none" stroke="black" cx="455.54" cy="-143.46" rx="49.01" ry="29.41"/>
<text text-anchor="start" x="436.54" y="-147.26" font-family="Times,serif" font-size="14.00">{</text>
<text text-anchor="start" x="443.54" y="-147.26" font-family="Times,serif" text-decoration="overline" font-size="14.00">D,G</text>
<text text-anchor="start" x="467.54" y="-147.26" font-family="Times,serif" font-size="14.00">}</text>
<text text-anchor="start" x="431.54" y="-133.26" font-family="Times,serif" font-size="14.00">{D,F,G}</text>
</g>
<!-- n2&#45;&gt;n4 -->
<g id="edge8" class="edge">
<title>n2&#45;&gt;n4</title>
<path fill="none" stroke="black" d="M363.38,-143.46C374.07,-143.46 385.3,-143.46 396.08,-143.46"/>
<polygon fill="black" stroke="black" points="396.25,-146.96 406.25,-143.46 396.25,-139.96 396.25,-146.96"/>
<text text-anchor="start" x="382.79" y="-147.26" font-family="Times,serif" font-size="14.00">.</text>
</g>
<!-- n6 -->
<g id="node4" class="node">
<title>n6</title>
<ellipse fill="none" stroke="black" cx="597.05" cy="-143.46" rx="45.03" ry="25.42"/>
<ellipse fill="none" stroke="black" cx="597.05" cy="-143.46" rx="49.01" ry="29.41"/>
<text text-anchor="start" x="578.05" y="-147.26" font-family="Times,serif" font-size="14.00">{</text>
<text text-anchor="start" x="585.05" y="-147.26" font-family="Times,serif" text-decoration="overline" font-size="14.00">D,H</text>
<text text-anchor="start" x="609.05" y="-147.26" font-family="Times,serif" font-size="14.00">}</text>
<text text-anchor="start" x="573.05" y="-133.26" font-family="Times,serif" font-size="14.00">{D,F,H}</text>
</g>
<!-- n4&#45;&gt;n6 -->
<g id="edge10" class="edge">
<title>n4&#45;&gt;n6</title>
<path fill="none" stroke="black" d="M504.94,-143.46C515.44,-143.46 526.65,-143.46 537.49,-143.46"/>
<polygon fill="black" stroke="black" points="537.73,-146.96 547.73,-143.46 537.73,-139.96 537.73,-146.96"/>
<text text-anchor="start" x="522.8" y="-147.26" font-family="Times,serif" font-size="14.00">d</text>
</g>
<!-- n5 -->
<g id="node3" class="node">
<title>n5</title>
<ellipse fill="none" stroke="black" cx="455.54" cy="-29.46" rx="36.12" ry="25.42"/>
<ellipse fill="none" stroke="black" cx="455.54" cy="-29.46" rx="40.12" ry="29.41"/>
<text text-anchor="start" x="443.54" y="-33.26" font-family="Times,serif" font-size="14.00">{</text>
<text text-anchor="start" x="450.54" y="-33.26" font-family="Times,serif" text-decoration="overline" font-size="14.00">H</text>
<text text-anchor="start" x="460.54" y="-33.26" font-family="Times,serif" font-size="14.00">}</text>
<text text-anchor="start" x="438.04" y="-19.26" font-family="Times,serif" font-size="14.00">{H,F}</text>
</g>
<!-- n5&#45;&gt;n5 -->
<g id="edge11" class="edge">
<title>n5&#45;&gt;n5</title>
<path fill="none" stroke="black" d="M442.45,-57.71C442.02,-68.24 446.38,-76.91 455.54,-76.91 461.55,-76.91 465.5,-73.18 467.38,-67.64"/>
<polygon fill="black" stroke="black" points="470.85,-68.07 468.64,-57.71 463.91,-67.19 470.85,-68.07"/>
<text text-anchor="start" x="452.04" y="-80.71" font-family="Times,serif" font-size="14.00">d</text>
</g>
<!-- n6&#45;&gt;n6 -->
<g id="edge12" class="edge">
<title>n6&#45;&gt;n6</title>
<path fill="none" stroke="black" d="M583.94,-172.18C583.66,-182.5 588.03,-190.91 597.05,-190.91 602.83,-190.91 606.7,-187.46 608.66,-182.27"/>
<polygon fill="black" stroke="black" points="612.15,-182.59 610.16,-172.18 605.23,-181.56 612.15,-182.59"/>
<text text-anchor="start" x="593.55" y="-194.71" font-family="Times,serif" font-size="14.00">d</text>
</g>
<!-- n0 -->
<g id="node5" class="node">
<title>n0</title>
<ellipse fill="none" stroke="black" cx="44.55" cy="-88.46" rx="44.6" ry="25.41"/>
<text text-anchor="start" x="33.55" y="-92.26" font-family="Times,serif" font-size="14.00">{</text>
<text text-anchor="start" x="40.55" y="-92.26" font-family="Times,serif" text-decoration="overline" font-size="14.00">S</text>
<text text-anchor="start" x="48.55" y="-92.26" font-family="Times,serif" font-size="14.00">}</text>
<text text-anchor="start" x="21.05" y="-78.26" font-family="Times,serif" font-size="14.00">{S,A,E}</text>
</g>
<!-- n0&#45;&gt;n2 -->
<g id="edge3" class="edge">
<title>n0&#45;&gt;n2</title>
<path fill="none" stroke="black" d="M81.68,-102.93C97.54,-108.8 116.52,-115.2 134.1,-119.46 168.97,-127.91 208.6,-133.69 241.01,-137.46"/>
<polygon fill="black" stroke="black" points="240.93,-140.97 251.26,-138.61 241.71,-134.01 240.93,-140.97"/>
<text text-anchor="start" x="167.37" y="-136.26" font-family="Times,serif" font-size="14.00">d</text>
</g>
<!-- n1 -->
<g id="node6" class="node">
<title>n1</title>
<ellipse fill="none" stroke="black" cx="170.87" cy="-85.46" rx="36.54" ry="25.41"/>
<text text-anchor="start" x="158.87" y="-89.26" font-family="Times,serif" font-size="14.00">{</text>
<text text-anchor="start" x="165.87" y="-89.26" font-family="Times,serif" text-decoration="overline" font-size="14.00">A</text>
<text text-anchor="start" x="175.87" y="-89.26" font-family="Times,serif" font-size="14.00">}</text>
<text text-anchor="start" x="152.87" y="-75.26" font-family="Times,serif" font-size="14.00">{A,E}</text>
</g>
<!-- n0&#45;&gt;n1 -->
<g id="edge1" class="edge">
<title>n0&#45;&gt;n1</title>
<path fill="none" stroke="black" d="M89.38,-87.4C100.51,-87.13 112.5,-86.84 123.75,-86.57"/>
<polygon fill="black" stroke="black" points="123.9,-90.07 133.81,-86.33 123.73,-83.07 123.9,-90.07"/>
<text text-anchor="start" x="109.1" y="-90.26" font-family="Times,serif" font-size="14.00">&#45;</text>
</g>
<!-- n0&#45;&gt;n1 -->
<g id="edge2" class="edge">
<title>n0&#45;&gt;n1</title>
<path fill="none" stroke="black" d="M78.87,-72.03C90.5,-68.05 103.74,-65.44 116.1,-67.46 120.25,-68.13 124.51,-69.09 128.74,-70.2"/>
<polygon fill="black" stroke="black" points="127.87,-73.6 138.45,-73.06 129.84,-66.88 127.87,-73.6"/>
<text text-anchor="start" x="107.1" y="-71.26" font-family="Times,serif" font-size="14.00">+</text>
</g>
<!-- n3 -->
<g id="node7" class="node">
<title>n3</title>
<ellipse fill="none" stroke="black" cx="306.96" cy="-29.46" rx="28.07" ry="25.41"/>
<text text-anchor="start" x="294.96" y="-33.26" font-family="Times,serif" font-size="14.00">{</text>
<text text-anchor="start" x="301.96" y="-33.26" font-family="Times,serif" text-decoration="overline" font-size="14.00">G</text>
<text text-anchor="start" x="311.96" y="-33.26" font-family="Times,serif" font-size="14.00">}</text>
<text text-anchor="start" x="294.96" y="-19.26" font-family="Times,serif" font-size="14.00">{G}</text>
</g>
<!-- n0&#45;&gt;n3 -->
<g id="edge4" class="edge">
<title>n0&#45;&gt;n3</title>
<path fill="none" stroke="black" d="M72.24,-68.08C89.03,-56.5 111.69,-43.04 134.1,-36.46 178.88,-23.29 233.06,-23.6 268.46,-25.83"/>
<polygon fill="black" stroke="black" points="268.58,-29.34 278.81,-26.57 269.08,-22.36 268.58,-29.34"/>
<text text-anchor="start" x="168.87" y="-40.26" font-family="Times,serif" font-size="14.00">.</text>
</g>
<!-- n1&#45;&gt;n2 -->
<g id="edge5" class="edge">
<title>n1&#45;&gt;n2</title>
<path fill="none" stroke="black" d="M202.63,-98.76C217.77,-105.31 236.43,-113.38 253.72,-120.86"/>
<polygon fill="black" stroke="black" points="252.58,-124.18 263.15,-124.94 255.36,-117.76 252.58,-124.18"/>
<text text-anchor="start" x="225.63" y="-114.26" font-family="Times,serif" font-size="14.00">d</text>
</g>
<!-- n1&#45;&gt;n3 -->
<g id="edge6" class="edge">
<title>n1&#45;&gt;n3</title>
<path fill="none" stroke="black" d="M202.63,-72.61C223.15,-64.04 250.15,-52.76 271.41,-43.88"/>
<polygon fill="black" stroke="black" points="272.85,-47.08 280.73,-39.99 270.15,-40.62 272.85,-47.08"/>
<text text-anchor="start" x="227.13" y="-66.26" font-family="Times,serif" font-size="14.00">.</text>
</g>
<!-- n3&#45;&gt;n5 -->
<g id="edge9" class="edge">
<title>n3&#45;&gt;n5</title>
<path fill="none" stroke="black" d="M335.53,-29.46C355.18,-29.46 382.13,-29.46 405.42,-29.46"/>
<polygon fill="black" stroke="black" points="405.48,-32.96 415.48,-29.46 405.48,-25.96 405.48,-32.96"/>
<text text-anchor="start" x="381.29" y="-33.26" font-family="Times,serif" font-size="14.00">d</text>
</g>
</g>
</svg>
