<?xml version="1.0" encoding="UTF-8" standalone="no"?>
<!DOCTYPE svg PUBLIC "-//W3C//DTD SVG 1.1//EN"
 "http://www.w3.org/Graphics/SVG/1.1/DTD/svg11.dtd">
<!-- Generated by graphviz version 2.47.0 (20210316.0004)
 -->
<!-- Title: finite_state_machine Pages: 1 -->
<svg width="227pt" height="216pt"
 viewBox="0.00 0.00 226.66 216.00" xmlns="http://www.w3.org/2000/svg" xmlns:xlink="http://www.w3.org/1999/xlink">
<g id="graph0" class="graph" transform="scale(1.84 1.84) rotate(0) translate(4 113.21)">
<title>finite_state_machine</title>
<polygon fill="white" stroke="transparent" points="-4,4 -4,-113.21 119,-113.21 119,4 -4,4"/>
<!-- A -->
<g id="node1" class="node">
<title>A</title>
<ellipse fill="none" stroke="black" cx="18" cy="-58.21" rx="18" ry="18"/>
<text text-anchor="middle" x="18" y="-54.51" font-family="Times,serif" font-size="14.00">A</text>
</g>
<!-- B -->
<g id="node2" class="node">
<title>B</title>
<ellipse fill="none" stroke="black" cx="97" cy="-58.21" rx="18" ry="18"/>
<text text-anchor="middle" x="97" y="-54.51" font-family="Times,serif" font-size="14.00">B</text>
</g>
<!-- A&#45;&gt;B -->
<g id="edge1" class="edge">
<title>A&#45;&gt;B</title>
<path fill="none" stroke="black" d="M28.88,-72.56C35.09,-80.25 43.84,-89 54,-93.21 64.21,-97.44 73.81,-90.59 81.25,-81.86"/>
<polygon fill="black" stroke="black" points="84.26,-83.69 87.44,-73.58 78.65,-79.5 84.26,-83.69"/>
<text text-anchor="middle" x="57.5" y="-98.01" font-family="Times,serif" font-size="14.00">a</text>
</g>
<!-- A&#45;&gt;B -->
<g id="edge2" class="edge">
<title>A&#45;&gt;B</title>
<path fill="none" stroke="black" d="M36.09,-58.21C45.66,-58.21 57.82,-58.21 68.68,-58.21"/>
<polygon fill="black" stroke="black" points="68.96,-61.71 78.96,-58.21 68.96,-54.71 68.96,-61.71"/>
<text text-anchor="middle" x="57.5" y="-62.01" font-family="Times,serif" font-size="14.00">ε</text>
</g>
<!-- A&#45;&gt;B -->
<g id="edge4" class="edge">
<title>A&#45;&gt;B</title>
<path fill="none" stroke="black" d="M33.31,-48.35C39.4,-44.72 46.76,-41.05 54,-39.21 60.62,-37.53 67.49,-39.08 73.71,-41.9"/>
<polygon fill="black" stroke="black" points="72.4,-45.18 82.82,-47.08 75.86,-39.09 72.4,-45.18"/>
<text text-anchor="middle" x="57.5" y="-43.01" font-family="Times,serif" font-size="14.00">b</text>
</g>
<!-- B&#45;&gt;A -->
<g id="edge3" class="edge">
<title>B&#45;&gt;A</title>
<path fill="none" stroke="black" d="M91.31,-40.81C84.96,-20.84 72.28,7.92 54,-2.21 42.33,-8.68 34.03,-20.85 28.46,-32.19"/>
<polygon fill="black" stroke="black" points="25.24,-30.82 24.4,-41.38 31.64,-33.65 25.24,-30.82"/>
<text text-anchor="middle" x="57.5" y="-6.01" font-family="Times,serif" font-size="14.00">ε</text>
</g>
</g>
</svg>
