<?xml version="1.0" encoding="UTF-8" standalone="no"?>
<!DOCTYPE svg PUBLIC "-//W3C//DTD SVG 1.1//EN"
 "http://www.w3.org/Graphics/SVG/1.1/DTD/svg11.dtd">
<!-- Generated by graphviz version 2.47.0 (20210316.0004)
 -->
<!-- Title: finite_state_machine Pages: 1 -->
<svg width="864pt" height="409pt"
 viewBox="0.00 0.00 864.00 409.46" xmlns="http://www.w3.org/2000/svg" xmlns:xlink="http://www.w3.org/1999/xlink">
<g id="graph0" class="graph" transform="scale(2.89 2.89) rotate(0) translate(4 137.7)">
<title>finite_state_machine</title>
<polygon fill="white" stroke="transparent" points="-4,4 -4,-137.7 295,-137.7 295,4 -4,4"/>
<!-- B -->
<g id="node1" class="node">
<title>B</title>
<ellipse fill="none" stroke="black" cx="182" cy="-78.7" rx="18" ry="18"/>
<ellipse fill="none" stroke="black" cx="182" cy="-78.7" rx="22" ry="22"/>
<text text-anchor="middle" x="182" y="-75" font-family="Times,serif" font-size="14.00">B</text>
</g>
<!-- B&#45;&gt;B -->
<g id="edge9" class="edge">
<title>B&#45;&gt;B</title>
<path fill="none" stroke="black" d="M174.32,-99.69C173.37,-109.79 175.93,-118.7 182,-118.7 185.89,-118.7 188.34,-115.04 189.35,-109.76"/>
<polygon fill="black" stroke="black" points="192.85,-109.8 189.68,-99.69 185.85,-109.57 192.85,-109.8"/>
<text text-anchor="middle" x="182" y="-122.5" font-family="Times,serif" font-size="14.00">d</text>
</g>
<!-- D -->
<g id="node2" class="node">
<title>D</title>
<ellipse fill="none" stroke="black" cx="269" cy="-49.7" rx="18" ry="18"/>
<ellipse fill="none" stroke="black" cx="269" cy="-49.7" rx="22" ry="22"/>
<text text-anchor="middle" x="269" y="-46" font-family="Times,serif" font-size="14.00">D</text>
</g>
<!-- B&#45;&gt;D -->
<g id="edge8" class="edge">
<title>B&#45;&gt;D</title>
<path fill="none" stroke="black" d="M203.14,-71.83C213.62,-68.25 226.64,-63.81 238.25,-59.85"/>
<polygon fill="black" stroke="black" points="239.67,-63.07 248,-56.52 237.41,-56.44 239.67,-63.07"/>
<text text-anchor="middle" x="225.5" y="-68.5" font-family="Times,serif" font-size="14.00">.</text>
</g>
<!-- D&#45;&gt;D -->
<g id="edge10" class="edge">
<title>D&#45;&gt;D</title>
<path fill="none" stroke="black" d="M261.32,-70.69C260.37,-80.79 262.93,-89.7 269,-89.7 272.89,-89.7 275.34,-86.04 276.35,-80.76"/>
<polygon fill="black" stroke="black" points="279.85,-80.8 276.68,-70.69 272.85,-80.57 279.85,-80.8"/>
<text text-anchor="middle" x="269" y="-93.5" font-family="Times,serif" font-size="14.00">d</text>
</g>
<!-- S -->
<g id="node3" class="node">
<title>S</title>
<ellipse fill="none" stroke="black" cx="18" cy="-48.7" rx="18" ry="18"/>
<text text-anchor="middle" x="18" y="-45" font-family="Times,serif" font-size="14.00">S</text>
</g>
<!-- S&#45;&gt;B -->
<g id="edge4" class="edge">
<title>S&#45;&gt;B</title>
<path fill="none" stroke="black" d="M34.39,-56.99C40.4,-60.01 47.41,-63.27 54,-65.7 91.23,-79.41 102.34,-81.72 142,-80.7 144.55,-80.63 147.19,-80.55 149.85,-80.44"/>
<polygon fill="black" stroke="black" points="150.13,-83.93 159.96,-79.98 149.81,-76.94 150.13,-83.93"/>
<text text-anchor="middle" x="99" y="-83.5" font-family="Times,serif" font-size="14.00">d</text>
</g>
<!-- A -->
<g id="node4" class="node">
<title>A</title>
<ellipse fill="none" stroke="black" cx="99" cy="-45.7" rx="18" ry="18"/>
<text text-anchor="middle" x="99" y="-42" font-family="Times,serif" font-size="14.00">A</text>
</g>
<!-- S&#45;&gt;A -->
<g id="edge1" class="edge">
<title>S&#45;&gt;A</title>
<path fill="none" stroke="black" d="M36.14,-48.05C46.29,-47.66 59.37,-47.17 70.88,-46.73"/>
<polygon fill="black" stroke="black" points="71.03,-50.23 80.89,-46.35 70.77,-43.23 71.03,-50.23"/>
<text text-anchor="middle" x="58.5" y="-50.5" font-family="Times,serif" font-size="14.00">+</text>
</g>
<!-- S&#45;&gt;A -->
<g id="edge2" class="edge">
<title>S&#45;&gt;A</title>
<path fill="none" stroke="black" d="M32.84,-38.03C38.97,-33.95 46.49,-29.78 54,-27.7 61.05,-25.75 68.5,-27.31 75.22,-30.18"/>
<polygon fill="black" stroke="black" points="73.95,-33.47 84.42,-35.08 77.24,-27.29 73.95,-33.47"/>
<text text-anchor="middle" x="58.5" y="-31.5" font-family="Times,serif" font-size="14.00">&#45;</text>
</g>
<!-- G -->
<g id="node5" class="node">
<title>G</title>
<ellipse fill="none" stroke="black" cx="182" cy="-20.7" rx="18" ry="18"/>
<text text-anchor="middle" x="182" y="-17" font-family="Times,serif" font-size="14.00">G</text>
</g>
<!-- S&#45;&gt;G -->
<g id="edge3" class="edge">
<title>S&#45;&gt;G</title>
<path fill="none" stroke="black" d="M31.38,-35.91C43,-24.91 61.47,-9.88 81,-3.7 105.85,4.17 135.39,-2.74 155.89,-9.98"/>
<polygon fill="black" stroke="black" points="154.85,-13.32 165.44,-13.6 157.33,-6.78 154.85,-13.32"/>
<text text-anchor="middle" x="99" y="-7.5" font-family="Times,serif" font-size="14.00">.</text>
</g>
<!-- A&#45;&gt;B -->
<g id="edge6" class="edge">
<title>A&#45;&gt;B</title>
<path fill="none" stroke="black" d="M116,-52.22C126.26,-56.4 139.88,-61.95 152,-66.89"/>
<polygon fill="black" stroke="black" points="150.73,-70.15 161.31,-70.68 153.37,-63.66 150.73,-70.15"/>
<text text-anchor="middle" x="138.5" y="-65.5" font-family="Times,serif" font-size="14.00">d</text>
</g>
<!-- A&#45;&gt;G -->
<g id="edge5" class="edge">
<title>A&#45;&gt;G</title>
<path fill="none" stroke="black" d="M115.85,-38.79C121.79,-36.35 128.64,-33.72 135,-31.7 141.12,-29.76 147.79,-27.98 154.1,-26.44"/>
<polygon fill="black" stroke="black" points="155.28,-29.76 164.23,-24.09 153.7,-22.94 155.28,-29.76"/>
<text text-anchor="middle" x="138.5" y="-35.5" font-family="Times,serif" font-size="14.00">.</text>
</g>
<!-- G&#45;&gt;D -->
<g id="edge7" class="edge">
<title>G&#45;&gt;D</title>
<path fill="none" stroke="black" d="M199.39,-26.29C210.46,-30.07 225.39,-35.16 238.5,-39.64"/>
<polygon fill="black" stroke="black" points="237.48,-42.98 248.07,-42.9 239.74,-36.36 237.48,-42.98"/>
<text text-anchor="middle" x="225.5" y="-39.5" font-family="Times,serif" font-size="14.00">d</text>
</g>
</g>
</svg>
