<?xml version="1.0" encoding="UTF-8" standalone="no"?>
<!DOCTYPE svg PUBLIC "-//W3C//DTD SVG 1.1//EN"
 "http://www.w3.org/Graphics/SVG/1.1/DTD/svg11.dtd">
<!-- Generated by graphviz version 2.47.0 (20210316.0004)
 -->
<!-- Title: finite_state_machine Pages: 1 -->
<svg width="864pt" height="411pt"
 viewBox="0.00 0.00 864.00 410.70" xmlns="http://www.w3.org/2000/svg" xmlns:xlink="http://www.w3.org/1999/xlink">
<g id="graph0" class="graph" transform="scale(1.7 1.7) rotate(0) translate(4 237)">
<title>finite_state_machine</title>
<polygon fill="white" stroke="transparent" points="-4,4 -4,-237 503,-237 503,4 -4,4"/>
<!-- F -->
<g id="node1" class="node">
<title>F</title>
<ellipse fill="none" stroke="black" cx="477" cy="-105" rx="18" ry="18"/>
<ellipse fill="none" stroke="black" cx="477" cy="-105" rx="22" ry="22"/>
<text text-anchor="middle" x="477" y="-101.3" font-family="Times,serif" font-size="14.00">F</text>
</g>
<!-- S -->
<g id="node2" class="node">
<title>S</title>
<ellipse fill="none" stroke="black" cx="18" cy="-105" rx="18" ry="18"/>
<text text-anchor="middle" x="18" y="-101.3" font-family="Times,serif" font-size="14.00">S</text>
</g>
<!-- A -->
<g id="node3" class="node">
<title>A</title>
<ellipse fill="none" stroke="black" cx="99" cy="-105" rx="18" ry="18"/>
<text text-anchor="middle" x="99" y="-101.3" font-family="Times,serif" font-size="14.00">A</text>
</g>
<!-- S&#45;&gt;A -->
<g id="edge1" class="edge">
<title>S&#45;&gt;A</title>
<path fill="none" stroke="black" d="M34.18,-113.66C40.16,-116.6 47.21,-119.52 54,-121 60.67,-122.45 67.7,-121.23 74.14,-118.93"/>
<polygon fill="black" stroke="black" points="75.94,-121.96 83.62,-114.66 73.07,-115.57 75.94,-121.96"/>
<text text-anchor="middle" x="58.5" y="-124.8" font-family="Times,serif" font-size="14.00">+</text>
</g>
<!-- S&#45;&gt;A -->
<g id="edge2" class="edge">
<title>S&#45;&gt;A</title>
<path fill="none" stroke="black" d="M36.07,-103.24C41.77,-102.73 48.15,-102.25 54,-102 59.41,-101.77 65.18,-101.89 70.71,-102.2"/>
<polygon fill="black" stroke="black" points="70.65,-105.7 80.88,-102.95 71.16,-98.72 70.65,-105.7"/>
<text text-anchor="middle" x="58.5" y="-105.8" font-family="Times,serif" font-size="14.00">&#45;</text>
</g>
<!-- S&#45;&gt;A -->
<g id="edge3" class="edge">
<title>S&#45;&gt;A</title>
<path fill="none" stroke="black" d="M31.16,-92.67C39.71,-85.54 51.6,-78.59 63,-82 67.51,-83.35 71.98,-85.49 76.14,-87.93"/>
<polygon fill="black" stroke="black" points="74.37,-90.96 84.64,-93.57 78.24,-85.13 74.37,-90.96"/>
<text text-anchor="middle" x="58.5" y="-85.8" font-family="Times,serif" font-size="14.00">ε</text>
</g>
<!-- B -->
<g id="node4" class="node">
<title>B</title>
<ellipse fill="none" stroke="black" cx="232" cy="-182" rx="18" ry="18"/>
<text text-anchor="middle" x="232" y="-178.3" font-family="Times,serif" font-size="14.00">B</text>
</g>
<!-- A&#45;&gt;B -->
<g id="edge4" class="edge">
<title>A&#45;&gt;B</title>
<path fill="none" stroke="black" d="M110.31,-119.13C121.14,-132.93 139.43,-153.49 160,-165 173.49,-172.55 190.23,-176.76 204.07,-179.11"/>
<polygon fill="black" stroke="black" points="203.58,-182.57 213.99,-180.56 204.6,-175.65 203.58,-182.57"/>
<text text-anchor="middle" x="138.5" y="-154.8" font-family="Times,serif" font-size="14.00">d</text>
</g>
<!-- C -->
<g id="node5" class="node">
<title>C</title>
<ellipse fill="none" stroke="black" cx="178" cy="-105" rx="18" ry="18"/>
<text text-anchor="middle" x="178" y="-101.3" font-family="Times,serif" font-size="14.00">C</text>
</g>
<!-- A&#45;&gt;C -->
<g id="edge5" class="edge">
<title>A&#45;&gt;C</title>
<path fill="none" stroke="black" d="M117.09,-105C126.66,-105 138.82,-105 149.68,-105"/>
<polygon fill="black" stroke="black" points="149.96,-108.5 159.96,-105 149.96,-101.5 149.96,-108.5"/>
<text text-anchor="middle" x="138.5" y="-108.8" font-family="Times,serif" font-size="14.00">d</text>
</g>
<!-- E -->
<g id="node6" class="node">
<title>E</title>
<ellipse fill="none" stroke="black" cx="178" cy="-18" rx="18" ry="18"/>
<text text-anchor="middle" x="178" y="-14.3" font-family="Times,serif" font-size="14.00">E</text>
</g>
<!-- A&#45;&gt;E -->
<g id="edge6" class="edge">
<title>A&#45;&gt;E</title>
<path fill="none" stroke="black" d="M111.69,-91.79C124.2,-77.65 144.21,-55.05 158.79,-38.58"/>
<polygon fill="black" stroke="black" points="161.44,-40.86 165.45,-31.05 156.2,-36.22 161.44,-40.86"/>
<text text-anchor="middle" x="138.5" y="-68.8" font-family="Times,serif" font-size="14.00">ε</text>
</g>
<!-- B&#45;&gt;F -->
<g id="edge8" class="edge">
<title>B&#45;&gt;F</title>
<path fill="none" stroke="black" d="M250.31,-180.19C274.74,-177.32 320.54,-170.82 358,-159 390.1,-148.87 424.93,-132.17 448.36,-120.02"/>
<polygon fill="black" stroke="black" points="450.14,-123.04 457.36,-115.29 446.88,-116.84 450.14,-123.04"/>
<text text-anchor="middle" x="340" y="-171.8" font-family="Times,serif" font-size="14.00">ε</text>
</g>
<!-- B&#45;&gt;B -->
<g id="edge7" class="edge">
<title>B&#45;&gt;B</title>
<path fill="none" stroke="black" d="M222.77,-197.54C220.17,-207.91 223.25,-218 232,-218 237.74,-218 241.04,-213.65 241.9,-207.74"/>
<polygon fill="black" stroke="black" points="245.38,-207.29 241.23,-197.54 238.39,-207.75 245.38,-207.29"/>
<text text-anchor="middle" x="232" y="-221.8" font-family="Times,serif" font-size="14.00">d</text>
</g>
<!-- C&#45;&gt;C -->
<g id="edge9" class="edge">
<title>C&#45;&gt;C</title>
<path fill="none" stroke="black" d="M171.27,-122.04C169.89,-131.86 172.14,-141 178,-141 181.66,-141 183.92,-137.43 184.75,-132.35"/>
<polygon fill="black" stroke="black" points="188.25,-132.03 184.73,-122.04 181.25,-132.04 188.25,-132.03"/>
<text text-anchor="middle" x="178" y="-144.8" font-family="Times,serif" font-size="14.00">d</text>
</g>
<!-- D -->
<g id="node7" class="node">
<title>D</title>
<ellipse fill="none" stroke="black" cx="340" cy="-105" rx="18" ry="18"/>
<text text-anchor="middle" x="340" y="-101.3" font-family="Times,serif" font-size="14.00">D</text>
</g>
<!-- C&#45;&gt;D -->
<g id="edge10" class="edge">
<title>C&#45;&gt;D</title>
<path fill="none" stroke="black" d="M196.12,-105C223.65,-105 277.99,-105 311.15,-105"/>
<polygon fill="black" stroke="black" points="311.52,-108.5 321.52,-105 311.52,-101.5 311.52,-108.5"/>
<text text-anchor="middle" x="232" y="-108.8" font-family="Times,serif" font-size="14.00">.</text>
</g>
<!-- E&#45;&gt;E -->
<g id="edge11" class="edge">
<title>E&#45;&gt;E</title>
<path fill="none" stroke="black" d="M171.27,-35.04C169.89,-44.86 172.14,-54 178,-54 181.66,-54 183.92,-50.43 184.75,-45.35"/>
<polygon fill="black" stroke="black" points="188.25,-45.03 184.73,-35.04 181.25,-45.04 188.25,-45.03"/>
<text text-anchor="middle" x="178" y="-57.8" font-family="Times,serif" font-size="14.00">d</text>
</g>
<!-- G -->
<g id="node8" class="node">
<title>G</title>
<ellipse fill="none" stroke="black" cx="286" cy="-18" rx="18" ry="18"/>
<text text-anchor="middle" x="286" y="-14.3" font-family="Times,serif" font-size="14.00">G</text>
</g>
<!-- E&#45;&gt;G -->
<g id="edge12" class="edge">
<title>E&#45;&gt;G</title>
<path fill="none" stroke="black" d="M196.03,-18C212.62,-18 238.12,-18 257.57,-18"/>
<polygon fill="black" stroke="black" points="257.66,-21.5 267.66,-18 257.66,-14.5 257.66,-21.5"/>
<text text-anchor="middle" x="232" y="-21.8" font-family="Times,serif" font-size="14.00">.</text>
</g>
<!-- D&#45;&gt;F -->
<g id="edge14" class="edge">
<title>D&#45;&gt;F</title>
<path fill="none" stroke="black" d="M358.1,-105C379.77,-105 417.55,-105 444.5,-105"/>
<polygon fill="black" stroke="black" points="444.6,-108.5 454.6,-105 444.6,-101.5 444.6,-108.5"/>
<text text-anchor="middle" x="394" y="-108.8" font-family="Times,serif" font-size="14.00">ε</text>
</g>
<!-- D&#45;&gt;D -->
<g id="edge13" class="edge">
<title>D&#45;&gt;D</title>
<path fill="none" stroke="black" d="M330.77,-120.54C328.17,-130.91 331.25,-141 340,-141 345.74,-141 349.04,-136.65 349.9,-130.74"/>
<polygon fill="black" stroke="black" points="353.38,-130.29 349.23,-120.54 346.39,-130.75 353.38,-130.29"/>
<text text-anchor="middle" x="340" y="-144.8" font-family="Times,serif" font-size="14.00">d</text>
</g>
<!-- H -->
<g id="node9" class="node">
<title>H</title>
<ellipse fill="none" stroke="black" cx="394" cy="-18" rx="18" ry="18"/>
<text text-anchor="middle" x="394" y="-14.3" font-family="Times,serif" font-size="14.00">H</text>
</g>
<!-- G&#45;&gt;H -->
<g id="edge15" class="edge">
<title>G&#45;&gt;H</title>
<path fill="none" stroke="black" d="M304.03,-18C320.62,-18 346.12,-18 365.57,-18"/>
<polygon fill="black" stroke="black" points="365.66,-21.5 375.66,-18 365.66,-14.5 365.66,-21.5"/>
<text text-anchor="middle" x="340" y="-21.8" font-family="Times,serif" font-size="14.00">d</text>
</g>
<!-- H&#45;&gt;F -->
<g id="edge17" class="edge">
<title>H&#45;&gt;F</title>
<path fill="none" stroke="black" d="M406.95,-30.84C419.36,-44.16 439.03,-65.29 454.21,-81.6"/>
<polygon fill="black" stroke="black" points="451.87,-84.22 461.25,-89.16 457,-79.45 451.87,-84.22"/>
<text text-anchor="middle" x="433.5" y="-65.8" font-family="Times,serif" font-size="14.00">ε</text>
</g>
<!-- H&#45;&gt;H -->
<g id="edge16" class="edge">
<title>H&#45;&gt;H</title>
<path fill="none" stroke="black" d="M387.27,-35.04C385.89,-44.86 388.14,-54 394,-54 397.66,-54 399.92,-50.43 400.75,-45.35"/>
<polygon fill="black" stroke="black" points="404.25,-45.03 400.73,-35.04 397.25,-45.04 404.25,-45.03"/>
<text text-anchor="middle" x="394" y="-57.8" font-family="Times,serif" font-size="14.00">d</text>
</g>
</g>
</svg>
